<?xml version="1.0" standalone="no"?><!DOCTYPE svg PUBLIC "-//W3C//DTD SVG 1.1//EN" "http://www.w3.org/Graphics/SVG/1.1/DTD/svg11.dtd"><svg class="icon" width="200px" height="200.00px" viewBox="0 0 1024 1024" version="1.1" xmlns="http://www.w3.org/2000/svg"><path d="M743.424 208.896h163.84v81.92h-163.84z"  /><path d="M1024 780.288V174.08c0-20.48 0-40.96-12.288-59.392-16.384-12.288-38.912-10.24-59.392-10.24H602.112V12.288H532.48c-176.128 30.72-354.304 61.44-532.48 92.16v815.104c178.176 30.72 354.304 61.44 532.48 92.16h71.68v-104.448h362.496c18.432 0 49.152-2.048 53.248-24.576 6.144-34.816 2.048-69.632 4.096-102.4z" fill="#226F47" /><path d="M989.184 872.448H604.16v-69.632h94.208v-81.92h-94.208V675.84h94.208v-81.92h-94.208v-47.104h94.208v-81.92h-94.208v-45.056h94.208v-81.92h-94.208v-47.104h94.208v-81.92h-94.208V139.264h385.024z" fill="#FFFFFF" /><path d="M743.424 337.92h163.84v81.92h-163.84zM743.424 208.896h163.84v81.92h-163.84zM743.424 464.896h163.84v81.92h-163.84zM743.424 593.92h163.84v81.92h-163.84zM743.424 720.896h163.84v81.92h-163.84z" fill="#226F47" /><path d="M342.016 694.272c-20.48-49.152-43.008-96.256-57.344-145.408-16.384 47.104-38.912 92.16-57.344 137.216-24.576 0-51.2-2.048-75.776-2.048 30.72-59.392 59.392-116.736 90.112-176.128-26.624-59.392-55.296-118.784-81.92-178.176 24.576-2.048 51.2-2.048 75.776-4.096 16.384 45.056 36.864 90.112 51.2 137.216 14.336-49.152 38.912-96.256 57.344-143.36 26.624-2.048 53.248-4.096 79.872-4.096-30.72 63.488-61.44 126.976-94.208 190.464 32.768 65.536 65.536 129.024 96.256 194.56-26.624-2.048-55.296-4.096-83.968-6.144z" fill="#FFFFFF" /></svg>