<?xml version="1.0" standalone="no"?><!DOCTYPE svg PUBLIC "-//W3C//DTD SVG 1.1//EN" "http://www.w3.org/Graphics/SVG/1.1/DTD/svg11.dtd"><svg class="icon" width="200px" height="200.00px" viewBox="0 0 1024 1024" version="1.1" xmlns="http://www.w3.org/2000/svg"><path d="M917.504 229.376c-22.528-30.72-53.248-65.536-88.064-100.352-34.816-34.816-69.632-65.536-100.352-88.064C679.936 4.096 655.36 0 641.024 0H143.36C100.352 0 63.488 36.864 63.488 79.872v864.256C63.488 987.136 100.352 1024 143.36 1024h737.28c45.056 0 79.872-36.864 79.872-79.872V319.488c0-14.336-4.096-38.912-43.008-90.112z" fill="#D14322" /><path d="M841.728 589.824c-14.336-14.336-43.008-20.48-90.112-20.48-30.72 0-69.632 2.048-108.544 8.192-18.432-10.24-36.864-20.48-51.2-34.816-38.912-36.864-69.632-86.016-90.112-141.312 2.048-4.096 2.048-10.24 4.096-14.336 0 0 22.528-122.88 16.384-163.84 0-6.144-2.048-8.192-2.048-12.288l-2.048-6.144c-6.144-14.336-18.432-28.672-34.816-26.624h-10.24c-20.48 0-36.864 10.24-40.96 26.624-12.288 49.152 0 120.832 24.576 215.04l-6.144 14.336c-18.432 43.008-38.912 86.016-59.392 124.928l-2.048 4.096c-20.48 40.96-38.912 73.728-55.296 102.4l-16.384 8.192c-2.048 0-30.72 16.384-38.912 20.48-59.392 34.816-98.304 75.776-104.448 106.496-2.048 10.24 0 22.528 10.24 28.672l14.336 10.24c8.192 4.096 14.336 6.144 22.528 6.144 43.008 0 92.16-53.248 157.696-169.984 77.824-24.576 165.888-47.104 243.712-57.344 59.392 32.768 133.12 57.344 178.176 57.344 8.192 0 14.336 0 20.48-2.048 8.192-2.048 16.384-8.192 20.48-14.336 8.192-14.336 10.24-32.768 8.192-51.2 2.048-6.144-2.048-14.336-8.192-18.432z" fill="#FFFFFF" /><path d="M210.944 813.056c8.192-20.48 38.912-63.488 83.968-100.352 2.048-2.048 10.24-8.192 16.384-14.336-47.104 75.776-79.872 106.496-100.352 114.688zM479.232 198.656c14.336 0 20.48 34.816 22.528 65.536 0 32.768-6.144 55.296-16.384 71.68-8.192-24.576-12.288-63.488-12.288-88.064 0 0 0-49.152 6.144-49.152zM399.36 636.928c10.24-16.384 18.432-34.816 28.672-53.248 24.576-47.104 40.96-81.92 51.2-112.64 22.528 40.96 51.2 77.824 83.968 106.496 4.096 4.096 8.192 6.144 12.288 10.24-65.536 14.336-124.928 30.72-176.128 49.152zM829.44 632.832c-4.096 2.048-16.384 4.096-24.576 4.096-24.576 0-55.296-12.288-98.304-28.672 16.384-2.048 30.72-2.048 45.056-2.048 24.576 0 32.768 0 57.344 6.144 24.576 6.144 24.576 18.432 20.48 20.48z" fill="#D14322" /><path d="M784.384 174.08c30.72 30.72 55.296 59.392 71.68 81.92h-153.6V102.4c24.576 18.432 53.248 40.96 81.92 71.68z" fill="#FFFFFF" /></svg>