<?xml version="1.0" standalone="no"?><!DOCTYPE svg PUBLIC "-//W3C//DTD SVG 1.1//EN" "http://www.w3.org/Graphics/SVG/1.1/DTD/svg11.dtd"><svg class="icon" width="200px" height="200.00px" viewBox="0 0 1024 1024" version="1.1" xmlns="http://www.w3.org/2000/svg"><path d="M571.392 129.024h430.08v745.472h-430.08zM81.92 129.024h430.08v745.472H81.92z" fill="#FFFFFF" /><path d="M839.68 382.976c-4.096-79.872-71.68-149.504-153.6-151.552v153.6c51.2 0 102.4 0 153.6-2.048z m182.272-221.184c2.048-26.624-18.432-47.104-45.056-45.056-124.928-2.048-247.808 0-372.736 0V12.288h-65.536C358.4 43.008 180.224 73.728 0 104.448v815.104c178.176 30.72 354.304 61.44 532.48 92.16h71.68v-116.736h348.16c20.48 0 43.008 0 59.392-12.288 14.336-20.48 10.24-47.104 10.24-69.632 0-217.088 2.048-434.176 0-651.264z m-679.936 389.12c-26.624 14.336-57.344 12.288-86.016 10.24v137.216c-22.528-2.048-47.104-4.096-69.632-6.144-2.048-124.928-2.048-247.808 0-372.736 63.488 2.048 139.264-24.576 192.512 22.528 49.152 59.392 36.864 172.032-36.864 208.896zM989.184 860.16H604.16v-92.16h278.528v-47.104H604.16v-57.344h278.528v-47.104H604.16v-67.584c47.104 14.336 98.304 14.336 139.264-14.336 45.056-26.624 67.584-75.776 71.68-126.976h-153.6c0-51.2 0-100.352-2.048-151.552-18.432 4.096-38.912 8.192-57.344 12.288V151.552h382.976V860.16zM256 382.976c0 38.912 0 77.824 2.048 116.736 22.528-2.048 53.248 0 65.536-24.576 10.24-22.528 12.288-53.248-2.048-75.776s-43.008-18.432-65.536-16.384z m0 0" fill="#D14322" /></svg>