<?xml version="1.0" standalone="no"?><!DOCTYPE svg PUBLIC "-//W3C//DTD SVG 1.1//EN" "http://www.w3.org/Graphics/SVG/1.1/DTD/svg11.dtd"><svg class="icon" width="200px" height="199.22px" viewBox="0 0 1028 1024" version="1.1" xmlns="http://www.w3.org/2000/svg"><path d="M512 112.64h499.712v794.624H512z" fill="#FFFFFF" /><path d="M51.2 112.64h499.712v794.624H51.2z" fill="#FFFFFF" /><path d="M1021.952 149.504C1026.048 122.88 1003.52 102.4 978.944 106.496c-124.928-2.048-247.808 0-372.736 0V12.288h-69.632C356.352 43.008 178.176 73.728 0 104.448v815.104c178.176 30.72 354.304 61.44 532.48 92.16h73.728v-92.16h350.208c20.48 0 40.96 0 59.392-12.288 14.336-20.48 10.24-47.104 12.288-69.632-6.144-229.376-4.096-458.752-6.144-688.128zM389.12 669.696c-18.432 10.24-49.152 0-71.68 2.048-16.384-77.824-32.768-153.6-47.104-231.424-14.336 75.776-30.72 149.504-47.104 225.28-22.528-2.048-45.056-2.048-67.584-4.096-18.432-102.4-43.008-204.8-59.392-307.2 20.48 0 38.912-2.048 59.392-2.048L192.512 573.44l49.152-227.328c22.528-2.048 45.056-2.048 65.536-4.096 16.384 77.824 30.72 157.696 47.104 235.52 12.288-79.872 28.672-161.792 40.96-241.664 22.528 0 47.104-2.048 69.632-4.096-24.576 112.64-47.104 225.28-75.776 337.92z m600.064 215.04H604.16v-92.16h303.104v-47.104H604.16v-57.344h303.104v-47.104H604.16v-57.344h303.104v-47.104H604.16v-57.344h303.104V430.08H604.16v-57.344h303.104v-47.104H604.16v-57.344h303.104v-47.104H604.16v-81.92h382.976v745.472z m0 0" fill="#2C5494" /></svg>