<?xml version="1.0" standalone="no"?><!DOCTYPE svg PUBLIC "-//W3C//DTD SVG 1.1//EN" "http://www.w3.org/Graphics/SVG/1.1/DTD/svg11.dtd"><svg class="icon" width="200px" height="200.00px" viewBox="0 0 1024 1024" version="1.1" xmlns="http://www.w3.org/2000/svg"><path fill="#333333" d="M512 0C229.376 0 0 229.376 0 512s229.376 512 512 512 512-229.376 512-512S794.624 0 512 0z m268.288 550.912H550.912v231.424c0 20.48-16.384 38.912-38.912 38.912s-38.912-16.384-38.912-38.912V550.912H243.712c-20.48 0-38.912-16.384-38.912-38.912s16.384-38.912 38.912-38.912h231.424V243.712c0-20.48 16.384-38.912 38.912-38.912s38.912 16.384 38.912 38.912v231.424h231.424c20.48 0 38.912 16.384 38.912 38.912s-20.48 36.864-43.008 36.864z"  /></svg>