<?xml version="1.0" standalone="no"?><!DOCTYPE svg PUBLIC "-//W3C//DTD SVG 1.1//EN" "http://www.w3.org/Graphics/SVG/1.1/DTD/svg11.dtd"><svg class="icon" width="200px" height="200.00px" viewBox="0 0 1024 1024" version="1.1" xmlns="http://www.w3.org/2000/svg"><path fill="#333333" d="M512 0C229.376 0 0 229.376 0 512s229.376 512 512 512 512-229.376 512-512S794.624 0 512 0z m0 946.176C272.384 946.176 75.776 751.616 75.776 512S272.384 75.776 512 75.776 948.224 272.384 948.224 512 751.616 946.176 512 946.176zM780.288 473.088H550.912V243.712c0-20.48-16.384-38.912-38.912-38.912s-38.912 16.384-38.912 38.912v231.424H243.712c-20.48 0-38.912 16.384-38.912 38.912s16.384 38.912 38.912 38.912h229.376v229.376c0 20.48 16.384 38.912 38.912 38.912s38.912-16.384 38.912-38.912V550.912h229.376c20.48 0 38.912-16.384 38.912-38.912s-16.384-38.912-38.912-38.912z" /></svg>