<?xml version="1.0" standalone="no"?><!DOCTYPE svg PUBLIC "-//W3C//DTD SVG 1.1//EN" "http://www.w3.org/Graphics/SVG/1.1/DTD/svg11.dtd"><svg class="icon" width="200px" height="199.80px" viewBox="0 0 1025 1024" version="1.1" xmlns="http://www.w3.org/2000/svg"><path fill="#333333" d="M175.3088 410.4192c0 50.176 40.96 91.136 91.136 91.136s91.136-40.96 91.136-91.136-40.96-91.136-91.136-91.136-91.136 40.96-91.136 91.136z m119.1936 0c0 15.36-12.4928 28.0576-28.0576 28.0576-15.36 0-28.0576-12.4928-28.0576-28.0576 0-15.36 12.4928-28.0576 28.0576-28.0576 15.5648 0 28.0576 12.4928 28.0576 28.0576zM988.5696 216.8832h-153.1904V63.488c0-20.2752-16.384-36.6592-36.6592-36.6592s-36.6592 16.384-36.6592 36.6592v153.1904H608.8704c-20.2752 0-36.6592 16.384-36.6592 36.6592s16.384 36.6592 36.6592 36.6592h153.1904v153.1904c0 20.2752 16.384 36.6592 36.6592 36.6592s36.6592-16.384 36.6592-36.6592v-153.1904h153.1904c20.2752 0 36.6592-16.384 36.6592-36.6592-0.2048-20.0704-16.5888-36.4544-36.6592-36.4544zM924.4672 517.9392c-21.0944 0-38.0928 16.9984-38.0928 38.0928v142.7456c-42.3936-64.512-92.9792-138.24-122.6752-169.3696-30.5152-31.9488-62.0544-38.7072-83.1488-38.7072-46.4896 0-80.0768 31.5392-86.016 37.4784-1.6384 1.4336-145.2032 135.5776-183.0912 171.4176-15.1552-16.7936-45.8752-50.5856-75.776-80.4864-25.1904-25.1904-57.9584-33.5872-92.3648-23.552-21.2992 6.3488-36.2496 17.6128-40.5504 21.2992L76.3904 725.8112V229.7856c0-21.0944 17.2032-38.0928 38.0928-38.0928h366.7968c21.0944 0 38.0928-16.9984 38.0928-38.0928s-16.9984-38.0928-38.0928-38.0928H114.4832a114.688 114.688 0 0 0-114.4832 114.4832V882.688a114.688 114.688 0 0 0 114.4832 114.4832h733.5936a114.688 114.688 0 0 0 114.4832-114.4832V556.2368c0.2048-21.0944-16.9984-38.2976-38.0928-38.2976zM886.3744 882.688c0 21.0944-17.2032 38.0928-38.0928 38.0928H114.4832c-21.0944 0-38.0928-17.2032-38.0928-38.0928v-46.2848l178.7904-156.0576c1.4336-1.2288 6.7584-4.5056 12.0832-5.9392 4.7104-1.2288 6.7584-0.6144 10.24 3.072 33.9968 33.792 70.4512 74.752 80.896 86.4256 5.7344 6.9632 21.7088 22.9376 47.3088 24.7808 13.7216 0.8192 34.4064-2.048 54.6816-21.9136 8.6016-8.3968 138.24-129.6384 191.0784-178.7904l1.4336-1.4336c3.4816-3.4816 15.9744-13.312 28.0576-13.312 7.3728 0 14.9504 4.3008 23.3472 13.1072 37.0688 39.1168 138.0352 184.1152 182.272 251.904v44.4416z" /></svg>