<?xml version="1.0" standalone="no"?><!DOCTYPE svg PUBLIC "-//W3C//DTD SVG 1.1//EN" "http://www.w3.org/Graphics/SVG/1.1/DTD/svg11.dtd"><svg class="icon" width="200px" height="200.00px" viewBox="0 0 1024 1024" version="1.1" xmlns="http://www.w3.org/2000/svg"><path fill="#333333" d="M673.792 276.48H135.168l159.744-159.744c16.384-16.384 16.384-40.96 0-55.296-16.384-16.384-40.96-16.384-55.296 0L12.288 286.72c-8.192 8.192-12.288 16.384-12.288 26.624s4.096 20.48 12.288 28.672l225.28 225.28c16.384 16.384 40.96 16.384 55.296 0 16.384-16.384 16.384-40.96 0-55.296l-155.648-155.648h536.576c149.504 0 270.336 120.832 270.336 270.336s-120.832 270.336-270.336 270.336h-409.6c-22.528 0-40.96 18.432-40.96 40.96s18.432 40.96 40.96 40.96h409.6C868.352 976.896 1024 819.2 1024 626.688c0-194.56-155.648-350.208-350.208-350.208z m0 0" /></svg>