<?xml version="1.0" standalone="no"?><!DOCTYPE svg PUBLIC "-//W3C//DTD SVG 1.1//EN" "http://www.w3.org/Graphics/SVG/1.1/DTD/svg11.dtd"><svg class="icon" width="200px" height="200.00px" viewBox="0 0 1024 1024" version="1.1" xmlns="http://www.w3.org/2000/svg"><path fill="#333333" d="M946.176 948.224H77.824c-24.576 0-36.864 18.432-36.864 38.912 0 18.432 12.288 36.864 36.864 36.864h866.304c24.576 0 36.864-18.432 36.864-38.912 2.048-18.432-10.24-36.864-34.816-36.864zM796.672 409.6h-94.208c-8.192 0-14.336 8.192-14.336 16.384v36.864c0 8.192 8.192 16.384 14.336 16.384h94.208c8.192 0 14.336-8.192 14.336-16.384v-36.864c4.096-8.192-4.096-16.384-14.336-16.384zM796.672 585.728h-94.208c-8.192 0-14.336 8.192-14.336 16.384v36.864c0 8.192 8.192 16.384 14.336 16.384h94.208c8.192 0 14.336-8.192 14.336-16.384v-36.864c4.096-10.24-4.096-16.384-14.336-16.384zM241.664 655.36h94.208c8.192 0 14.336-8.192 14.336-16.384v-36.864c2.048-10.24-4.096-16.384-14.336-16.384h-94.208c-8.192 0-14.336 8.192-14.336 16.384v36.864c-2.048 8.192 6.144 16.384 14.336 16.384zM241.664 479.232h94.208c8.192 0 14.336-8.192 14.336-16.384v-36.864c2.048-8.192-4.096-16.384-14.336-16.384h-94.208c-8.192 0-14.336 8.192-14.336 16.384v36.864c-2.048 8.192 6.144 16.384 14.336 16.384zM241.664 303.104h94.208c8.192 0 14.336-8.192 14.336-16.384v-36.864c2.048-8.192-4.096-16.384-14.336-16.384h-94.208c-8.192 0-14.336 8.192-14.336 16.384V286.72c-2.048 8.192 6.144 16.384 14.336 16.384zM430.08 655.36h94.208c8.192 0 14.336-8.192 14.336-16.384v-36.864c0-10.24-8.192-16.384-14.336-16.384H430.08c-8.192 0-14.336 8.192-14.336 16.384v36.864c0 8.192 8.192 16.384 14.336 16.384zM430.08 479.232h94.208c8.192 0 14.336-8.192 14.336-16.384v-36.864c0-8.192-8.192-16.384-14.336-16.384H430.08c-8.192 0-14.336 8.192-14.336 16.384v36.864c0 8.192 8.192 16.384 14.336 16.384zM430.08 303.104h94.208c8.192 0 14.336-8.192 14.336-16.384v-36.864c0-8.192-8.192-16.384-14.336-16.384H430.08c-8.192 0-14.336 8.192-14.336 16.384V286.72c0 8.192 8.192 16.384 14.336 16.384zM905.216 247.808c0-53.248-40.96-98.304-90.112-98.304h-155.648V98.304c0-53.248-40.96-98.304-90.112-98.304H208.896C157.696 0 118.784 43.008 118.784 98.304v821.248h788.48V247.808z m-696.32-169.984h360.448c6.144 0 12.288 8.192 12.288 20.48V839.68H196.608V98.304c0-12.288 6.144-20.48 12.288-20.48z m450.56 761.856V229.376h155.648c6.144 0 12.288 8.192 12.288 20.48V839.68h-167.936z" /></svg>