<?xml version="1.0" standalone="no"?><!DOCTYPE svg PUBLIC "-//W3C//DTD SVG 1.1//EN" "http://www.w3.org/Graphics/SVG/1.1/DTD/svg11.dtd"><svg class="icon" width="200px" height="200.00px" viewBox="0 0 1024 1024" version="1.1" xmlns="http://www.w3.org/2000/svg"><path fill="#333333" d="M512 0C229.7856 0 0 229.7856 0 512c0 282.4192 229.7856 512 512 512 282.4192 0 512-229.5808 512-512C1024 229.7856 794.4192 0 512 0z m194.7648 658.0224c13.5168 13.5168 13.5168 35.2256 0 48.7424s-35.2256 13.5168-48.7424 0L512 560.7424l-146.0224 146.0224c-13.5168 13.5168-35.2256 13.5168-48.7424 0s-13.5168-35.2256 0-48.7424L463.2576 512l-146.0224-146.0224c-13.5168-13.5168-13.5168-35.2256 0-48.7424s35.2256-13.5168 48.7424 0L512 463.2576l146.0224-146.0224c13.5168-13.5168 35.2256-13.5168 48.7424 0s13.5168 35.2256 0 48.7424L560.7424 512l146.0224 146.0224z" /></svg>