<?xml version="1.0" standalone="no"?><!DOCTYPE svg PUBLIC "-//W3C//DTD SVG 1.1//EN" "http://www.w3.org/Graphics/SVG/1.1/DTD/svg11.dtd"><svg class="icon" width="200px" height="99.90px" viewBox="0 0 2050 1024" version="1.1" xmlns="http://www.w3.org/2000/svg"><path fill="#333333" d="M2050.163974 1532.42790692c-2.381395-271.47907-1.190698-542.95814-1.190698-814.437209-23.813953-54.772093-153.6-190.511628-250.046511-202.418605h-71.441861c-67.869767 13.097674-117.87907 35.72093-189.32093 76.204651-50.009302 28.576744-85.730233 76.204651-129.786047 113.116279-109.544186 94.065116-208.372093 200.037209-319.106976 292.911628-100.018605 83.348837-192.893023 82.15814-300.055814 25.004651-94.065116-50.009302-188.130233-101.209302-289.339535-139.311628-115.497674-44.055814-239.330233-11.906977-314.344186 85.730233C91.4663 1093.06046492 16.452346 1227.60930192 2.163974 1384.78139492c-4.762791 46.437209 0 95.255814-1.190698 142.883721v4.762791h2049.190698z" /></svg>