<?xml version="1.0" standalone="no"?><!DOCTYPE svg PUBLIC "-//W3C//DTD SVG 1.1//EN" "http://www.w3.org/Graphics/SVG/1.1/DTD/svg11.dtd"><svg class="icon" width="200px" height="200.00px" viewBox="0 0 1024 1024" version="1.1" xmlns="http://www.w3.org/2000/svg"><path fill="#333333" d="M954.7776 941.056H69.2224c-22.9376 0-41.5744 18.6368-41.5744 41.5744S46.2848 1024 69.2224 1024h885.5552c22.9376 0 41.5744-18.6368 41.5744-41.5744s-18.6368-41.3696-41.5744-41.3696zM108.544 870.4h146.6368c28.2624 0 51.2-23.1424 51.2-51.2V388.096a51.2 51.2 0 0 0-51.2-51.2H108.544c-28.0576 0-51.2 22.9376-51.2 51.2V819.2c0 28.0576 23.1424 51.2 51.2 51.2zM411.0336 870.4h146.6368c28.2624 0 51.2-23.1424 51.2-51.2V51.2a51.2 51.2 0 0 0-51.2-51.2h-146.6368c-28.0576 0-51.2 22.9376-51.2 51.2V819.2c0 28.0576 22.9376 51.2 51.2 51.2zM722.944 870.4h146.6368c28.2624 0 51.2-23.1424 51.2-51.2V219.7504a51.2 51.2 0 0 0-51.2-51.2H722.944c-28.0576 0-51.2 22.9376-51.2 51.2V819.2c0 28.0576 23.1424 51.2 51.2 51.2z" /></svg>