<?xml version="1.0" standalone="no"?><!DOCTYPE svg PUBLIC "-//W3C//DTD SVG 1.1//EN" "http://www.w3.org/Graphics/SVG/1.1/DTD/svg11.dtd"><svg class="icon" width="200px" height="200.00px" viewBox="0 0 1024 1024" version="1.1" xmlns="http://www.w3.org/2000/svg"><path fill="#333333" d="M954.368 940.032H69.632c-22.528 0-40.96 18.432-40.96 40.96s18.432 40.96 40.96 40.96h884.736c22.528 0 40.96-18.432 40.96-40.96s-18.432-40.96-40.96-40.96zM180.224 858.112h55.296c53.248 0 96.256-43.008 96.256-96.256V428.032c0-53.248-43.008-96.256-96.256-96.256H180.224c-53.248 0-96.256 43.008-96.256 96.256v331.776c0 55.296 43.008 98.304 96.256 98.304z m-14.336-430.08c0-8.192 6.144-14.336 14.336-14.336h55.296c8.192 0 14.336 6.144 14.336 14.336v331.776c0 8.192-6.144 14.336-14.336 14.336H180.224c-8.192 0-14.336-6.144-14.336-14.336V428.032zM456.704 858.112H512c53.248 0 96.256-43.008 96.256-96.256V96.256C608.256 43.008 565.248 0 512 0h-55.296c-53.248 0-96.256 43.008-96.256 96.256v663.552c0 55.296 43.008 98.304 96.256 98.304z m-14.336-761.856c0-8.192 6.144-14.336 14.336-14.336H512c8.192 0 14.336 6.144 14.336 14.336v663.552c0 8.192-6.144 14.336-14.336 14.336h-55.296c-8.192 0-14.336-6.144-14.336-14.336V96.256zM733.184 858.112h55.296c53.248 0 96.256-43.008 96.256-96.256V262.144c0-53.248-43.008-96.256-96.256-96.256h-55.296c-53.248 0-96.256 43.008-96.256 96.256v497.664c0 55.296 43.008 98.304 96.256 98.304z m-14.336-595.968c0-8.192 6.144-14.336 14.336-14.336h55.296c8.192 0 14.336 6.144 14.336 14.336v497.664c0 8.192-6.144 14.336-14.336 14.336h-55.296c-8.192 0-14.336-6.144-14.336-14.336V262.144z" /></svg>