<?xml version="1.0" standalone="no"?><!DOCTYPE svg PUBLIC "-//W3C//DTD SVG 1.1//EN" "http://www.w3.org/Graphics/SVG/1.1/DTD/svg11.dtd"><svg class="icon" width="200px" height="200.00px" viewBox="0 0 1024 1024" version="1.1" xmlns="http://www.w3.org/2000/svg"><path fill="#333333" d="M362.496 10.24H79.872C36.864 10.24 0 47.104 0 90.112v282.624c0 45.056 36.864 79.872 79.872 79.872h282.624c45.056 0 79.872-36.864 79.872-79.872V90.112c0-43.008-34.816-79.872-79.872-79.872z m0 362.496H81.92L79.872 92.16l282.624-2.048v282.624zM362.496 571.392H79.872c-45.056 0-79.872 36.864-79.872 79.872v282.624c0 45.056 36.864 79.872 79.872 79.872h282.624c45.056 0 79.872-36.864 79.872-79.872V651.264c0-45.056-34.816-79.872-79.872-79.872z m0 360.448L81.92 933.888l-2.048-282.624 282.624-2.048v282.624zM944.128 10.24H661.504c-45.056 0-79.872 36.864-79.872 79.872v282.624c0 45.056 36.864 79.872 79.872 79.872h282.624c45.056 0 79.872-36.864 79.872-79.872V90.112C1024 47.104 987.136 10.24 944.128 10.24zM942.08 372.736l-280.576 2.048V92.16L942.08 90.112v282.624zM944.128 571.392H661.504c-45.056 0-79.872 36.864-79.872 79.872v282.624c0 45.056 36.864 79.872 79.872 79.872h282.624c45.056 0 79.872-36.864 79.872-79.872V651.264c0-45.056-36.864-79.872-79.872-79.872zM942.08 931.84l-280.576 2.048-2.048-282.624H942.08v280.576z" /></svg>