<?xml version="1.0" standalone="no"?><!DOCTYPE svg PUBLIC "-//W3C//DTD SVG 1.1//EN" "http://www.w3.org/Graphics/SVG/1.1/DTD/svg11.dtd"><svg class="icon" width="200px" height="200.00px" viewBox="0 0 1024 1024" version="1.1" xmlns="http://www.w3.org/2000/svg"><path fill="#333333" d="M512 0C229.376 0 0 229.376 0 512s229.376 512 512 512 512-229.376 512-512S794.624 0 512 0z m432.128 512c0 239.616-194.56 432.128-432.128 432.128-239.616 0-432.128-192.512-432.128-432.128C79.872 272.384 272.384 79.872 512 79.872c239.616 0 432.128 192.512 432.128 432.128zM700.416 606.208L552.96 520.192V282.624c0-22.528-18.432-40.96-40.96-40.96s-40.96 18.432-40.96 40.96v256c0 14.336 16.384 26.624 30.72 34.816 4.096 6.144 10.24 10.24 16.384 12.288l149.504 90.112c6.144 4.096 12.288 6.144 20.48 6.144 4.096 0 6.144 0 10.24-2.048 10.24-2.048 18.432-10.24 22.528-20.48 8.192-18.432 0-43.008-20.48-53.248z" /></svg>