<?xml version="1.0" standalone="no"?><!DOCTYPE svg PUBLIC "-//W3C//DTD SVG 1.1//EN" "http://www.w3.org/Graphics/SVG/1.1/DTD/svg11.dtd"><svg class="icon" width="200px" height="200.00px" viewBox="0 0 1024 1024" version="1.1" xmlns="http://www.w3.org/2000/svg"><path fill="#333333" d="M235.52 1002.0864c-13.312 0-26.624-4.096-37.888-12.4928a64.4096 64.4096 0 0 1-25.8048-63.2832l47.104-274.432-199.2704-194.3552c-17.8176-17.2032-23.9616-42.5984-16.384-66.3552a64.38912 64.38912 0 0 1 52.224-44.032L330.9568 307.2l123.0848-249.6512A64.16384 64.16384 0 0 1 512 21.504c24.7808 0 46.8992 13.7216 57.9584 36.0448L693.0432 307.2l275.456 39.936c24.576 3.4816 44.4416 20.48 52.224 44.032a64.512 64.512 0 0 1-16.384 66.3552l-199.2704 194.3552 47.104 274.432c4.096 24.3712-5.7344 48.7424-25.8048 63.2832s-46.08 16.384-67.9936 4.9152L512 865.0752l-246.3744 129.4336c-9.6256 5.12-19.8656 7.5776-30.1056 7.5776z" /></svg>