<?xml version="1.0" standalone="no"?><!DOCTYPE svg PUBLIC "-//W3C//DTD SVG 1.1//EN" "http://www.w3.org/Graphics/SVG/1.1/DTD/svg11.dtd"><svg class="icon" width="200px" height="200.00px" viewBox="0 0 1024 1024" version="1.1" xmlns="http://www.w3.org/2000/svg"><path fill="#333333" d="M235.52 1001.472c-14.336 0-26.624-4.096-38.912-12.288-20.48-14.336-30.72-38.912-26.624-63.488l47.104-274.432L20.48 458.752c-18.432-16.384-24.576-43.008-16.384-65.536 8.192-24.576 26.624-40.96 51.2-43.008l276.48-40.96 122.88-249.856a63.01696 63.01696 0 0 1 114.688 0l122.88 249.856 276.48 40.96c24.576 4.096 45.056 20.48 51.2 43.008 8.192 24.576 2.048 49.152-16.384 65.536l-198.656 194.56 47.104 274.432c4.096 24.576-6.144 49.152-26.624 63.488-20.48 14.336-47.104 16.384-67.584 4.096l-245.76-129.024-245.76 129.024c-10.24 4.096-20.48 6.144-30.72 6.144zM88.064 419.84l186.368 182.272c14.336 14.336 22.528 36.864 18.432 57.344l-45.056 258.048 231.424-120.832c18.432-10.24 40.96-10.24 59.392 0l231.424 120.832-45.056-258.048c-4.096-20.48 4.096-43.008 18.432-57.344l186.368-182.272L675.84 380.928c-20.48-2.048-38.912-16.384-49.152-34.816L512 112.64 395.264 348.16c-10.24 18.432-26.624 32.768-49.152 34.816L88.064 419.84z" /></svg>