<?xml version="1.0" standalone="no"?><!DOCTYPE svg PUBLIC "-//W3C//DTD SVG 1.1//EN" "http://www.w3.org/Graphics/SVG/1.1/DTD/svg11.dtd"><svg class="icon" width="200px" height="199.61px" viewBox="0 0 1026 1024" version="1.1" xmlns="http://www.w3.org/2000/svg"><path fill="#333333" d="M858.112 30.72H165.888C73.728 30.72 0 104.448 0 196.608v491.52c0 92.16 73.728 165.888 165.888 165.888h34.816v59.392c0 30.72 14.336 57.344 38.912 69.632 10.24 6.144 22.528 8.192 34.816 8.192 14.336 0 30.72-4.096 45.056-12.288l217.088-126.976H860.16c92.16 0 165.888-73.728 165.888-165.888v-491.52c-2.048-90.112-75.776-163.84-167.936-163.84z m86.016 657.408c0 47.104-38.912 86.016-86.016 86.016H518.144c-4.096 0-6.144 0-10.24 2.048l-227.328 133.12v-114.688c0-10.24-8.192-20.48-20.48-20.48H165.888c-47.104 0-86.016-38.912-86.016-86.016v-491.52c0-47.104 38.912-86.016 86.016-86.016h692.224c47.104 0 86.016 38.912 86.016 86.016v491.52zM272.384 452.608m-59.392 0a59.392 59.392 0 1 0 118.784 0 59.392 59.392 0 1 0-118.784 0ZM512 452.608m-59.392 0a59.392 59.392 0 1 0 118.784 0 59.392 59.392 0 1 0-118.784 0ZM749.568 452.608m-59.392 0a59.392 59.392 0 1 0 118.784 0 59.392 59.392 0 1 0-118.784 0Z" /></svg>