<?xml version="1.0" standalone="no"?><!DOCTYPE svg PUBLIC "-//W3C//DTD SVG 1.1//EN" "http://www.w3.org/Graphics/SVG/1.1/DTD/svg11.dtd"><svg class="icon" width="200px" height="199.61px" viewBox="0 0 1026 1024" version="1.1" xmlns="http://www.w3.org/2000/svg"><path fill="#333333" d="M909.312 0H342.016c-63.488 0-114.688 51.2-114.688 114.688v569.344c0 63.488 51.2 114.688 114.688 114.688h569.344c63.488 0 114.688-51.2 114.688-114.688V114.688C1024 51.2 972.8 0 909.312 0z m28.672 681.984c0 16.384-12.288 28.672-28.672 28.672H342.016c-16.384 0-28.672-12.288-28.672-28.672V114.688c0-16.384 12.288-28.672 28.672-28.672h569.344c16.384 0 28.672 12.288 28.672 28.672v567.296zM753.664 854.016c-24.576 0-43.008 18.432-43.008 43.008v14.336c0 16.384-12.288 28.672-28.672 28.672H114.688c-16.384 0-28.672-12.288-28.672-28.672V342.016c0-16.384 12.288-28.672 28.672-28.672h14.336c24.576 0 43.008-18.432 43.008-43.008s-18.432-43.008-43.008-43.008h-14.336c-63.488 0-114.688 51.2-114.688 114.688v569.344c0 61.44 51.2 112.64 114.688 112.64h569.344c63.488 0 114.688-51.2 114.688-114.688v-14.336c-2.048-22.528-20.48-40.96-45.056-40.96z" /></svg>