<?xml version="1.0" standalone="no"?><!DOCTYPE svg PUBLIC "-//W3C//DTD SVG 1.1//EN" "http://www.w3.org/Graphics/SVG/1.1/DTD/svg11.dtd"><svg class="icon" width="200px" height="200.00px" viewBox="0 0 1024 1024" version="1.1" xmlns="http://www.w3.org/2000/svg"><path fill="#333333" d="M923.648 124.928h-174.08V94.208c0-24.576-16.384-45.056-36.864-45.056S675.84 69.632 675.84 94.208v30.72H350.208V94.208c0-24.576-16.384-45.056-36.864-45.056s-36.864 20.48-36.864 45.056v30.72H100.352C45.056 124.928 0 169.984 0 225.28v649.216c0 55.296 45.056 100.352 100.352 100.352h823.296c55.296 0 100.352-45.056 100.352-100.352V225.28c0-55.296-45.056-100.352-100.352-100.352zM100.352 200.704h174.08v55.296c0 24.576 16.384 45.056 36.864 45.056s36.864-20.48 36.864-45.056V200.704h325.632v55.296c0 24.576 16.384 45.056 36.864 45.056s36.864-20.48 36.864-45.056V200.704H921.6c14.336 0 24.576 12.288 24.576 24.576v124.928H75.776V225.28c0-14.336 10.24-24.576 24.576-24.576z m823.296 698.368H100.352c-14.336 0-24.576-12.288-24.576-24.576v-450.56h874.496v450.56c-2.048 12.288-12.288 24.576-26.624 24.576zM792.576 548.864h-98.304c-18.432 0-32.768 16.384-32.768 36.864s14.336 36.864 32.768 36.864h98.304c18.432 0 32.768-16.384 32.768-36.864s-16.384-36.864-32.768-36.864zM792.576 724.992h-98.304c-18.432 0-32.768 16.384-32.768 36.864S675.84 798.72 694.272 798.72h98.304c18.432 0 32.768-16.384 32.768-36.864-2.048-20.48-16.384-36.864-32.768-36.864zM567.296 548.864h-98.304c-18.432 0-32.768 16.384-32.768 36.864s14.336 36.864 32.768 36.864h98.304c18.432 0 32.768-16.384 32.768-36.864s-14.336-36.864-32.768-36.864zM567.296 724.992h-98.304c-18.432 0-32.768 16.384-32.768 36.864S450.56 798.72 468.992 798.72h98.304c18.432 0 32.768-16.384 32.768-36.864s-14.336-36.864-32.768-36.864zM342.016 548.864H245.76c-18.432 0-32.768 16.384-32.768 36.864s14.336 36.864 32.768 36.864h98.304c18.432 0 32.768-16.384 32.768-36.864s-16.384-36.864-34.816-36.864zM342.016 724.992H245.76c-18.432 0-32.768 16.384-32.768 36.864S227.328 798.72 245.76 798.72h98.304c18.432 0 32.768-16.384 32.768-36.864-2.048-20.48-16.384-36.864-34.816-36.864z" /></svg>