<?xml version="1.0" standalone="no"?><!DOCTYPE svg PUBLIC "-//W3C//DTD SVG 1.1//EN" "http://www.w3.org/Graphics/SVG/1.1/DTD/svg11.dtd"><svg class="icon" width="200px" height="200.00px" viewBox="0 0 1024 1024" version="1.1" xmlns="http://www.w3.org/2000/svg"><path fill="#333333" d="M349.5936 94.0032c0-24.3712-16.7936-44.032-37.4784-44.032s-37.4784 19.6608-37.4784 44.032V124.928h74.9568V94.0032zM749.3632 94.0032c0-24.3712-16.7936-44.032-37.4784-44.032-20.6848 0-37.4784 19.6608-37.4784 44.032V124.928h74.9568V94.0032zM924.0576 124.928h-174.8992v130.6624c0 24.3712-16.7936 44.032-37.4784 44.032-20.6848 0-37.4784-19.6608-37.4784-44.032V124.928H349.5936v130.6624c0 24.3712-16.7936 44.032-37.4784 44.032s-37.4784-19.6608-37.4784-44.032V124.928H99.9424C45.056 124.928 0 169.7792 0 224.8704v649.4208c0 54.8864 45.056 99.9424 99.9424 99.9424h824.1152c54.8864 0 99.9424-45.056 99.9424-99.9424V224.8704c0-55.0912-45.056-99.9424-99.9424-99.9424zM342.2208 799.1296h-97.4848c-18.0224 0-32.5632-16.7936-32.5632-37.4784 0-20.6848 14.5408-37.4784 32.5632-37.4784h97.4848c18.0224 0 32.5632 16.7936 32.5632 37.4784-0.2048 20.8896-14.7456 37.4784-32.5632 37.4784z m0-174.6944h-97.4848c-18.0224 0-32.5632-16.7936-32.5632-37.4784s14.5408-37.4784 32.5632-37.4784h97.4848c18.0224 0 32.5632 16.7936 32.5632 37.4784s-14.7456 37.4784-32.5632 37.4784z m224.6656 174.6944h-97.4848c-18.0224 0-32.5632-16.7936-32.5632-37.4784 0-20.6848 14.5408-37.4784 32.5632-37.4784h97.4848c18.0224 0 32.5632 16.7936 32.5632 37.4784 0 20.8896-14.5408 37.4784-32.5632 37.4784z m0-174.6944h-97.4848c-18.0224 0-32.5632-16.7936-32.5632-37.4784s14.5408-37.4784 32.5632-37.4784h97.4848c18.0224 0 32.5632 16.7936 32.5632 37.4784s-14.5408 37.4784-32.5632 37.4784z m224.8704 174.6944H694.272c-18.0224 0-32.5632-16.7936-32.5632-37.4784 0-20.6848 14.5408-37.4784 32.5632-37.4784h97.4848c18.0224 0 32.5632 16.7936 32.5632 37.4784-0.2048 20.8896-14.7456 37.4784-32.5632 37.4784z m0-174.6944H694.272c-18.0224 0-32.5632-16.7936-32.5632-37.4784s14.5408-37.4784 32.5632-37.4784h97.4848c18.0224 0 32.5632 16.7936 32.5632 37.4784s-14.7456 37.4784-32.5632 37.4784z m135.9872-199.8848H96.256c-18.6368 0-33.792-16.7936-33.792-37.4784s15.1552-37.4784 33.792-37.4784h831.488c18.6368 0 33.792 16.7936 33.792 37.4784s-15.1552 37.4784-33.792 37.4784z" /></svg>