<?xml version="1.0" standalone="no"?><!DOCTYPE svg PUBLIC "-//W3C//DTD SVG 1.1//EN" "http://www.w3.org/Graphics/SVG/1.1/DTD/svg11.dtd"><svg class="icon" width="200px" height="200.00px" viewBox="0 0 1024 1024" version="1.1" xmlns="http://www.w3.org/2000/svg"><path fill="#333333" d="M939.209211 99.736762h-151.14113V51.404368c0-13.516686-5.324755-26.418978-14.745476-35.839699-9.420721-9.625519-22.323012-14.950274-35.839699-14.950274-27.647768 0-49.97078 22.732609-49.97078 50.789973v48.537192H336.283076V51.404368c0-28.057364-22.323012-51.404368-50.585175-51.404368-28.057364 0-49.97078 22.732609-49.97078 51.404368v48.332394H84.790789C43.831133 99.327166 10.653811 131.275697 9.425022 172.849748v778.233463c1.22879 41.369252 35.020506 73.522582 75.160968 72.908187h854.623221c40.754858 0.614395 74.136977-31.538935 75.160969-72.908187v-778.233463c-1.023991-41.574051-34.815708-74.136977-75.160969-73.112986zM616.037526 683.616658h-405.500594c-26.418978 1.22879-48.741991-19.865433-49.97078-46.694008-1.22879-26.828575 19.455837-49.561184 45.874815-50.789974h405.500593c26.418978-1.22879 48.741991 19.865433 49.970781 46.694008 1.22879 26.828575-19.455837 49.561184-45.874815 50.789974z m200.907112-243.505155H210.536932c-26.418978 1.22879-48.741991-19.865433-49.97078-46.694008-1.22879-26.828575 19.455837-49.561184 45.874815-50.789973h606.407706c26.418978-1.22879 48.741991 19.865433 49.97078 46.694008 1.22879 26.828575-19.455837 49.765982-45.874815 50.789973z" /></svg>