<?xml version="1.0" standalone="no"?><!DOCTYPE svg PUBLIC "-//W3C//DTD SVG 1.1//EN" "http://www.w3.org/Graphics/SVG/1.1/DTD/svg11.dtd"><svg class="icon" width="200px" height="200.00px" viewBox="0 0 1024 1024" version="1.1" xmlns="http://www.w3.org/2000/svg"><path fill="#333333" d="M370.688 83.968h280.576c22.528 0 40.96-18.432 40.96-40.96s-18.432-40.96-40.96-40.96H370.688c-22.528 0-40.96 18.432-40.96 40.96s18.432 40.96 40.96 40.96zM901.12 135.168L124.928 133.12c-22.528 0-40.96 18.432-40.96 40.96s18.432 40.96 40.96 40.96l776.192 2.048c22.528 0 40.96-18.432 40.96-40.96s-18.432-40.96-40.96-40.96zM800.768 247.808c-22.528 0-40.96 18.432-40.96 40.96v624.64c0 14.336-12.288 28.672-28.672 28.672H284.672c-14.336 0-28.672-12.288-28.672-28.672V288.768c0-22.528-18.432-40.96-40.96-40.96s-40.96 18.432-40.96 40.96v624.64c0 61.44 49.152 110.592 110.592 110.592h446.464c61.44 0 110.592-49.152 110.592-110.592V288.768c2.048-22.528-16.384-40.96-40.96-40.96zM440.32 741.376V421.888c0-22.528-18.432-40.96-40.96-40.96s-40.96 18.432-40.96 40.96v321.536c0 22.528 18.432 40.96 40.96 40.96s40.96-18.432 40.96-43.008zM661.504 741.376V421.888c0-22.528-18.432-40.96-40.96-40.96s-40.96 18.432-40.96 40.96v321.536c0 22.528 18.432 40.96 40.96 40.96s40.96-18.432 40.96-43.008z" /></svg>