<?xml version="1.0" standalone="no"?><!DOCTYPE svg PUBLIC "-//W3C//DTD SVG 1.1//EN" "http://www.w3.org/Graphics/SVG/1.1/DTD/svg11.dtd"><svg class="icon" width="200px" height="200.00px" viewBox="0 0 1024 1024" version="1.1" xmlns="http://www.w3.org/2000/svg"><path fill="#333333" d="M512 394.24c33.9968 0 61.44-27.4432 61.44-61.44s-27.4432-61.44-61.44-61.44-61.44 27.4432-61.44 61.44c0 33.792 27.4432 61.44 61.44 61.44zM512 629.76c-33.9968 0-61.44 27.4432-61.44 61.44s27.4432 61.44 61.44 61.44 61.44-27.4432 61.44-61.44-27.4432-61.44-61.44-61.44zM778.24 552.96H245.76c-22.528 0-40.96-18.432-40.96-40.96s18.432-40.96 40.96-40.96h532.48c22.528 0 40.96 18.432 40.96 40.96s-18.432 40.96-40.96 40.96z" /></svg>