<?xml version="1.0" standalone="no"?><!DOCTYPE svg PUBLIC "-//W3C//DTD SVG 1.1//EN" "http://www.w3.org/Graphics/SVG/1.1/DTD/svg11.dtd"><svg class="icon" width="200px" height="200.00px" viewBox="0 0 1024 1024" version="1.1" xmlns="http://www.w3.org/2000/svg"><path fill="#333333" d="M970.1376 921.6V204.8L708.4032 0H184.7296C112.8448 0 53.8624 46.08 53.8624 102.4v819.2c0 56.32 58.9824 102.4 130.8672 102.4h654.336c72.0896 0 131.072-46.08 131.072-102.4zM256 727.6544c0-22.3232 18.0224-40.3456 40.3456-40.3456h390.7584c22.3232 0 40.3456 18.0224 40.3456 40.3456 0 22.3232-18.0224 40.3456-40.3456 40.3456H296.3456c-22.3232 0-40.3456-18.0224-40.3456-40.3456z m0-161.792c0-22.3232 18.0224-40.3456 40.3456-40.3456h417.5872c22.3232 0 40.3456 18.0224 40.3456 40.3456s-18.0224 40.3456-40.3456 40.3456H296.3456c-22.3232 0.2048-40.3456-18.0224-40.3456-40.3456zM512 404.2752c0 22.3232-18.0224 40.3456-40.3456 40.3456h-175.104c-22.3232 0-40.3456-18.0224-40.3456-40.3456 0-22.3232 18.0224-40.3456 40.3456-40.3456h175.104c22.3232-0.2048 40.3456 18.0224 40.3456 40.3456z m412.672-134.7584h-170.1888c-59.1872 0-107.7248-48.5376-107.7248-107.7248V45.4656l277.9136 224.0512z" /></svg>