<?xml version="1.0" standalone="no"?><!DOCTYPE svg PUBLIC "-//W3C//DTD SVG 1.1//EN" "http://www.w3.org/Graphics/SVG/1.1/DTD/svg11.dtd"><svg class="icon" width="200px" height="200.00px" viewBox="0 0 1024 1024" version="1.1" xmlns="http://www.w3.org/2000/svg"><path fill="#333333" d="M512 0C260.096 0 55.296 204.8 55.296 456.704 55.296 675.84 206.848 860.16 417.792 903.168c0 8.192 2.048 20.48 2.048 26.624 2.048 38.912 6.144 94.208 53.248 94.208 30.72 0 53.248-30.72 86.016-75.776 10.24-14.336 24.576-34.816 32.768-43.008 217.088-38.912 374.784-227.328 374.784-448.512C968.704 204.8 763.904 0 512 0z m61.44 831.488c-24.576 4.096-40.96 26.624-73.728 71.68-2.048 2.048-2.048 4.096-4.096 4.096-4.096-36.864-10.24-71.68-45.056-75.776-184.32-30.72-319.488-188.416-319.488-374.784C131.072 245.76 303.104 75.776 512 75.776S892.928 245.76 892.928 456.704c0 186.368-135.168 344.064-319.488 374.784zM497.664 610.304c-26.624 0-49.152 22.528-49.152 49.152s22.528 49.152 49.152 49.152c26.624 0 49.152-22.528 49.152-49.152s-20.48-49.152-49.152-49.152zM577.536 249.856c-22.528-10.24-47.104-16.384-73.728-16.384-30.72 0-57.344 6.144-79.872 18.432-22.528 12.288-40.96 28.672-51.2 49.152-12.288 18.432-18.432 38.912-18.432 57.344 0 8.192 4.096 18.432 10.24 24.576 8.192 8.192 16.384 12.288 26.624 12.288 18.432 0 30.72-10.24 36.864-32.768 6.144-22.528 16.384-36.864 26.624-49.152 10.24-10.24 26.624-16.384 47.104-16.384 18.432 0 32.768 6.144 45.056 16.384 12.288 10.24 16.384 24.576 16.384 40.96 0 8.192-2.048 16.384-6.144 22.528-4.096 6.144-8.192 12.288-14.336 18.432-6.144 6.144-14.336 14.336-26.624 24.576-14.336 12.288-24.576 24.576-32.768 32.768-8.192 10.24-14.336 20.48-20.48 32.768-4.096 12.288-8.192 26.624-8.192 43.008 0 14.336 4.096 22.528 10.24 30.72 6.144 6.144 16.384 10.24 24.576 10.24 18.432 0 30.72-10.24 34.816-30.72 2.048-10.24 4.096-16.384 4.096-20.48 2.048-4.096 2.048-8.192 4.096-12.288 2.048-4.096 4.096-8.192 8.192-12.288l16.384-16.384c24.576-22.528 40.96-36.864 49.152-47.104 8.192-10.24 16.384-20.48 24.576-32.768 6.144-12.288 10.24-26.624 10.24-45.056 0-22.528-6.144-40.96-18.432-59.392-8.192-16.384-24.576-30.72-45.056-43.008z" /></svg>