<?xml version="1.0" standalone="no"?><!DOCTYPE svg PUBLIC "-//W3C//DTD SVG 1.1//EN" "http://www.w3.org/Graphics/SVG/1.1/DTD/svg11.dtd"><svg class="icon" width="200px" height="200.00px" viewBox="0 0 1024 1024" version="1.1" xmlns="http://www.w3.org/2000/svg"><path fill="#333333" d="M958.464 380.928c-22.528 0-40.96 18.432-40.96 40.96v440.32c0 36.864-30.72 67.584-67.584 67.584H149.504C110.592 929.792 81.92 901.12 81.92 862.208V161.792C81.92 122.88 110.592 94.208 149.504 94.208h436.224c22.528 0 40.96-18.432 40.96-40.96s-18.432-40.96-40.96-40.96H149.504C67.584 12.288 0 79.872 0 161.792v702.464c0 81.92 67.584 149.504 149.504 149.504h702.464c81.92 0 149.504-67.584 149.504-149.504V421.888c-2.048-22.528-20.48-40.96-43.008-40.96zM1013.76 24.576c-16.384-16.384-40.96-16.384-57.344-2.048L339.968 608.256c-16.384 16.384-16.384 40.96-2.048 57.344 8.192 8.192 18.432 12.288 28.672 12.288 10.24 0 20.48-4.096 28.672-10.24L1011.712 81.92c16.384-14.336 16.384-40.96 2.048-57.344z" /></svg>