<?xml version="1.0" standalone="no"?><!DOCTYPE svg PUBLIC "-//W3C//DTD SVG 1.1//EN" "http://www.w3.org/Graphics/SVG/1.1/DTD/svg11.dtd"><svg class="icon" width="200px" height="200.00px" viewBox="0 0 1024 1024" version="1.1" xmlns="http://www.w3.org/2000/svg"><path fill="#333333" d="M1011.712 212.992c-12.288-24.576-34.816-43.008-61.44-53.248-12.288-4.096-24.576-6.144-36.864-6.144H110.592c-12.288 0-26.624 2.048-36.864 6.144-26.624 10.24-49.152 28.672-61.44 53.248-8.192 14.336-12.288 30.72-12.288 49.152v501.76c0 14.336 2.048 26.624 8.192 38.912 12.288 32.768 40.96 57.344 77.824 65.536 8.192 2.048 16.384 4.096 24.576 4.096h802.816c8.192 0 16.384-2.048 24.576-4.096 38.912-8.192 69.632-36.864 79.872-75.776 2.048-10.24 4.096-18.432 4.096-28.672V262.144c2.048-18.432-2.048-34.816-10.24-49.152zM512 524.288l-63.488-51.2L145.408 229.376H880.64L512 524.288z m96.256 14.336l307.2 260.096H118.784l301.056-253.952 71.68 57.344c10.24 8.192 26.624 8.192 36.864 0l79.872-63.488z m-241.664-40.96L71.68 745.472V262.144l294.912 235.52z m585.728 237.568L663.552 493.568l288.768-231.424v473.088z" /></svg>