<?xml version="1.0" standalone="no"?><!DOCTYPE svg PUBLIC "-//W3C//DTD SVG 1.1//EN" "http://www.w3.org/Graphics/SVG/1.1/DTD/svg11.dtd"><svg class="icon" width="200px" height="200.00px" viewBox="0 0 1024 1024" version="1.1" xmlns="http://www.w3.org/2000/svg"><path fill="#333333" d="M983.04 589.2096H40.96c-2.6624 0-5.3248 0.2048-7.9872 0.8192-1.2288 0.2048-2.2528 0.6144-3.4816 1.024-1.4336 0.4096-2.8672 0.8192-4.096 1.2288-1.4336 0.6144-2.6624 1.4336-3.8912 2.048-1.024 0.6144-2.048 1.024-3.072 1.6384-4.5056 3.072-8.3968 6.7584-11.264 11.264-0.6144 1.024-1.024 2.048-1.6384 3.072-0.6144 1.2288-1.4336 2.4576-2.048 3.8912s-0.8192 2.6624-1.2288 4.096c-0.4096 1.2288-0.8192 2.2528-1.024 3.4816-1.024 5.3248-1.024 10.6496 0 15.9744 0.2048 1.2288 0.6144 2.2528 1.024 3.4816 0.4096 1.4336 0.8192 2.8672 1.2288 4.096 0.6144 1.4336 1.4336 2.6624 2.048 3.8912 0.6144 1.024 1.024 2.048 1.6384 3.072 1.4336 2.2528 3.2768 4.3008 5.12 6.144L244.736 890.88c15.9744 15.9744 41.984 15.9744 57.9584 0 15.9744-15.9744 15.9744-41.984 0-57.9584l-162.6112-162.6112H983.04c22.528 0 40.96-18.432 40.96-40.96 0-21.9136-18.432-40.1408-40.96-40.1408zM40.96 434.7904h942.08c2.6624 0 5.3248-0.2048 7.9872-0.8192 1.2288-0.2048 2.2528-0.6144 3.4816-1.024l4.3008-1.2288c1.4336-0.6144 2.6624-1.2288 3.8912-2.048 1.024-0.6144 2.2528-1.024 3.2768-1.8432 2.2528-1.4336 4.3008-3.072 6.144-4.9152h0.2048s0-0.2048 0.2048-0.2048c1.8432-1.8432 3.4816-3.8912 4.9152-6.144 0.6144-1.024 1.2288-2.2528 1.8432-3.2768 0.6144-1.2288 1.4336-2.4576 2.048-3.8912s0.8192-2.8672 1.2288-4.3008c0.4096-1.2288 0.8192-2.2528 1.024-3.4816 1.024-5.3248 1.024-10.6496 0-15.9744-0.2048-1.2288-0.6144-2.2528-1.024-3.4816-0.4096-1.4336-0.8192-2.8672-1.2288-4.096-0.6144-1.4336-1.4336-2.6624-2.048-3.8912-0.6144-1.024-1.024-2.2528-1.6384-3.2768-1.4336-2.2528-3.072-4.3008-4.9152-6.144 0 0 0-0.2048-0.2048-0.2048L779.4688 132.3008c-15.9744-15.9744-41.984-15.9744-57.9584 0-15.9744 15.9744-15.9744 41.984 0 57.9584l162.6112 162.6112H40.96a40.96 40.96 0 1 0 0 81.92z" /></svg>