<?xml version="1.0" standalone="no"?><!DOCTYPE svg PUBLIC "-//W3C//DTD SVG 1.1//EN" "http://www.w3.org/Graphics/SVG/1.1/DTD/svg11.dtd"><svg class="icon" width="200px" height="200.00px" viewBox="0 0 1024 1024" version="1.1" xmlns="http://www.w3.org/2000/svg"><path fill="#333333" d="M350.208 344.064l124.928-124.928v440.32c0 20.48 16.384 38.912 38.912 38.912s38.912-16.384 38.912-38.912V221.184l124.928 124.928c14.336 14.336 38.912 14.336 53.248 0 14.336-14.336 14.336-38.912 0-53.248l-153.6-153.6c-18.432-18.432-40.96-26.624-63.488-26.624s-45.056 8.192-63.488 26.624l-153.6 153.6c-14.336 14.336-14.336 38.912 0 53.248 14.336 14.336 36.864 14.336 53.248-2.048zM985.088 464.896c-22.528 0-38.912 18.432-38.912 38.912v288.768c0 22.528-18.432 38.912-38.912 38.912H118.784c-22.528 0-38.912-18.432-38.912-38.912V503.808c0-22.528-18.432-38.912-38.912-38.912s-40.96 18.432-40.96 38.912v288.768c0 65.536 53.248 118.784 118.784 118.784h786.432c65.536 0 118.784-53.248 118.784-118.784V503.808c0-20.48-18.432-38.912-38.912-38.912z" /></svg>