<?xml version="1.0" standalone="no"?><!DOCTYPE svg PUBLIC "-//W3C//DTD SVG 1.1//EN" "http://www.w3.org/Graphics/SVG/1.1/DTD/svg11.dtd"><svg class="icon" width="200px" height="200.00px" viewBox="0 0 1024 1024" version="1.1" xmlns="http://www.w3.org/2000/svg"><path fill="#333333" d="M970.1376 921.6V204.8L708.4032 0H184.7296C112.8448 0 53.8624 46.08 53.8624 102.4v819.2c0 56.32 58.9824 102.4 130.8672 102.4h654.336c72.0896 0 131.072-46.08 131.072-102.4z m-100.1472-692.6336h-115.3024c-37.0688 0-67.3792-30.3104-67.3792-67.3792V86.016l182.6816 142.9504z m19.2512 80.896V921.6c-0.8192 4.9152-18.2272 21.504-49.9712 21.504H184.7296c-31.744 0-49.152-16.5888-49.9712-21.7088v-819.2c0.8192-4.9152 18.2272-21.504 49.9712-21.504H606.208v80.896c0 81.7152 66.56 148.2752 148.2752 148.2752h134.7584z" /></svg>