<?xml version="1.0" standalone="no"?><!DOCTYPE svg PUBLIC "-//W3C//DTD SVG 1.1//EN" "http://www.w3.org/Graphics/SVG/1.1/DTD/svg11.dtd"><svg class="icon" width="200px" height="200.00px" viewBox="0 0 1024 1024" version="1.1" xmlns="http://www.w3.org/2000/svg"><path fill="#333333" d="M944.128 927.744H79.872c-43.008 0-79.872-34.816-79.872-79.872V176.128c0-43.008 34.816-79.872 79.872-79.872h325.632c34.816 0 65.536 22.528 75.776 57.344l22.528 75.776h440.32c43.008 0 79.872 34.816 79.872 79.872v540.672c0 43.008-34.816 77.824-79.872 77.824zM79.872 172.032c-2.048 0-4.096 2.048-4.096 4.096v671.744c0 2.048 2.048 4.096 4.096 4.096h864.256c2.048 0 4.096-2.048 4.096-4.096V309.248c0-2.048-2.048-4.096-4.096-4.096H475.136c-16.384 0-30.72-10.24-36.864-26.624l-30.72-102.4c0-2.048-2.048-2.048-4.096-2.048H79.872z" /></svg>