<?xml version="1.0" standalone="no"?><!DOCTYPE svg PUBLIC "-//W3C//DTD SVG 1.1//EN" "http://www.w3.org/Graphics/SVG/1.1/DTD/svg11.dtd"><svg class="icon" width="200px" height="199.80px" viewBox="0 0 1025 1024" version="1.1" xmlns="http://www.w3.org/2000/svg"><path fill="#333333" d="M726.528 120.832c59.392 0 114.688 22.528 157.696 65.536 86.016 86.016 86.016 229.376 0 315.392L513.536 872.448 142.848 501.76c-86.016-86.016-86.016-229.376 0-315.392C185.856 143.36 241.152 120.832 300.544 120.832c59.392 0 114.688 22.528 157.696 65.536 14.336 14.336 34.816 22.528 55.296 22.528s38.912-8.192 55.296-22.528c40.96-43.008 96.256-65.536 157.696-65.536m0-77.824c-75.776 0-153.6 28.672-212.992 88.064-59.392-59.392-135.168-88.064-212.992-88.064-75.776 0-153.6 28.672-212.992 88.064-116.736 116.736-116.736 307.2 0 423.936L513.536 980.992l423.936-423.936c116.736-116.736 116.736-307.2 0-423.936-57.344-59.392-135.168-90.112-210.944-90.112z" /></svg>