<?xml version="1.0" standalone="no"?><!DOCTYPE svg PUBLIC "-//W3C//DTD SVG 1.1//EN" "http://www.w3.org/Graphics/SVG/1.1/DTD/svg11.dtd"><svg class="icon" width="200px" height="200.00px" viewBox="0 0 1024 1024" version="1.1" xmlns="http://www.w3.org/2000/svg"><path fill="#333333" d="M957.299507 368.2304v-47.5136c0-37.6832-30.72-68.608-68.4032-68.608H510.016307l-19.6608-65.1264a67.8912 67.8912 0 0 0-65.7408-48.9472H145.472307a68.608 68.608 0 0 0-68.608 68.608v161.5872h880.4352zM1016.281907 402.8416c-6.144-7.3728-15.36-11.4688-24.9856-11.4688H32.627507c-9.6256 0-18.6368 4.3008-24.9856 11.4688-6.144 7.3728-8.8064 16.9984-7.168 26.4192l72.704 429.4656c2.6624 15.7696 16.1792 27.2384 32.1536 27.2384h813.2608c15.9744 0 29.4912-11.4688 32.1536-27.2384l72.9088-429.4656c1.6384-9.4208-1.024-19.2512-7.3728-26.4192z" /></svg>