<?xml version="1.0" standalone="no"?><!DOCTYPE svg PUBLIC "-//W3C//DTD SVG 1.1//EN" "http://www.w3.org/Graphics/SVG/1.1/DTD/svg11.dtd"><svg class="icon" width="200px" height="200.00px" viewBox="0 0 1024 1024" version="1.1" xmlns="http://www.w3.org/2000/svg"><path fill="#333333" d="M1016.281907 402.8416c-6.144-7.3728-15.36-11.4688-24.9856-11.4688h-34.2016v-70.4512c0-37.6832-30.72-68.608-68.4032-68.608H510.016307l-19.6608-65.1264a67.8912 67.8912 0 0 0-65.7408-48.9472H145.472307a68.608 68.608 0 0 0-68.608 68.608v184.5248H32.627507c-9.6256 0-18.6368 4.3008-24.9856 11.4688-6.144 7.3728-8.8064 16.9984-7.168 26.4192l72.704 429.4656c2.6624 15.7696 16.1792 27.2384 32.1536 27.2384h813.2608c15.9744 0 29.4912-11.4688 32.1536-27.2384l72.9088-429.4656c1.6384-9.4208-1.024-19.2512-7.3728-26.4192zM142.195507 206.6432c0-1.8432 1.4336-3.2768 3.2768-3.2768h279.3472c1.4336 0 2.6624 0.8192 3.2768 2.4576l26.8288 88.4736c4.096 13.7216 16.7936 23.1424 31.1296 23.1424H888.896307c1.8432 0 3.2768 1.4336 3.2768 3.2768v70.4512H142.195507v-184.5248z m748.9536 613.9904H132.774707L76.864307 490.0864l-5.7344-33.792h881.664l-61.6448 364.3392z" /></svg>