<?xml version="1.0" standalone="no"?><!DOCTYPE svg PUBLIC "-//W3C//DTD SVG 1.1//EN" "http://www.w3.org/Graphics/SVG/1.1/DTD/svg11.dtd"><svg class="icon" width="200px" height="200.00px" viewBox="0 0 1024 1024" version="1.1" xmlns="http://www.w3.org/2000/svg"><path fill="#333333" d="M884.9408 870.8096H139.0592c-37.888 0-68.8128-30.9248-68.8128-68.8128V222.0032c0-37.888 30.9248-68.8128 68.8128-68.8128h280.1664c30.72 0 57.1392 19.6608 65.9456 49.152l19.6608 65.3312H884.736c37.888 0 68.8128 30.9248 68.8128 68.8128v465.5104c0 37.888-30.72 68.8128-68.608 68.8128zM139.264 218.7264c-1.8432 0-3.2768 1.4336-3.2768 3.2768v579.9936c0 1.8432 1.4336 3.2768 3.2768 3.2768h745.6768c1.8432 0 3.2768-1.6384 3.2768-3.2768V336.4864c0-1.8432-1.4336-3.2768-3.2768-3.2768H480.6656c-14.336 0-27.2384-9.4208-31.3344-23.3472l-26.8288-88.8832a3.31776 3.31776 0 0 0-3.2768-2.4576H139.264z" /></svg>