<?xml version="1.0" standalone="no"?><!DOCTYPE svg PUBLIC "-//W3C//DTD SVG 1.1//EN" "http://www.w3.org/Graphics/SVG/1.1/DTD/svg11.dtd"><svg class="icon" width="200px" height="200.00px" viewBox="0 0 1024 1024" version="1.1" xmlns="http://www.w3.org/2000/svg"><path fill="#333333" d="M994.9184 337.5104l-180.224 139.264c-9.8304 7.5776-9.216 21.0944 0 29.0816l180.224 139.264c10.0352 7.9872 29.0816 3.4816 29.0816-20.48V358.1952c0-29.2864-19.0464-29.2864-29.0816-20.6848zM45.056 149.504h907.0592c24.7808 0 45.056-20.0704 45.056-45.056s-20.0704-45.056-45.056-45.056H45.056C20.0704 59.5968 0 79.6672 0 104.448s20.0704 45.056 45.056 45.056zM45.056 535.7568h647.9872c24.7808 0 45.056-20.0704 45.056-45.056s-20.0704-45.056-45.056-45.056H45.056c-24.7808 0-45.056 20.0704-45.056 45.056s20.0704 45.056 45.056 45.056zM952.1152 874.496H45.056c-24.7808 0-45.056 20.0704-45.056 45.056s20.0704 45.056 45.056 45.056h907.0592a45.056 45.056 0 0 0 0-90.112z" /></svg>