<?xml version="1.0" standalone="no"?><!DOCTYPE svg PUBLIC "-//W3C//DTD SVG 1.1//EN" "http://www.w3.org/Graphics/SVG/1.1/DTD/svg11.dtd"><svg class="icon" width="200px" height="200.00px" viewBox="0 0 1024 1024" version="1.1" xmlns="http://www.w3.org/2000/svg"><path fill="#333333" d="M901.12 0H664.7808c-22.528 0-40.96 18.432-40.96 40.96s18.432 40.96 40.96 40.96H882.688L313.344 651.0592a41.04192 41.04192 0 0 0 28.8768 70.0416c10.4448 0 20.8896-4.096 28.8768-12.0832l569.344-569.344c0.6144-0.6144 0.8192-1.024 1.4336-1.6384v217.9072c0 22.528 18.432 40.96 40.96 40.96s40.96-18.432 40.96-40.96V122.88C1024 55.0912 968.9088 0 901.12 0zM983.04 632.6272c-22.528 0-40.96 18.432-40.96 40.96V901.12c0 22.528-18.432 40.96-40.96 40.96H122.88c-22.528 0-40.96-18.432-40.96-40.96V122.88c0-22.528 18.432-40.96 40.96-40.96h215.04c22.528 0 40.96-18.432 40.96-40.96s-18.432-40.96-40.96-40.96H122.88C55.0912 0 0 55.0912 0 122.88v778.24c0 67.7888 55.0912 122.88 122.88 122.88h778.24c67.7888 0 122.88-55.0912 122.88-122.88V673.5872a40.96 40.96 0 0 0-40.96-40.96z" /></svg>