<?xml version="1.0" standalone="no"?><!DOCTYPE svg PUBLIC "-//W3C//DTD SVG 1.1//EN" "http://www.w3.org/Graphics/SVG/1.1/DTD/svg11.dtd"><svg class="icon" width="200px" height="200.00px" viewBox="0 0 1024 1024" version="1.1" xmlns="http://www.w3.org/2000/svg"><path fill="#333333" d="M999.6288 413.0816l-1.4336-1.4336c-23.552-21.0944-54.6816-21.7088-63.8976-21.504H710.4512c36.864-150.7328 32.3584-261.5296-13.7216-329.3184C668.2624 18.0224 627.712 2.4576 607.6416 2.4576c-31.5392 0-84.5824 10.6496-84.5824 81.92v2.048c-0.8192 3.2768-1.4336 6.5536-1.4336 9.8304-2.6624 162.2016-169.984 289.5872-177.152 294.912-10.0352 7.5776-15.9744 19.2512-15.9744 31.9488v503.808c0 65.9456 80.0768 94.4128 121.0368 94.4128h386.2528c52.0192 0 82.944-86.8352 91.3408-113.8688C1022.976 583.2704 1024 481.8944 1024 477.7984c0-26.4192-8.3968-48.7424-24.3712-64.7168zM213.4016 388.9152H57.9584c-5.7344 0-11.264 1.2288-16.1792 3.4816C14.5408 399.36 0 424.5504 0 448.3072v2.4576l32.1536 512.6144c0.8192 33.5872 25.3952 57.9584 59.392 57.9584h132.9152c31.744 0 47.9232-19.8656 52.6336-38.5024 0.8192-3.072 1.2288-6.3488 1.2288-9.6256V453.8368c0-7.168 0-29.0816-17.2032-46.2848-16.7936-16.7936-38.912-18.6368-47.7184-18.6368z" /></svg>