<?xml version="1.0" standalone="no"?><!DOCTYPE svg PUBLIC "-//W3C//DTD SVG 1.1//EN" "http://www.w3.org/Graphics/SVG/1.1/DTD/svg11.dtd"><svg class="icon" width="200px" height="200.00px" viewBox="0 0 1024 1024" version="1.1" xmlns="http://www.w3.org/2000/svg"><path fill="#333333" d="M999.424 413.696c0-2.048 0-2.048 0 0-24.576-22.528-55.296-22.528-65.536-22.528H710.656C747.52 239.616 743.424 129.024 696.32 61.44 667.648 18.432 626.688 4.096 606.208 4.096c-30.72 0-83.968 10.24-83.968 81.92v2.048c0 4.096-2.048 6.144-2.048 10.24-2.048 161.792-169.984 288.768-178.176 294.912-8.192 6.144-14.336 16.384-14.336 30.72v503.808c0 65.536 79.872 94.208 120.832 94.208h387.072c51.2 0 83.968-86.016 92.16-114.688C1024 583.68 1024 481.28 1024 477.184c0-26.624-8.192-49.152-24.576-63.488z m-149.504 471.04c-8.192 26.624-20.48 47.104-26.624 57.344H450.56c-12.288 0-36.864-8.192-40.96-16.384V442.368c49.152-40.96 188.416-169.984 192.512-339.968 2.048-8.192 2.048-14.336 2.048-18.432V81.92h2.048c4.096 2.048 16.384 8.192 26.624 22.528 20.48 28.672 47.104 108.544-6.144 296.96l-4.096 18.432c-2.048 12.288 0 24.576 8.192 32.768 8.192 10.24 18.432 14.336 30.72 14.336h284.672v6.144c-2.048 4.096-4.096 104.448-96.256 411.648zM212.992 389.12H57.344c-4.096 0-10.24 0-16.384 4.096-26.624 6.144-40.96 32.768-40.96 55.296v2.048l32.768 512c0 32.768 24.576 57.344 59.392 57.344H225.28c30.72 0 47.104-20.48 53.248-38.912 0-4.096 2.048-6.144 2.048-10.24V454.656c0-8.192 0-28.672-16.384-47.104-20.48-16.384-43.008-18.432-51.2-18.432z m-14.336 552.96H110.592L81.92 468.992h116.736V942.08z" /></svg>