<?xml version="1.0" standalone="no"?><!DOCTYPE svg PUBLIC "-//W3C//DTD SVG 1.1//EN" "http://www.w3.org/Graphics/SVG/1.1/DTD/svg11.dtd"><svg class="icon" width="200px" height="200.00px" viewBox="0 0 1024 1024" version="1.1" xmlns="http://www.w3.org/2000/svg"><path fill="#333333" d="M512 0C229.7856 0 0 229.7856 0 512c0 282.4192 229.7856 512 512 512 282.4192 0 512-229.5808 512-512C1024 229.7856 794.4192 0 512 0z m0 819.2c-34.6112 0-62.8736-28.672-62.8736-64.1024s28.0576-63.8976 62.8736-63.8976c34.6112 0 62.8736 28.672 62.8736 63.8976C574.6688 790.528 546.6112 819.2 512 819.2z m175.3088-402.2272c-8.6016 16.5888-19.0464 30.72-30.9248 42.8032-11.8784 12.0832-33.3824 32.1536-64.1024 60.6208-8.6016 7.9872-15.36 14.9504-20.48 21.0944-5.12 6.144-9.0112 11.6736-11.4688 16.5888-2.4576 5.12-4.5056 10.0352-5.9392 15.1552-1.4336 5.12-3.4816 13.9264-6.144 26.4192-4.7104 26.8288-19.6608 40.3456-44.8512 40.3456-13.1072 0-23.9616-4.3008-32.9728-13.1072-9.0112-8.8064-13.312-21.9136-13.312-39.1168 0-21.7088 3.2768-40.5504 9.8304-56.32 6.5536-15.9744 15.1552-29.9008 26.0096-41.7792 10.8544-12.0832 25.3952-26.2144 43.6224-42.8032 15.9744-14.336 27.648-25.3952 34.816-32.768 7.168-7.3728 13.1072-15.5648 18.0224-24.576 4.9152-9.0112 7.3728-18.8416 7.3728-29.4912 0-20.6848-7.5776-38.0928-22.3232-52.224-14.9504-14.1312-34.2016-21.2992-57.7536-21.2992-27.648 0-47.9232 7.168-61.0304 21.504-13.1072 14.336-24.1664 35.4304-33.1776 63.2832-8.6016 29.0816-24.7808 43.8272-48.5376 43.8272-14.1312 0-26.0096-5.12-35.6352-15.36s-14.5408-21.2992-14.5408-33.1776c0-24.576 7.5776-49.3568 22.9376-74.5472 15.36-25.1904 37.6832-46.08 66.9696-62.464 29.2864-16.5888 63.6928-24.7808 102.8096-24.7808 36.4544 0 68.608 6.9632 96.4608 20.6848 27.8528 13.7216 49.3568 32.5632 64.512 56.32a141.18912 141.18912 0 0 1 22.7328 77.4144c0 21.9136-4.3008 41.1648-12.9024 57.7536z" /></svg>