<?xml version="1.0" standalone="no"?><!DOCTYPE svg PUBLIC "-//W3C//DTD SVG 1.1//EN" "http://www.w3.org/Graphics/SVG/1.1/DTD/svg11.dtd"><svg class="icon" width="200px" height="200.00px" viewBox="0 0 1024 1024" version="1.1" xmlns="http://www.w3.org/2000/svg"><path fill="#333333" d="M512 0C229.1712 0 0 229.1712 0 512s229.1712 512 512 512 512-229.1712 512-512S794.8288 0 512 0z m0 943.104C274.2272 943.104 80.896 749.7728 80.896 512 80.896 274.2272 274.2272 80.896 512 80.896S943.104 274.2272 943.104 512c0 237.7728-193.3312 431.104-431.104 431.104z"  /><path fill="#333333" d="M714.1376 512H512v-202.1376c0-22.3232-18.0224-40.3456-40.3456-40.3456s-40.3456 18.0224-40.3456 40.3456v242.4832c0 22.3232 18.0224 40.3456 40.3456 40.3456h242.4832c22.3232 0 40.3456-18.0224 40.3456-40.3456 0-22.3232-18.0224-40.3456-40.3456-40.3456z"  /></svg>