<?xml version="1.0" standalone="no"?><!DOCTYPE svg PUBLIC "-//W3C//DTD SVG 1.1//EN" "http://www.w3.org/Graphics/SVG/1.1/DTD/svg11.dtd"><svg class="icon" width="200px" height="200.00px" viewBox="0 0 1024 1024" version="1.1" xmlns="http://www.w3.org/2000/svg"><path fill="#333333" d="M1003.724702 386.662527a115.568617 115.568617 0 0 0-32.767994-70.860785L601.702382 33.996998A116.121577 116.121577 0 0 0 519.372799 0.000205c-29.900794 0-59.596788 11.263998-82.329584 33.996793L61.64489 321.94574C34.816095 343.244936 17.203299 375.80813 17.203299 412.672122v494.796701C17.203299 971.57121 69.632088 1024 133.529676 1024h272.998345V659.456073c0-57.958388 47.51359-105.471979 105.471979-105.471979h26.419195c57.958388 0 105.471979 47.51359 105.471979 105.471979V1024h246.57915c64.102387 0 116.531177-52.42879 116.531177-116.531177V412.672122c-0.2048-9.011198-1.4336-17.612796-3.276799-26.009595z" /></svg>