<?xml version="1.0" standalone="no"?><!DOCTYPE svg PUBLIC "-//W3C//DTD SVG 1.1//EN" "http://www.w3.org/Graphics/SVG/1.1/DTD/svg11.dtd"><svg class="icon" width="200px" height="200.00px" viewBox="0 0 1024 1024" version="1.1" xmlns="http://www.w3.org/2000/svg"><path fill="#333333" d="M520.192 88.064c4.096 0 12.288 2.048 20.48 8.192l8.192 8.192 362.496 276.48c2.048 4.096 4.096 8.192 6.144 14.336 0 4.096 0 8.192 2.048 10.24v501.76c0 16.384-14.336 28.672-28.672 28.672h-757.76c-16.384 0-28.672-14.336-28.672-28.672V413.696c0-10.24 6.144-18.432 10.24-22.528L489.472 102.4c2.048-2.048 6.144-4.096 8.192-8.192 8.192-6.144 16.384-6.144 22.528-6.144m0-88.064c-30.72 0-59.392 12.288-81.92 34.816L61.44 321.536c-26.624 20.48-45.056 53.248-45.056 90.112v495.616c0 63.488 53.248 116.736 116.736 116.736h757.76c63.488 0 116.736-53.248 116.736-116.736V413.696c0-8.192-2.048-18.432-4.096-26.624-2.048-26.624-12.288-51.2-32.768-71.68l-368.64-282.624c-22.528-20.48-53.248-32.768-81.92-32.768z" /></svg>