<?xml version="1.0" standalone="no"?><!DOCTYPE svg PUBLIC "-//W3C//DTD SVG 1.1//EN" "http://www.w3.org/Graphics/SVG/1.1/DTD/svg11.dtd"><svg class="icon" width="200px" height="200.00px" viewBox="0 0 1024 1024" version="1.1" xmlns="http://www.w3.org/2000/svg"><path fill="#333333" d="M338.7392 438.4768h371.3024c36.0448 0 58.5728-39.1168 40.5504-70.2464l-185.5488-321.536c-18.0224-31.3344-63.0784-31.3344-81.1008 0l-185.5488 321.536c-18.432 31.1296 4.096 70.2464 40.3456 70.2464z"  /><path fill="#333333" d="M234.2912 766.3616m-234.2912 0a234.2912 234.2912 0 1 0 468.5824 0 234.2912 234.2912 0 1 0-468.5824 0Z"  /><path fill="#333333" d="M977.1008 555.6224H649.0112c-25.8048 0-46.8992 21.0944-46.8992 46.8992v328.0896c0 25.8048 21.0944 46.8992 46.8992 46.8992h328.0896c25.8048 0 46.8992-21.0944 46.8992-46.8992V602.5216c0-25.8048-21.0944-46.8992-46.8992-46.8992z"  /></svg>