<?xml version="1.0" standalone="no"?><!DOCTYPE svg PUBLIC "-//W3C//DTD SVG 1.1//EN" "http://www.w3.org/Graphics/SVG/1.1/DTD/svg11.dtd"><svg class="icon" width="200px" height="200.00px" viewBox="0 0 1024 1024" version="1.1" xmlns="http://www.w3.org/2000/svg"><path fill="#333333" d="M915.281101 73.5232l-252.7232-15.7696v0.4096l-5.9392-0.4096c-11.0592-0.8192-21.7088 3.6864-28.4672 12.4928L531.485901 190.464c-10.0352 12.4928-9.8304 30.5152 0.6144 42.8032l152.9856 177.9712-42.5984 56.1152-111.8208 147.456 14.1312-67.584 23.9616-113.8688c2.6624-12.288-1.8432-24.9856-11.6736-32.9728l-200.2944-163.0208 69.2224-109.1584 14.1312-22.3232c6.7584-10.6496 6.9632-24.1664 0.4096-35.0208s-18.432-17.2032-31.1296-16.1792l-143.9744 10.0352-28.672 2.4576-131.072 11.4688C42.218701 84.1728-5.090099 140.4928 0.439501 204.1856l57.7536 659.456c5.5296 63.6928 61.8496 111.0016 125.7472 105.472l78.4384-6.9632v-0.6144c1.4336 0 2.6624 0.2048 4.096 0l69.632-6.7584c21.0944-2.048 36.4544-20.6848 34.4064-41.7792a38.0928 38.0928 0 0 0-40.3456-34.4064l-16.9984 1.4336-54.0672 5.12 3.2768-0.2048v-0.4096l-85.1968 7.3728a38.912 38.912 0 0 1-41.984-35.2256l-4.096-46.8992 166.7072-173.2608c1.4336-1.2288 6.3488-5.12 11.6736-6.9632 4.7104-1.6384 6.7584-1.2288 10.6496 2.048 37.2736 31.1296 77.824 69.2224 89.2928 80.0768 2.6624 2.6624 7.7824 6.9632 14.5408 10.8544l50.9952 141.312 28.4672 79.2576 74.752 4.7104 281.6 17.6128c63.8976 3.8912 118.9888-44.6464 123.0848-108.544l40.96-660.2752c3.8912-63.8976-44.6464-119.1936-108.544-123.0848zM453.457101 696.7296l4.9152-55.296-4.9152 55.296z m-8.8064 3.2768l12.0832-57.9584c-16.7936-15.7696-50.5856-46.8992-82.944-74.1376-27.648-23.3472-61.44-28.8768-95.4368-15.5648-21.0944 8.192-35.0208 20.8896-39.1168 24.9856L121.271501 698.368 77.444301 197.4272A38.7072 38.7072 0 0 1 112.669901 155.648l229.5808-20.0704-57.7536 91.136c-9.0112 14.336-5.9392 33.1776 7.168 43.8272l0.4096 0.4096c-4.9152-0.4096-10.0352-0.6144-15.1552-0.2048a92.71296 92.71296 0 0 0-84.1728 100.352 92.71296 92.71296 0 0 0 100.352 84.1728 92.71296 92.71296 0 0 0 84.1728-100.352 96.8704 96.8704 0 0 0-3.2768-17.408l125.5424 101.9904-42.5984 202.5472M313.373901 360.448c1.4336 15.5648-10.24 29.4912-25.8048 30.9248-15.5648 1.4336-29.4912-10.24-30.9248-25.8048-1.4336-15.5648 10.24-29.4912 25.8048-30.9248 15.5648-1.4336 29.4912 10.24 30.9248 25.8048z m591.872 491.9296a38.7072 38.7072 0 0 1-40.96 36.2496l-314.9824-19.6608-27.4432-75.9808-12.9024-38.5024 139.8784-184.7296c14.1312-11.6736 26.8288-22.1184 37.0688-30.5152l1.4336-1.4336c3.6864-3.2768 16.9984-12.4928 29.2864-11.6736 7.5776 0.6144 14.9504 5.3248 22.7328 14.7456 35.0208 41.7792 128 195.1744 168.5504 266.4448l-2.6624 45.056z m11.6736-185.9584c-38.912-67.9936-85.4016-145.8176-113.4592-179.2-20.48-24.576-42.3936-35.84-61.0304-40.96l12.4928-16.384c9.6256-12.4928 9.0112-30.1056-1.2288-41.984l-152.3712-177.152 60.6208-75.3664 248.6272 15.5648c21.2992 1.2288 37.4784 19.6608 36.2496 40.96l-29.9008 474.5216z" /></svg>