<?xml version="1.0" standalone="no"?><!DOCTYPE svg PUBLIC "-//W3C//DTD SVG 1.1//EN" "http://www.w3.org/Graphics/SVG/1.1/DTD/svg11.dtd"><svg class="icon" width="200px" height="200.00px" viewBox="0 0 1024 1024" version="1.1" xmlns="http://www.w3.org/2000/svg"><path fill="#333333" d="M448.9216 642.2528c17.408 17.408 40.3456 26.2144 63.0784 26.2144 22.9376 0 45.6704-8.6016 63.0784-26.2144l153.3952-153.3952c14.9504-14.9504 14.9504-39.1168 0-54.0672-14.9504-14.9504-39.1168-14.9504-54.0672 0l-124.1088 124.1088V118.3744c0-21.0944-17.2032-38.2976-38.2976-38.2976s-38.2976 17.2032-38.2976 38.2976v440.5248l-124.1088-124.1088c-14.9504-14.9504-39.1168-14.9504-54.0672 0-14.9504 14.9504-14.9504 39.1168 0 54.0672l153.3952 153.3952z"  /><path fill="#333333" d="M984.2688 495.616c-21.9136 0-39.7312 17.8176-39.7312 39.7312v289.5872c0 21.9136-17.8176 39.7312-39.7312 39.7312H119.1936c-21.9136 0-39.7312-17.8176-39.7312-39.7312V535.3472c0-21.9136-17.8176-39.7312-39.7312-39.7312S0 513.4336 0 535.3472v289.5872c0 65.7408 53.4528 119.1936 119.1936 119.1936h785.8176c65.7408 0 119.1936-53.4528 119.1936-119.1936V535.3472a40.07936 40.07936 0 0 0-39.936-39.7312z"  /></svg>