<?xml version="1.0" standalone="no"?><!DOCTYPE svg PUBLIC "-//W3C//DTD SVG 1.1//EN" "http://www.w3.org/Graphics/SVG/1.1/DTD/svg11.dtd"><svg class="icon" width="200px" height="200.00px" viewBox="0 0 1024 1024" version="1.1" xmlns="http://www.w3.org/2000/svg"><path fill="#333333" d="M980.992 43.008l-2.048-2.048c-30.72-26.624-65.536-40.96-100.352-40.96H630.784c-30.72 4.096-59.392 10.24-88.064 20.48-34.816 12.288-61.44 34.816-81.92 51.2L43.008 489.472C14.336 518.144 0 552.96 0 591.872c0 36.864 16.384 75.776 43.008 102.4l284.672 286.72c26.624 26.624 63.488 43.008 100.352 43.008h2.048c34.816 0 73.728-16.384 100.352-43.008l417.792-417.792c24.576-24.576 40.96-51.2 53.248-77.824 14.336-28.672 22.528-63.488 22.528-98.304V145.408c0-36.864-16.384-75.776-43.008-102.4z m-32.768 344.064c0 22.528-6.144 45.056-14.336 65.536l-2.048 4.096c-6.144 18.432-18.432 36.864-34.816 53.248L477.184 927.744c-12.288 12.288-30.72 20.48-47.104 20.48-18.432 0-36.864-8.192-49.152-20.48L96.256 643.072c-12.288-12.288-20.48-32.768-20.48-49.152 0-20.48 6.144-34.816 20.48-49.152L509.952 129.024c22.528-18.432 38.912-30.72 57.344-36.864 22.528-8.192 45.056-14.336 67.584-16.384h241.664c16.384 0 32.768 6.144 51.2 22.528 12.288 12.288 20.48 30.72 20.48 49.152v239.616zM751.616 143.36c-67.584 0-122.88 55.296-122.88 122.88s55.296 122.88 122.88 122.88 122.88-55.296 122.88-122.88-55.296-122.88-122.88-122.88z m0 172.032c-26.624 0-47.104-20.48-47.104-47.104 0-26.624 20.48-47.104 47.104-47.104 26.624 0 47.104 20.48 47.104 47.104 0 24.576-22.528 47.104-47.104 47.104z" /></svg>