<?xml version="1.0" standalone="no"?><!DOCTYPE svg PUBLIC "-//W3C//DTD SVG 1.1//EN" "http://www.w3.org/Graphics/SVG/1.1/DTD/svg11.dtd"><svg class="icon" width="200px" height="200.00px" viewBox="0 0 1024 1024" version="1.1" xmlns="http://www.w3.org/2000/svg"><path fill="#333333" d="M284.8768 122.2656H70.656C31.744 122.2656 0 154.0096 0 192.9216v214.4256c0 38.912 31.744 70.656 70.656 70.656h214.4256c38.912 0 70.656-31.744 70.656-70.656V192.9216a70.9632 70.9632 0 0 0-70.8608-70.656z m-10.8544 80.6912v193.3312l-192.512 0.8192-0.8192-193.3312 193.3312-0.8192zM284.8768 546.2016H70.656c-38.912 0-70.656 31.744-70.656 70.656v214.4256c0 38.912 31.744 70.656 70.656 70.656h214.4256c38.912 0 70.656-31.744 70.656-70.656V616.8576a70.9632 70.9632 0 0 0-70.8608-70.656z m-10.8544 80.6912v193.3312l-192.512 0.8192-0.8192-193.3312 193.3312-0.8192zM443.392 261.9392H983.04c22.528 0 40.7552-18.2272 40.7552-40.7552S1005.568 180.4288 983.04 180.4288H443.392a40.73472 40.73472 0 1 0 0 81.5104zM983.2448 353.4848H443.392c-22.528 0-40.7552 18.2272-40.7552 40.7552s18.2272 40.7552 40.7552 40.7552H983.04c22.528 0 40.7552-18.2272 40.7552-40.7552 0.2048-22.528-18.0224-40.7552-40.5504-40.7552zM983.2448 608.0512H443.392c-22.528 0-40.7552 18.2272-40.7552 40.7552s18.2272 40.7552 40.7552 40.7552H983.04c22.528 0 40.7552-18.2272 40.7552-40.7552s-18.0224-40.7552-40.5504-40.7552zM983.2448 781.1072H443.392c-22.528 0-40.7552 18.2272-40.7552 40.7552s18.2272 40.7552 40.7552 40.7552H983.04c22.528 0 40.7552-18.2272 40.7552-40.7552s-18.0224-40.7552-40.5504-40.7552z" /></svg>