<?xml version="1.0" standalone="no"?><!DOCTYPE svg PUBLIC "-//W3C//DTD SVG 1.1//EN" "http://www.w3.org/Graphics/SVG/1.1/DTD/svg11.dtd"><svg class="icon" width="200px" height="200.00px" viewBox="0 0 1024 1024" version="1.1" xmlns="http://www.w3.org/2000/svg"><path fill="#333333" d="M935.936 423.936C935.936 190.464 745.472 0 512 0S88.064 190.464 88.064 423.936c0 116.736 47.104 223.232 124.928 299.008L512 1024l301.056-301.056c75.776-75.776 122.88-182.272 122.88-299.008z m-186.368 253.952L512 915.456 274.432 677.888c-2.048-2.048-4.096-6.144-6.144-8.192-65.536-65.536-102.4-153.6-102.4-245.76 0-190.464 155.648-346.112 346.112-346.112s346.112 155.648 346.112 346.112c0 92.16-36.864 180.224-102.4 245.76 0 2.048-4.096 4.096-6.144 8.192zM512 231.424c-98.304 0-180.224 79.872-180.224 180.224 0 98.304 79.872 180.224 180.224 180.224s180.224-79.872 180.224-180.224-81.92-180.224-180.224-180.224z m0 290.816c-61.44 0-112.64-51.2-112.64-112.64s51.2-112.64 112.64-112.64 112.64 51.2 112.64 112.64-51.2 112.64-112.64 112.64z" /></svg>