<?xml version="1.0" standalone="no"?><!DOCTYPE svg PUBLIC "-//W3C//DTD SVG 1.1//EN" "http://www.w3.org/Graphics/SVG/1.1/DTD/svg11.dtd"><svg class="icon" width="200px" height="200.00px" viewBox="0 0 1024 1024" version="1.1" xmlns="http://www.w3.org/2000/svg"><path fill="#333333" d="M512 0C229.376 0 0 229.376 0 512s229.376 512 512 512 512-229.376 512-512S794.624 0 512 0z m0 944.128C274.432 944.128 79.872 749.568 79.872 512 79.872 274.432 274.432 79.872 512 79.872c237.568 0 432.128 192.512 432.128 432.128 0 237.568-194.56 432.128-432.128 432.128zM811.008 442.368l-169.984-169.984c-16.384-16.384-43.008-16.384-59.392 0-16.384 16.384-16.384 43.008 0 59.392l139.264 139.264h-491.52c-26.624-2.048-45.056 16.384-45.056 40.96s18.432 43.008 43.008 43.008h491.52l-139.264 139.264c-16.384 16.384-16.384 43.008 0 59.392 16.384 16.384 43.008 16.384 59.392 0l169.984-169.984c18.432-18.432 28.672-45.056 28.672-69.632 2.048-26.624-8.192-53.248-26.624-71.68z" /></svg>