<?xml version="1.0" standalone="no"?><!DOCTYPE svg PUBLIC "-//W3C//DTD SVG 1.1//EN" "http://www.w3.org/Graphics/SVG/1.1/DTD/svg11.dtd"><svg class="icon" width="200px" height="200.00px" viewBox="0 0 1024 1024" version="1.1" xmlns="http://www.w3.org/2000/svg"><path fill="#333333" d="M512 0C229.1712 0 0 229.1712 0 512s229.1712 512 512 512 512-229.1712 512-512S794.8288 0 512 0z m14.9504 829.44h-166.7072c-50.176 0-91.136-40.96-91.136-91.136v-452.608c0-50.176 40.96-91.136 91.136-91.136h166.7072c24.9856 0 45.4656 20.2752 45.4656 45.4656s-20.2752 45.4656-45.4656 45.4656h-166.7072l-0.4096 453.0176 167.1168 0.4096c24.9856 0 45.4656 20.2752 45.4656 45.4656s-20.48 45.056-45.4656 45.056z m248.2176-265.216l-88.2688 88.2688a44.48256 44.48256 0 0 1-63.0784 0c-16.9984-16.9984-16.9984-45.8752 0-63.0784l32.9728-32.9728h-199.2704c-24.576 0-44.6464-20.0704-44.6464-44.6464s20.0704-44.6464 44.6464-44.6464h199.2704l-32.9728-32.9728a44.62592 44.62592 0 0 1 63.0784-63.0784l88.2688 88.4736c27.8528 28.0576 27.648 76.8 0 104.6528z" /></svg>