<?xml version="1.0" standalone="no"?><!DOCTYPE svg PUBLIC "-//W3C//DTD SVG 1.1//EN" "http://www.w3.org/Graphics/SVG/1.1/DTD/svg11.dtd"><svg class="icon" width="200px" height="200.00px" viewBox="0 0 1024 1024" version="1.1" xmlns="http://www.w3.org/2000/svg"><path fill="#333333" d="M882.688 733.184l-28.672-30.72V391.168c0-147.456-102.4-274.432-249.856-313.344-6.144-43.008-43.008-77.824-88.064-77.824-45.056 0-81.92 32.768-88.064 75.776-149.504 36.864-258.048 167.936-258.048 315.392v311.296l-28.672 30.72c-24.576 26.624-30.72 61.44-16.384 94.208 16.384 32.768 49.152 53.248 88.064 53.248h600.064c38.912 0 71.68-20.48 86.016-55.296 12.288-30.72 6.144-67.584-16.384-92.16zM835.584 798.72c-2.048 4.096-8.192 14.336-24.576 14.336H212.992c-16.384 0-22.528-10.24-24.576-14.336-2.048-4.096-4.096-12.288 4.096-20.48l36.864-40.96c6.144-6.144 8.192-14.336 8.192-22.528V391.168c0-124.928 98.304-233.472 229.376-253.952 10.24-2.048 18.432-6.144 24.576-14.336 6.144-8.192 6.144-18.432 4.096-26.624 0-2.048-2.048-4.096-2.048-6.144 0-12.288 10.24-20.48 20.48-20.48s20.48 10.24 20.48 20.48c0 2.048 0 4.096-2.048 6.144 0 8.192 2.048 18.432 6.144 26.624 4.096 8.192 14.336 14.336 22.528 16.384 129.024 22.528 223.232 129.024 223.232 251.904v323.584c0 8.192 4.096 16.384 8.192 22.528l36.864 40.96c10.24 8.192 8.192 16.384 6.144 20.48zM638.976 894.976c-16.384-8.192-36.864-2.048-45.056 14.336-16.384 30.72-47.104 49.152-79.872 49.152s-65.536-18.432-79.872-49.152c-8.192-16.384-28.672-22.528-45.056-14.336-16.384 8.192-22.528 28.672-14.336 45.056 28.672 51.2 81.92 83.968 139.264 83.968s112.64-32.768 139.264-83.968c8.192-16.384 2.048-36.864-14.336-45.056z" /></svg>