<?xml version="1.0" standalone="no"?><!DOCTYPE svg PUBLIC "-//W3C//DTD SVG 1.1//EN" "http://www.w3.org/Graphics/SVG/1.1/DTD/svg11.dtd"><svg class="icon" width="200px" height="200.00px" viewBox="0 0 1024 1024" version="1.1" xmlns="http://www.w3.org/2000/svg"><path fill="#333333" d="M903.7824 819.2l-42.1888-46.4896V405.0944c0-161.1776-123.904-295.936-286.1056-324.4032 1.8432-5.7344 3.072-11.8784 3.072-18.2272C578.56 27.8528 550.7072 0 516.096 0a62.464 62.464 0 0 0-62.464 62.464c0 5.9392 1.024 11.6736 2.6624 17.2032-166.0928 25.3952-294.0928 161.9968-294.0928 325.632v367.616L120.2176 819.2c-37.4784 41.1648-6.3488 105.0624 51.2 105.0624h681.3696c57.344-0.2048 88.4736-63.8976 50.9952-105.0624zM512 1024c54.272 0 101.376-30.3104 125.3376-74.9568H386.6624A142.0288 142.0288 0 0 0 512 1024z" /></svg>