<?xml version="1.0" standalone="no"?><!DOCTYPE svg PUBLIC "-//W3C//DTD SVG 1.1//EN" "http://www.w3.org/Graphics/SVG/1.1/DTD/svg11.dtd"><svg class="icon" width="200px" height="200.00px" viewBox="0 0 1024 1024" version="1.1" xmlns="http://www.w3.org/2000/svg"><path fill="#333333" d="M506.411827 370.688c4.096 0 6.144 0 8.192-2.048 18.432-14.336 57.344-34.816 92.16-45.056 57.344-18.432 108.544-14.336 141.312 22.528 10.24 10.24 16.384 22.528 20.48 36.864 8.192 28.672 2.048 45.056-14.336 83.968-12.288 28.672-14.336 36.864-4.096 47.104 6.144 8.192 12.288 10.24 26.624 12.288 4.096 0 6.144 0 14.336 2.048 69.632 4.096 102.4 32.768 102.4 118.784 0 104.448-73.728 190.464-192.512 249.856-94.208 49.152-215.04 77.824-307.2 77.824C287.275827 972.8 184.875827 950.272 111.147827 901.12 10.795827 831.488-26.068173 716.8 18.987827 561.152c36.864-122.88 190.464-294.912 335.872-358.4 32.768-14.336 73.728-16.384 104.448-2.048 45.056 22.528 53.248 73.728 24.576 135.168-12.288 24.576-10.24 26.624 0 30.72 6.144 2.048 14.336 4.096 22.528 4.096z m-92.16-67.584c8.192-16.384 10.24-26.624 10.24-32.768-8.192-2.048-26.624-2.048-38.912 4.096C260.651827 327.68 123.435827 481.28 92.715827 583.68c-36.864 124.928-12.288 204.8 61.44 253.952 59.392 38.912 147.456 59.392 241.664 59.392 79.872 0 188.416-26.624 272.384-69.632 96.256-49.152 149.504-112.64 149.504-182.272 0-14.336-2.048-24.576-4.096-32.768-2.048-4.096-2.048-6.144-2.048-6.144-2.048-2.048-6.144-2.048-24.576-4.096-6.144 0-12.288 0-18.432-2.048-32.768-4.096-59.392-14.336-79.872-43.008-30.72-40.96-26.624-73.728-4.096-124.928 10.24-20.48 12.288-28.672 10.24-30.72 0-2.048-2.048-2.048-4.096-6.144-8.192-10.24-30.72-10.24-63.488 0-14.336 4.096-30.72 10.24-45.056 18.432-10.24 6.144-20.48 12.288-22.528 14.336-22.528 20.48-73.728 22.528-108.544 10.24-49.152-20.48-67.584-73.728-36.864-135.168z m606.208 102.4c-2.048 14.336-10.24 24.576-24.576 30.72-12.288 4.096-26.624 2.048-38.912-6.144-10.24-8.192-16.384-22.528-14.336-36.864 2.048-12.288 2.048-22.528 2.048-34.816 0-126.976-102.4-231.424-231.424-231.424h-10.24c-20.48 0-38.912-16.384-40.96-36.864 0-20.48 16.384-38.912 36.864-40.96h12.288c169.984 0 307.2 137.216 307.2 307.2 6.144 18.432 4.096 32.768 2.048 49.152z m-124.928-18.432c-2.048 14.336-10.24 26.624-22.528 30.72-12.288 6.144-26.624 4.096-38.912-4.096-10.24-8.192-16.384-20.48-16.384-34.816 2.048-28.672-6.144-57.344-26.624-77.824-18.432-20.48-47.104-32.768-75.776-32.768-20.48 0-38.912-16.384-38.912-38.912 0-20.48 16.384-38.912 38.912-38.912 98.304 0 178.176 79.872 178.176 180.224 2.048 6.144 2.048 12.288 2.048 16.384z m0 0" /></svg>