<?xml version="1.0" standalone="no"?><!DOCTYPE svg PUBLIC "-//W3C//DTD SVG 1.1//EN" "http://www.w3.org/Graphics/SVG/1.1/DTD/svg11.dtd"><svg class="icon" width="200px" height="200.00px" viewBox="0 0 1024 1024" version="1.1" xmlns="http://www.w3.org/2000/svg"><path fill="#333333" d="M377.6512 259.072H622.592c77.6192 0 137.4208-167.1168 137.4208-167.1168 0-47.7184-5.9392-89.4976-89.4976-89.4976s-107.52 59.8016-167.1168 59.8016c-59.8016 0-95.6416-47.7184-173.2608-59.8016-77.6192-11.8784-89.4976 41.7792-89.4976 89.4976 5.5296 5.9392 59.392 167.1168 137.0112 167.1168m262.7584 53.6576H377.6512c-286.72 0-358.4 561.3568-358.4 561.3568 0 71.68 59.8016 149.2992 137.4208 149.2992h710.656c71.68 0 137.4208-71.68 137.4208-149.2992-6.144 0-77.6192-561.3568-364.3392-561.3568m29.9008 430.08c17.8176 0 29.9008 11.8784 29.9008 29.9008 0 17.8176-11.8784 29.9008-29.9008 29.9008h-131.2768v83.5584c0 17.8176-11.8784 29.9008-29.9008 29.9008-17.8176 0-29.9008-11.8784-29.9008-29.9008v-83.5584h-131.2768c-17.8176 0-29.9008-11.8784-29.9008-29.9008 0-17.8176 11.8784-29.9008 29.9008-29.9008h131.2768v-41.7792h-131.2768c-17.8176 0-29.9008-11.8784-29.9008-29.9008 0-17.8176 11.8784-29.9008 29.9008-29.9008h89.4976l-89.4976-155.2384c-5.9392-18.0224-5.9392-35.84 11.8784-41.7792 17.8176-5.9392 35.84-5.9392 41.7792 11.8784l107.52 191.0784h5.9392l107.52-191.0784c5.9392-17.8176 29.9008-17.8176 41.7792-11.8784 17.8176 5.9392 17.8176 29.9008 11.8784 41.7792l-89.4976 155.2384h83.5584c17.8176 0 29.9008 11.8784 29.9008 29.9008 0 17.8176-11.8784 29.9008-29.9008 29.9008h-131.2768v41.7792h131.2768" /></svg>