<?xml version="1.0" standalone="no"?><!DOCTYPE svg PUBLIC "-//W3C//DTD SVG 1.1//EN" "http://www.w3.org/Graphics/SVG/1.1/DTD/svg11.dtd"><svg class="icon" width="200px" height="200.00px" viewBox="0 0 1024 1024" version="1.1" xmlns="http://www.w3.org/2000/svg"><path fill="#333333" d="M512 0C229.7856 0 0 229.5808 0 512s229.5808 512 512 512c282.2144 0 512-229.7856 512-512C1024 229.5808 794.2144 0 512 0z m0 944.7424C273.408 944.7424 79.2576 750.592 79.2576 512 79.2576 273.408 273.408 79.2576 512 79.2576c238.592 0 432.7424 194.1504 432.7424 432.7424 0 238.592-194.1504 432.7424-432.7424 432.7424zM318.6688 512m-61.44 0a61.44 61.44 0 1 0 122.88 0 61.44 61.44 0 1 0-122.88 0ZM521.0112 512m-61.44 0a61.44 61.44 0 1 0 122.88 0 61.44 61.44 0 1 0-122.88 0ZM723.3536 512m-61.44 0a61.44 61.44 0 1 0 122.88 0 61.44 61.44 0 1 0-122.88 0Z" /></svg>