<?xml version="1.0" standalone="no"?><!DOCTYPE svg PUBLIC "-//W3C//DTD SVG 1.1//EN" "http://www.w3.org/Graphics/SVG/1.1/DTD/svg11.dtd"><svg class="icon" width="200px" height="200.00px" viewBox="0 0 1024 1024" version="1.1" xmlns="http://www.w3.org/2000/svg"><path fill="#333333" d="M815.104 149.504L512 454.656 208.896 149.504c-16.384-16.384-40.96-16.384-57.344 0s-16.384 40.96 0 57.344L454.656 512 149.504 815.104c-16.384 16.384-16.384 40.96 0 57.344s40.96 16.384 57.344 0L512 569.344l303.104 303.104c16.384 16.384 40.96 16.384 57.344 0s16.384-40.96 0-57.344L569.344 512l303.104-303.104c16.384-16.384 16.384-40.96 0-57.344s-40.96-18.432-57.344-2.048z" /></svg>