<?xml version="1.0" standalone="no"?><!DOCTYPE svg PUBLIC "-//W3C//DTD SVG 1.1//EN" "http://www.w3.org/Graphics/SVG/1.1/DTD/svg11.dtd"><svg class="icon" width="200px" height="200.00px" viewBox="0 0 1024 1024" version="1.1" xmlns="http://www.w3.org/2000/svg"><path fill="#333333" d="M989.37856 993.28c-18.432 0-34.816-14.336-34.816-32.768-16.384-204.8-172.032-368.64-374.784-399.36-16.384-2.048-28.672-16.384-30.72-32.768-2.048-16.384 8.192-32.768 24.576-36.864 83.968-26.624 139.264-102.4 139.264-190.464C712.89856 192.512 622.78656 102.4 512.19456 102.4s-200.704 90.112-200.704 200.704c0 88.064 55.296 163.84 139.264 190.464 16.384 4.096 26.624 20.48 24.576 36.864-2.048 16.384-14.336 30.72-30.72 32.768C241.85856 591.872 88.25856 757.76 71.87456 960.512c-2.048 20.48-18.432 34.816-38.912 32.768-20.48-2.048-34.816-18.432-32.768-38.912 18.432-204.8 153.6-374.784 342.016-440.32-63.488-51.2-102.4-126.976-102.4-212.992 0-149.504 122.88-272.384 272.384-272.384s272.384 122.88 272.384 272.384c0 83.968-38.912 161.792-102.4 212.992 188.416 65.536 323.584 235.52 342.016 440.32 2.048 20.48-12.288 36.864-32.768 38.912h-2.048z" /></svg>