<?xml version="1.0" standalone="no"?><!DOCTYPE svg PUBLIC "-//W3C//DTD SVG 1.1//EN" "http://www.w3.org/Graphics/SVG/1.1/DTD/svg11.dtd"><svg class="icon" width="200px" height="200.00px" viewBox="0 0 1024 1024" version="1.1" xmlns="http://www.w3.org/2000/svg"><path fill="#333333" d="M512 0.4096c-282.8288 0-512 229.1712-512 512 0 128.8192 47.9232 246.3744 126.5664 336.2816 90.5216 103.6288 221.7984 170.1888 368.8448 174.8992h32.9728c147.2512-4.7104 278.528-71.2704 368.8448-174.8992C976.0768 758.784 1024 641.2288 1024 512.4096c0-282.8288-229.1712-512-512-512z m0 999.6288c-149.504 0-283.0336-67.3792-372.5312-173.2608 66.7648-105.6768 177.152-181.248 305.9712-200.704-87.6544-28.0576-151.1424-110.1824-151.1424-207.0528 0-120.0128 97.28-217.4976 217.4976-217.4976 120.0128 0 217.4976 97.28 217.4976 217.4976 0 96.8704-63.488 178.9952-151.1424 207.0528 129.024 19.456 239.2064 95.0272 305.9712 200.704-89.088 105.8816-222.6176 173.2608-372.1216 173.2608z" /></svg>