<?xml version="1.0" standalone="no"?><!DOCTYPE svg PUBLIC "-//W3C//DTD SVG 1.1//EN" "http://www.w3.org/Graphics/SVG/1.1/DTD/svg11.dtd"><svg class="icon" width="200px" height="200.00px" viewBox="0 0 1024 1024" version="1.1" xmlns="http://www.w3.org/2000/svg"><path fill="#333333" d="M508.7232 323.1744c18.8416 0 34.2016-15.36 34.2016-34.2016V91.7504c0-18.8416-15.36-34.2016-34.2016-34.2016-18.8416 0-34.2016 15.36-34.2016 34.2016v197.0176c0 19.0464 15.36 34.4064 34.2016 34.4064zM738.5088 321.7408c10.4448 0 20.0704-4.7104 26.624-12.6976l78.2336-96.6656c5.7344-6.9632 8.3968-16.1792 7.3728-25.1904-0.8192-9.0112-5.3248-17.408-12.4928-23.1424a34.304 34.304 0 0 0-48.128 5.12l-78.2336 96.6656c-4.9152 6.144-7.5776 13.7216-7.5776 21.504 0 19.0464 15.36 34.4064 34.2016 34.4064zM256.2048 306.3808a34.44736 34.44736 0 0 0 48.128 5.5296c14.7456-11.8784 17.2032-33.3824 5.3248-48.128l-77.0048-96.6656a34.44736 34.44736 0 0 0-48.128-5.5296c-14.5408 11.8784-16.9984 33.3824-5.3248 48.128l77.0048 96.6656zM1023.3856 694.0672c-0.2048-4.3008-1.4336-26.4192-6.7584-46.4896-5.3248-20.2752-15.9744-41.1648-18.0224-45.056a8.45824 8.45824 0 0 0-1.4336-2.2528l-107.1104-169.7792c-0.6144-1.024-1.2288-1.8432-1.8432-2.6624-3.2768-4.3008-20.8896-26.0096-42.5984-38.5024-22.7328-13.1072-52.224-15.5648-57.9584-15.9744H215.4496c-7.5776 0-33.9968 1.024-55.9104 14.5408-20.6848 12.9024-35.84 34.4064-38.7072 38.5024-0.6144 0.8192-1.024 1.4336-1.4336 2.2528l-90.3168 159.744c-2.8672 4.7104-12.6976 22.1184-20.8896 48.9472C0 665.1904 0.4096 690.176 0.8192 697.5488v181.6576c0.4096 6.3488 3.2768 39.3216 27.648 62.2592 23.9616 22.3232 59.8016 24.7808 66.56 24.9856h829.44c10.0352 0 44.4416-1.8432 70.0416-24.7808 27.0336-24.1664 28.8768-56.9344 28.672-66.3552v-179.8144l0.2048-1.4336zM87.6544 624.2304l1.024-1.6384 89.7024-158.72 0.2048-0.4096c3.072-4.3008 10.6496-13.5168 17.2032-17.408 4.5056-2.8672 14.5408-4.3008 19.6608-4.3008h569.1392c6.9632 0.6144 20.48 3.072 27.0336 6.7584 7.5776 4.3008 17.2032 14.5408 21.0944 19.456l0.4096 0.4096 99.7376 157.9008-291.0208 0.4096c-18.8416 0-34.2016 15.36-34.2016 34.2016 0 53.8624-42.8032 96.0512-97.4848 96.0512-54.8864 0-97.6896-42.1888-97.6896-96.0512 0-18.8416-15.36-34.2016-34.2016-34.2016l-291.84-0.2048 0.8192-1.6384c0 0.2048 0.4096-0.6144 0.4096-0.6144z m861.184 266.4448c-5.5296 4.9152-17.408 7.168-24.3712 7.168H96.6656c-4.096-0.2048-15.9744-2.2528-20.6848-5.7344l-0.6144-0.4096-0.4096-0.4096c-3.4816-3.4816-5.3248-11.264-5.7344-14.5408V696.5248v-1.4336l278.1184 0.2048 1.4336 5.9392c18.6368 73.3184 84.992 124.3136 161.1776 124.3136 76.1856 0 142.336-51.2 160.9728-124.3136l1.4336-5.9392 282.2144-0.2048c0 0.4096 0 1.024 0.2048 1.6384v181.0432c0 1.024-1.024 8.6016-5.9392 12.9024z" /></svg>