<?xml version="1.0" standalone="no"?><!DOCTYPE svg PUBLIC "-//W3C//DTD SVG 1.1//EN" "http://www.w3.org/Graphics/SVG/1.1/DTD/svg11.dtd"><svg class="icon" width="200px" height="200.00px" viewBox="0 0 1024 1024" version="1.1" xmlns="http://www.w3.org/2000/svg"><path fill="#333333" d="M983.04 680.1408h-107.3152v-122.88c0-44.032-35.84-79.872-79.872-79.872H546.2016v-133.5296h107.3152c22.528 0 40.96-18.432 40.96-40.96V135.3728c0-22.528-18.432-40.96-40.96-40.96H370.2784c-22.528 0-40.96 18.432-40.96 40.96v167.5264c0 22.528 18.432 40.96 40.96 40.96h107.3152v133.5296H228.1472c-44.032 0-79.872 35.84-79.872 79.872v122.88H40.96c-22.528 0-40.96 18.432-40.96 40.96v167.5264c0 22.528 18.432 40.96 40.96 40.96h283.2384c22.528 0 40.96-18.432 40.96-40.96v-167.5264c0-22.528-18.432-40.96-40.96-40.96h-107.3152v-122.88c0-6.144 5.3248-11.4688 11.4688-11.4688h567.5008c6.144 0 11.4688 5.3248 11.4688 11.4688v122.88h-107.3152c-22.528 0-40.96 18.432-40.96 40.96v167.5264c0 22.528 18.432 40.96 40.96 40.96H983.04c22.528 0 40.96-18.432 40.96-40.96v-167.5264c0-22.528-18.432-40.96-40.96-40.96z" /></svg>