<?xml version="1.0" standalone="no"?><!DOCTYPE svg PUBLIC "-//W3C//DTD SVG 1.1//EN" "http://www.w3.org/Graphics/SVG/1.1/DTD/svg11.dtd"><svg class="icon" width="200px" height="200.00px" viewBox="0 0 1024 1024" version="1.1" xmlns="http://www.w3.org/2000/svg"><path fill="#333333" d="M881.2544 366.592h-106.7008v-95.6416C774.5536 121.856 652.6976 0 503.6032 0S232.6528 121.856 232.6528 270.9504v95.6416H142.7456c-62.464 0-113.664 51.2-113.664 113.664v430.08c0 62.464 51.2 113.664 113.664 113.664h738.5088c62.464 0 113.664-51.2 113.664-113.664v-430.08c0-62.464-51.2-113.664-113.664-113.664z m-563.4048 0v-95.6416c0-102.4 83.3536-185.7536 185.7536-185.7536s185.7536 83.3536 185.7536 185.7536v95.6416H317.8496z" /></svg>