<?xml version="1.0" standalone="no"?><!DOCTYPE svg PUBLIC "-//W3C//DTD SVG 1.1//EN" "http://www.w3.org/Graphics/SVG/1.1/DTD/svg11.dtd"><svg class="icon" width="200px" height="200.00px" viewBox="0 0 1024 1024" version="1.1" xmlns="http://www.w3.org/2000/svg"><path fill="#333333" d="M827.508326 1019.904c-139.264 24.576-368.64-86.016-561.152-284.672-165.888-169.984-270.336-370.688-266.24-512 2.048-53.248 20.48-94.208 51.2-122.88l24.576-22.528C127.092326 30.72 168.052326 2.048 227.444326 2.048c55.296 0 108.544 30.72 155.648 90.112 94.208 120.832 94.208 202.752 2.048 286.72-2.048 2.048-6.144 6.144-10.24 8.192 10.24 20.48 40.96 67.584 114.688 141.312 77.824 79.872 126.976 112.64 145.408 120.832 6.144-4.096 10.24-10.24 14.336-12.288 12.288-10.24 20.48-18.432 30.72-24.576 98.304-67.584 190.464-10.24 258.048 47.104 67.584 55.296 96.256 116.736 81.92 178.176-10.24 47.104-40.96 81.92-83.968 118.784l-4.096 4.096c-8.192 6.144-22.528 18.432-26.624 22.528-20.48 18.432-47.104 30.72-77.824 36.864zM215.156326 88.064c-20.48 2.048-40.96 14.336-79.872 51.2L108.660326 163.84c-14.336 12.288-22.528 34.816-22.528 63.488C82.036326 321.536 155.764326 501.76 327.796326 675.84c223.232 227.328 460.8 296.96 522.24 243.712 4.096-4.096 20.48-18.432 28.672-24.576l4.096-4.096c34.816-30.72 51.2-51.2 55.296-71.68 2.048-10.24 10.24-43.008-53.248-94.208-92.16-75.776-126.976-61.44-155.648-40.96-6.144 4.096-12.288 10.24-22.528 18.432-4.096 4.096-14.336 14.336-20.48 18.432l-4.096 4.096c-18.432 16.384-63.488 57.344-251.904-137.216-65.536-67.584-145.408-159.744-143.36-212.992 0-16.384 6.144-28.672 18.432-38.912l6.144-6.144c6.144-6.144 14.336-12.288 18.432-16.384 43.008-38.912 67.584-69.632-12.288-169.984-30.72-38.912-59.392-57.344-88.064-57.344-6.144 0-10.24 0-14.336 2.048z m438.272 604.16z m-28.672-32.768z" /></svg>