<?xml version="1.0" standalone="no"?><!DOCTYPE svg PUBLIC "-//W3C//DTD SVG 1.1//EN" "http://www.w3.org/Graphics/SVG/1.1/DTD/svg11.dtd"><svg class="icon" width="200px" height="200.00px" viewBox="0 0 1024 1024" version="1.1" xmlns="http://www.w3.org/2000/svg"><path fill="#333333" d="M892.928 989.184H131.072c-71.68 0-131.072-71.68-131.072-161.792V323.584c0-90.112 59.392-161.792 131.072-161.792h178.176V135.168c0-55.296 36.864-98.304 83.968-98.304h237.568c45.056 0 83.968 45.056 83.968 98.304v26.624h178.176c71.68 0 131.072 71.68 131.072 161.792v503.808c0 88.064-59.392 161.792-131.072 161.792zM131.072 233.472c-30.72 0-59.392 43.008-59.392 90.112v503.808c0 47.104 28.672 90.112 59.392 90.112h761.856c30.72 0 59.392-43.008 59.392-90.112V323.584c0-47.104-28.672-90.112-59.392-90.112H677.888c-20.48 0-34.816-16.384-34.816-34.816V135.168c0-18.432-10.24-26.624-12.288-26.624H393.216c-2.048 0-12.288 8.192-12.288 26.624v63.488c0 20.48-16.384 34.816-34.816 34.816H131.072zM512 727.04c-98.304 0-178.176-79.872-178.176-178.176S413.696 368.64 512 368.64s178.176 79.872 178.176 178.176-79.872 180.224-178.176 180.224z m0-286.72c-59.392 0-106.496 47.104-106.496 106.496S452.608 655.36 512 655.36s106.496-47.104 106.496-106.496-47.104-108.544-106.496-108.544z" /></svg>