<?xml version="1.0" standalone="no"?><!DOCTYPE svg PUBLIC "-//W3C//DTD SVG 1.1//EN" "http://www.w3.org/Graphics/SVG/1.1/DTD/svg11.dtd"><svg class="icon" width="200px" height="200.00px" viewBox="0 0 1024 1024" version="1.1" xmlns="http://www.w3.org/2000/svg"><path fill="#333333" d="M512 1024c282.624 0 512-229.376 512-512S794.624 0 512 0 0 229.376 0 512s229.376 512 512 512z m0-944.128c237.568 0 432.128 192.512 432.128 432.128 0 237.568-192.512 432.128-432.128 432.128-237.568 0-432.128-194.56-432.128-432.128C79.872 274.432 274.432 79.872 512 79.872zM212.992 581.632l169.984 169.984c16.384 16.384 43.008 16.384 59.392 0 16.384-16.384 16.384-43.008 0-59.392L307.2 555.008h491.52c24.576 0 43.008-18.432 43.008-43.008 0-24.576-18.432-43.008-43.008-43.008H307.2l139.264-139.264c16.384-16.384 16.384-43.008 0-59.392-16.384-16.384-43.008-16.384-59.392 0l-169.984 169.984C194.56 460.8 184.32 487.424 184.32 512c0 24.576 10.24 51.2 28.672 69.632z" /></svg>