<?xml version="1.0" standalone="no"?><!DOCTYPE svg PUBLIC "-//W3C//DTD SVG 1.1//EN" "http://www.w3.org/Graphics/SVG/1.1/DTD/svg11.dtd"><svg class="icon" width="200px" height="200.00px" viewBox="0 0 1024 1024" version="1.1" xmlns="http://www.w3.org/2000/svg"><path fill="#333333" d="M399.36 579.584h225.28c20.48 0 34.816-16.384 34.816-36.864s-16.384-36.864-36.864-36.864h-225.28c-20.48 0-34.816 16.384-34.816 36.864s16.384 36.864 36.864 36.864zM917.504 0H106.496C47.104 0 0 59.392 0 131.072V512c0 71.68 47.104 131.072 106.496 131.072H225.28v247.808c0 34.816 14.336 67.584 38.912 94.208 24.576 24.576 57.344 38.912 94.208 38.912h309.248c71.68 0 131.072-59.392 131.072-131.072V643.072h118.784c59.392 0 106.496-59.392 106.496-131.072V131.072C1024 59.392 976.896 0 917.504 0z m-192.512 358.4v534.528c0 14.336-6.144 30.72-16.384 40.96s-26.624 16.384-40.96 16.384H356.352c-16.384 0-30.72-6.144-40.96-16.384s-16.384-26.624-16.384-40.96V358.4h425.984z m73.728 0h45.056c20.48 0 36.864-16.384 36.864-36.864s-16.384-36.864-36.864-36.864H180.224c-20.48 0-36.864 16.384-36.864 36.864s16.384 36.864 36.864 36.864H225.28v210.944H106.496c-14.336 0-32.768-22.528-32.768-57.344V131.072c0-36.864 18.432-57.344 32.768-57.344h811.008c14.336 0 32.768 22.528 32.768 57.344V512c0 36.864-18.432 57.344-32.768 57.344H798.72V358.4zM399.36 802.816h225.28c20.48 0 34.816-16.384 34.816-36.864s-16.384-36.864-36.864-36.864h-225.28c-20.48 0-36.864 16.384-36.864 36.864 2.048 20.48 18.432 36.864 38.912 36.864z" /></svg>