<?xml version="1.0" standalone="no"?><!DOCTYPE svg PUBLIC "-//W3C//DTD SVG 1.1//EN" "http://www.w3.org/Graphics/SVG/1.1/DTD/svg11.dtd"><svg class="icon" width="200px" height="200.00px" viewBox="0 0 1024 1024" version="1.1" xmlns="http://www.w3.org/2000/svg"><path fill="#333333" d="M111.8208 629.1456c-8.192-30.5152-12.288-62.464-12.288-94.4128 0-88.6784 32.9728-172.2368 88.2688-237.1584a165.51936 165.51936 0 0 0 109.7728 41.7792c91.5456 0 165.888-74.3424 165.888-165.888S389.12 7.5776 297.5744 7.5776 131.6864 81.92 131.6864 173.4656c0 11.8784 1.2288 23.3472 3.6864 34.6112C51.2 293.4784 0 410.2144 0 534.7328c0 40.7552 5.3248 81.1008 15.7696 120.2176 5.9392 22.3232 26.0096 36.864 48.128 36.864 4.3008 0 8.6016-0.6144 12.9024-1.6384a49.78688 49.78688 0 0 0 35.0208-61.0304zM681.1648 828.416a361.59488 361.59488 0 0 1-216.6784 71.2704c-11.4688 0-22.9376-0.6144-34.4064-1.8432a165.96992 165.96992 0 0 0-158.9248-213.4016c-91.5456 0-165.888 74.3424-165.888 165.888s74.3424 165.888 165.888 165.888c34.4064 0 66.1504-10.4448 92.5696-28.2624 32.768 7.168 66.3552 11.0592 100.5568 11.0592 100.1472 0 195.584-31.3344 275.8656-90.9312a49.7664 49.7664 0 0 0 10.4448-69.632 49.7664 49.7664 0 0 0-69.4272-10.0352zM924.4672 473.9072C900.3008 293.2736 770.6624 139.0592 592.2816 88.064c-26.4192-7.5776-54.0672 7.7824-61.44 34.2016-7.5776 26.4192 7.7824 53.8624 34.2016 61.44 132.5056 37.888 230.8096 148.2752 257.2288 280.3712-74.3424 16.384-129.8432 82.5344-129.8432 161.792 0 91.5456 74.3424 165.888 165.888 165.888s165.888-74.3424 165.888-165.888a166.31808 166.31808 0 0 0-99.7376-151.9616z" /></svg>