<?xml version="1.0" standalone="no"?><!DOCTYPE svg PUBLIC "-//W3C//DTD SVG 1.1//EN" "http://www.w3.org/Graphics/SVG/1.1/DTD/svg11.dtd"><svg class="icon" width="200px" height="200.00px" viewBox="0 0 1024 1024" version="1.1" xmlns="http://www.w3.org/2000/svg"><path fill="#333333" d="M910.562874 727.632735c-8.175649-2.043912-16.351297-10.219561-24.526946-20.439122-6.131737-6.131737-10.219561-12.263473-16.351297-18.39521-2.043912-6.131737-8.175649-8.175649-14.307385-10.219561-14.307385-6.131737-28.61477 2.043912-34.746507 16.351298-6.131737 18.39521-14.307385 34.746507-22.483034 51.097804-10.219561 16.351297-18.39521 32.702595-28.614771 47.00998-2.043912 2.043912-2.043912 2.043912-2.043912 6.131737-6.131737 14.307385 2.043912 28.61477 16.351297 34.746507 18.39521 6.131737 34.746507 16.351297 44.966068 24.526946 6.131737 6.131737 10.219561 14.307385 10.219561 18.395209 0 14.307385-16.351297 26.570858-40.878243 38.834332-32.702595 14.307385-77.668663 24.526946-126.722555 24.526946-30.658683 0-57.229541-2.043912-81.756487-8.175649-24.526946-6.131737-44.966068-14.307385-61.317366-22.483034-8.175649-6.131737-18.39521-6.131737-28.61477 0-14.307385 10.219561-36.790419 18.39521-61.317365 22.483034-24.526946 6.131737-53.141717 8.175649-81.756487 8.175649-51.097804 0-96.063872-10.219561-126.722555-24.526946-24.526946-12.263473-40.878244-24.526946-40.878244-38.834332 0-6.131737 4.087824-12.263473 10.219561-18.395209 10.219561-10.219561 24.526946-18.39521 44.966068-24.526946 2.043912-2.043912 6.131737-2.043912 8.175649-4.087825 12.263473-8.175649 14.307385-24.526946 6.131736-36.790419-10.219561-14.307385-20.439122-30.658683-28.61477-47.00998-8.175649-16.351297-16.351297-32.702595-22.483034-51.097804-2.043912-4.087824-6.131737-8.175649-10.219561-12.263473-12.263473-10.219561-30.658683-8.175649-38.834331 4.087824-6.131737 8.175649-12.263473 16.351297-18.39521 22.483034-10.219561 10.219561-18.39521 16.351297-26.570858 20.439122-6.131737-6.131737-10.219561-26.570858-6.131737-53.141717 6.131737-34.746507 16.351297-75.62475 36.790419-114.459082 4.087824-10.219561 10.219561-18.39521 14.307386-24.526946 4.087824-8.175649 10.219561-16.351297 14.307385-22.483034 2.043912-4.087824 4.087824-10.219561 4.087824-14.307385 2.043912-116.502994 40.878244-220.742515 104.239521-294.323353 61.317365-73.580838 143.073852-118.546906 233.005988-118.546906s171.688623 44.966068 239.137725 120.590818c61.317365 75.62475 100.151697 177.820359 104.239521 294.323353 0 4.087824 2.043912 10.219561 4.087824 14.307385 4.087824 6.131737 8.175649 14.307385 14.307385 22.483034 4.087824 8.175649 8.175649 16.351297 14.307385 24.526946 18.39521 38.834331 28.61477 77.668663 32.702595 112.41517-2.043912 24.526946-4.087824 44.966068-12.263473 51.097805m40.878244-190.083833c-4.087824-10.219561-10.219561-20.439122-14.307385-28.61477-4.087824-6.131737-8.175649-14.307385-12.263474-20.439122-4.087824-134.898204-51.097804-253.44511-122.63473-341.333333C726.610778 55.185629 624.41517 0 509.956088 0c-114.459082 0-216.654691 55.185629-290.235529 147.161677h4.087824c-71.536926 87.888224-118.546906 208.479042-122.63473 341.333333-4.087824 6.131737-8.175649 12.263473-12.263473 20.439122-6.131737 8.175649-10.219561 18.39521-16.351298 30.658682-22.483034 47.00998-36.790419 96.063872-40.878243 136.942116-6.131737 47.00998 2.043912 85.844311 22.483034 106.283433 2.043912 2.043912 4.087824 2.043912 6.131736 4.087825 16.351297 12.263473 34.746507 14.307385 57.229541 6.131736 12.263473-6.131737 24.526946-14.307385 36.790419-26.570858 2.043912 6.131737 6.131737 12.263473 8.175649 16.351297 4.087824 10.219561 8.175649 18.39521 14.307385 26.570859-14.307385 8.175649-26.570858 16.351297-34.746507 26.570858-18.39521 18.39521-30.658683 40.878244-30.658682 63.361277 0 40.878244 28.61477 73.580838 77.668662 94.01996 40.878244 18.39521 96.063872 30.658683 159.42515 30.658683 34.746507 0 69.493014-4.087824 100.151697-12.263473 26.570858-6.131737 49.053892-12.263473 67.449101-22.483034 20.439122 10.219561 40.878244 16.351297 67.449102 22.483034 28.61477 6.131737 63.361277 12.263473 98.107785 12.263473 61.317365 0 116.502994-12.263473 159.425149-30.658683 47.00998-22.483034 77.668663-55.185629 77.668663-94.01996 0-22.483034-12.263473-44.966068-30.658683-63.361277-10.219561-10.219561-20.439122-18.39521-34.746507-26.570858 4.087824-8.175649 10.219561-18.39521 14.307386-26.570859 2.043912-4.087824 6.131737-10.219561 8.175648-16.351297 12.263473 12.263473 24.526946 20.439122 36.790419 26.570858 20.439122 6.131737 40.878244 6.131737 57.229541-6.131736 2.043912-2.043912 4.087824-2.043912 6.131737-4.087825 20.439122-20.439122 28.61477-59.273453 22.483034-106.283433-8.175649-40.878244-22.483034-89.932136-47.00998-138.986028" /></svg>