<?xml version="1.0" standalone="no"?><!DOCTYPE svg PUBLIC "-//W3C//DTD SVG 1.1//EN" "http://www.w3.org/Graphics/SVG/1.1/DTD/svg11.dtd"><svg class="icon" width="200px" height="200.00px" viewBox="0 0 1024 1024" version="1.1" xmlns="http://www.w3.org/2000/svg"><path fill="#333333" d="M998.451098 938.155689L777.708583 715.369261c63.361277-75.62475 102.195609-173.732535 102.195609-280.015968C879.904192 194.171657 685.732535 0 444.550898 0S9.197605 194.171657 9.197605 435.353293 205.413174 870.706587 444.550898 870.706587c98.107784 0 188.03992-32.702595 259.576847-85.844312l224.830339 224.83034c10.219561 10.219561 22.483034 14.307385 34.746507 14.307385 12.263473 0 24.526946-4.087824 34.746507-14.307385 20.439122-22.483034 20.439122-53.141717 0-71.536926zM109.349301 435.353293c0-185.996008 151.249501-335.201597 335.201597-335.201596s335.201597 151.249501 335.201597 335.201596-151.249501 335.201597-335.201597 335.201597S109.349301 621.349301 109.349301 435.353293z" /></svg>