<?xml version="1.0" standalone="no"?><!DOCTYPE svg PUBLIC "-//W3C//DTD SVG 1.1//EN" "http://www.w3.org/Graphics/SVG/1.1/DTD/svg11.dtd"><svg class="icon" width="200px" height="200.00px" viewBox="0 0 1024 1024" version="1.1" xmlns="http://www.w3.org/2000/svg"><path fill="#333333" d="M512 0C231.424 0 0 231.424 0 512s231.424 512 512 512 512-231.424 512-512S794.624 0 512 0z m0 948.224C272.384 948.224 77.824 753.664 77.824 512S272.384 77.824 512 77.824 948.224 272.384 948.224 512 753.664 948.224 512 948.224zM780.288 473.088H243.712c-20.48 0-38.912 18.432-38.912 38.912s18.432 38.912 38.912 38.912h538.624c20.48 0 38.912-18.432 38.912-38.912s-20.48-38.912-40.96-38.912z" /></svg>