<?xml version="1.0" standalone="no"?><!DOCTYPE svg PUBLIC "-//W3C//DTD SVG 1.1//EN" "http://www.w3.org/Graphics/SVG/1.1/DTD/svg11.dtd"><svg class="icon" width="200px" height="200.00px" viewBox="0 0 1024 1024" version="1.1" xmlns="http://www.w3.org/2000/svg"><path fill="#333333" d="M516.096 1024C233.472 1024 4.096 794.624 4.096 512s229.376-512 512-512c251.904 0 464.896 180.224 505.856 428.032 2.048 16.384-4.096 30.72-16.384 40.96-14.336 10.24-32.768 24.576-167.936-34.816-18.432-8.192-26.624-30.72-18.432-49.152 8.192-18.432 30.72-26.624 49.152-18.432 22.528 10.24 49.152 20.48 67.584 26.624C882.688 204.8 712.704 75.776 516.096 75.776 274.432 75.776 77.824 270.336 77.824 512s196.608 436.224 436.224 436.224c208.896 0 389.12-149.504 430.08-354.304 4.096-20.48 24.576-32.768 43.008-28.672 20.48 4.096 32.768 24.576 28.672 43.008C970.752 849.92 759.808 1024 516.096 1024z" /></svg>