<?xml version="1.0" standalone="no"?><!DOCTYPE svg PUBLIC "-//W3C//DTD SVG 1.1//EN" "http://www.w3.org/Graphics/SVG/1.1/DTD/svg11.dtd"><svg class="icon" width="200px" height="200.00px" viewBox="0 0 1024 1024" version="1.1" xmlns="http://www.w3.org/2000/svg"><path fill="#333333" d="M975.2576 69.2224H48.7424C21.9136 69.2224 0 91.136 0 117.9648v194.9696h1024V117.9648c0-26.8288-21.9136-48.7424-48.7424-48.7424zM265.8304 390.144H48.7424C21.9136 390.144 0 412.0576 0 438.8864v146.2272c0 26.8288 21.9136 48.7424 48.7424 48.7424h217.088c26.8288 0 48.7424-21.9136 48.7424-48.7424v-146.2272c0-26.8288-21.9136-48.7424-48.7424-48.7424zM620.9536 390.144h-217.088c-26.8288 0-48.7424 21.9136-48.7424 48.7424v146.2272c0 26.8288 21.9136 48.7424 48.7424 48.7424h217.088c26.8288 0 48.7424-21.9136 48.7424-48.7424v-146.2272c0-26.8288-21.9136-48.7424-48.7424-48.7424zM975.2576 390.144h-217.088c-26.8288 0-48.7424 21.9136-48.7424 48.7424v146.2272c0 26.8288 21.9136 48.7424 48.7424 48.7424h217.088c26.8288 0 48.7424-21.9136 48.7424-48.7424v-146.2272c0-26.8288-21.9136-48.7424-48.7424-48.7424zM265.8304 711.0656H48.7424C21.9136 711.0656 0 732.9792 0 759.808v146.2272c0 26.8288 21.9136 48.7424 48.7424 48.7424h217.088c26.8288 0 48.7424-21.9136 48.7424-48.7424V759.808c0-26.8288-21.9136-48.7424-48.7424-48.7424zM620.9536 711.0656h-217.088c-26.8288 0-48.7424 21.9136-48.7424 48.7424v146.2272c0 26.8288 21.9136 48.7424 48.7424 48.7424h217.088c26.8288 0 48.7424-21.9136 48.7424-48.7424V759.808c0-26.8288-21.9136-48.7424-48.7424-48.7424zM975.2576 711.0656h-217.088c-26.8288 0-48.7424 21.9136-48.7424 48.7424v146.2272c0 26.8288 21.9136 48.7424 48.7424 48.7424h217.088c26.8288 0 48.7424-21.9136 48.7424-48.7424V759.808c0-26.8288-21.9136-48.7424-48.7424-48.7424z" /></svg>