<?xml version="1.0" standalone="no"?><!DOCTYPE svg PUBLIC "-//W3C//DTD SVG 1.1//EN" "http://www.w3.org/Graphics/SVG/1.1/DTD/svg11.dtd"><svg class="icon" width="200px" height="200.00px" viewBox="0 0 1024 1024" version="1.1" xmlns="http://www.w3.org/2000/svg"><path fill="#333333" d="M796.2624 283.4432c-7.7824 13.5168-3.2768 30.9248 10.4448 38.912l143.5648 82.944c7.3728 4.3008 15.5648 6.5536 23.7568 6.5536 8.192 0 16.384-2.2528 23.7568-6.5536 14.9504-8.6016 23.7568-23.9616 23.7568-41.3696V204.5952c0-15.7696-12.6976-28.4672-28.4672-28.4672-15.7696 0-28.4672 12.6976-28.4672 28.4672v64.3072C876.3392 105.472 703.6928 0 514.2528 0c-282.2144 0-512 229.7856-512 512s229.7856 512 512 512c231.8336 0 435.2-156.2624 494.7968-379.904 5.3248-20.2752-6.5536-40.96-26.8288-46.4896-20.2752-5.3248-40.96 6.5536-46.4896 26.8288-50.7904 190.464-224.0512 323.584-421.4784 323.584-240.4352 0-436.224-195.584-436.224-436.224s195.584-436.224 436.224-436.224c163.84 0 312.7296 92.5696 387.072 235.3152l-66.1504-38.0928c-13.5168-7.5776-30.9248-2.8672-38.912 10.6496z" /></svg>