<?xml version="1.0" standalone="no"?><!DOCTYPE svg PUBLIC "-//W3C//DTD SVG 1.1//EN" "http://www.w3.org/Graphics/SVG/1.1/DTD/svg11.dtd"><svg class="icon" width="200px" height="200.00px" viewBox="0 0 1024 1024" version="1.1" xmlns="http://www.w3.org/2000/svg"><path fill="#333333" d="M512 0C229.376 0 0 229.376 0 512s229.376 512 512 512 512-229.376 512-512S794.624 0 512 0z m0 952.32C268.288 952.32 71.68 755.712 71.68 512S268.288 71.68 512 71.68 952.32 268.288 952.32 512 755.712 952.32 512 952.32zM702.464 339.968L440.32 602.112l-116.736-116.736c-14.336-14.336-38.912-14.336-55.296 0-14.336 14.336-14.336 38.912 0 55.296l145.408 145.408c8.192 8.192 16.384 10.24 26.624 10.24s20.48-4.096 26.624-10.24l288.768-288.768c14.336-14.336 14.336-38.912 0-55.296-14.336-16.384-38.912-16.384-53.248-2.048z" /></svg>