<?xml version="1.0" standalone="no"?><!DOCTYPE svg PUBLIC "-//W3C//DTD SVG 1.1//EN" "http://www.w3.org/Graphics/SVG/1.1/DTD/svg11.dtd"><svg class="icon" width="200px" height="200.00px" viewBox="0 0 1024 1024" version="1.1" xmlns="http://www.w3.org/2000/svg"><path fill="#333333" d="M925.377286 141.992028H900.82022s-94.135422-2.046422-192.363688-38.882022c-98.228266-38.882022-163.713777-83.903311-163.713777-85.949733L532.464222 8.974585c-12.278533-12.278533-24.557067-10.232111-36.8356-4.092845l-14.324955 10.232111s-67.531933 45.021289-165.760199 85.949733C217.315202 137.899184 123.17978 139.945606 123.17978 139.945606H96.576292c-14.324955 4.092844-26.603489 16.371378-26.603489 30.696333v405.191597C69.972803 794.800713 358.518334 1024 512 1024s442.027197-229.199287 442.027197-448.166464V170.641939c0-16.371378-12.278533-28.649911-28.649911-28.649911zM880.355998 217.70965v360.170309c-2.046422 77.764044-53.206977 169.853043-139.156711 249.663509-90.042577 83.903311-180.085154 120.73891-227.152865 120.73891-118.692488 0-366.309575-208.735065-366.309575-370.402419V217.70965c32.742755-2.046422 110.506799-12.278533 196.456532-47.067711C424.003845 139.945606 485.396511 103.110006 512 86.738629c26.603489 16.371378 87.996155 53.206977 171.899466 85.949732 57.299822 22.510644 122.785333 36.8356 196.456532 45.021289zM638.878177 373.237738l-186.224421 186.224421-69.578355-69.578355c-8.185689-8.185689-20.464222-12.278533-30.696333-12.278534-12.278533 0-22.510644 4.092844-32.742756 14.324956-14.324955 18.4178-14.324955 42.974866 0 61.392666l100.274689 100.274688c8.185689 8.185689 20.464222 12.278533 30.696333 12.278534 12.278533 0 22.510644-4.092844 30.696333-12.278534l216.920754-216.920754c14.324955-18.4178 14.324955-47.067711 0-61.392666-8.185689-8.185689-20.464222-12.278533-30.696333-12.278533-8.185689-4.092844-20.464222 0-28.649911 10.232111z" /></svg>