<?xml version="1.0" standalone="no"?><!DOCTYPE svg PUBLIC "-//W3C//DTD SVG 1.1//EN" "http://www.w3.org/Graphics/SVG/1.1/DTD/svg11.dtd"><svg class="icon" width="200px" height="200.00px" viewBox="0 0 1024 1024" version="1.1" xmlns="http://www.w3.org/2000/svg"><path fill="#333333" d="M925.858007 142.017597h-24.163901c-1.023894 0-93.993481-1.843009-193.106433-39.522313C610.498615 63.177749 544.559833 17.71685 543.945497 17.307292L531.24921 8.297024c-11.672393-11.672393-24.983017-9.419826-37.064968-3.071683l-13.92496 10.034163c-0.614336 0.409558-66.553118 46.075236-166.689964 85.187991C217.937606 137.512463 122.920231 139.969809 122.305894 139.969809l-26.211689 0.204779c-15.153633 3.071682-26.006911 15.76797-26.006911 29.897708v405.871633C70.087294 793.623821 357.391986 1024 512 1024s441.912706-230.376179 441.912706-448.056071V170.072296c0-15.358412-12.491508-28.054699-28.054699-28.054699zM702.444308 433.827424L484.969195 651.302537c-8.395932 8.395932-19.24921 12.901066-31.126382 12.901066-10.853278 0-23.344786-5.119471-31.126381-12.901066l-100.546404-100.546404c-15.76797-18.225316-15.76797-44.027448-0.614336-61.843205 9.010268-9.010268 19.863546-13.515403 31.740718-13.515403 10.853278 0 23.344786 5.119471 31.126381 12.901067l69.215244 69.215243 185.734395-185.734395c8.395932-8.395932 19.24921-12.901066 31.126381-12.901066 10.853278 0 23.344786 5.119471 31.126382 12.901066 15.972748 15.76797 16.177527 44.232226 0.819115 62.047984z" /></svg>