<?xml version="1.0" standalone="no"?><!DOCTYPE svg PUBLIC "-//W3C//DTD SVG 1.1//EN" "http://www.w3.org/Graphics/SVG/1.1/DTD/svg11.dtd"><svg class="icon" width="200px" height="199.61px" viewBox="0 0 1026 1024" version="1.1" xmlns="http://www.w3.org/2000/svg"><path fill="#333333" d="M1011.712 169.984L854.016 12.288c-6.144-8.192-16.384-12.288-26.624-12.288H118.784C53.248 0 0 53.248 0 118.784v788.48C0 970.752 53.248 1024 118.784 1024h788.48c65.536 0 118.784-53.248 118.784-118.784V196.608c-2.048-10.24-6.144-20.48-14.336-26.624zM333.824 77.824h354.304v210.944c0 14.336-12.288 24.576-24.576 26.624H360.448c-14.336 0-24.576-12.288-24.576-26.624V77.824z m413.696 868.352h-471.04V673.792c0-24.576 18.432-43.008 43.008-43.008h385.024c24.576 0 43.008 18.432 43.008 43.008v272.384z m157.696 0h-75.776V673.792c0-67.584-55.296-120.832-122.88-122.88H319.488c-67.584 0-120.832 55.296-122.88 122.88v272.384H118.784c-22.528 0-38.912-18.432-38.912-38.912V118.784c0-22.528 18.432-38.912 38.912-38.912h137.216v210.944c0 57.344 47.104 104.448 104.448 104.448h303.104c57.344 0 104.448-47.104 104.448-104.448V77.824h43.008l133.12 133.12v692.224c0 24.576-16.384 40.96-38.912 43.008z" /></svg>