<?xml version="1.0" standalone="no"?><!DOCTYPE svg PUBLIC "-//W3C//DTD SVG 1.1//EN" "http://www.w3.org/Graphics/SVG/1.1/DTD/svg11.dtd"><svg class="icon" width="200px" height="200.00px" viewBox="0 0 1024 1024" version="1.1" xmlns="http://www.w3.org/2000/svg"><path fill="#333333" d="M38.5024 343.2448c21.2992 0 38.2976-17.2032 38.2976-38.2976V106.496c0-14.1312 11.4688-25.6 25.6-25.6h166.2976c21.2992 0 38.2976-17.2032 38.2976-38.5024S289.792 4.096 268.6976 4.096H102.4c-56.32 0-102.4 46.08-102.4 102.4v198.4512c0 21.0944 17.2032 38.2976 38.5024 38.2976zM921.6 4.096h-166.2976a38.42048 38.42048 0 1 0 0 76.8H921.6c14.1312 0 25.6 11.4688 25.6 25.6v198.4512c0 21.2992 17.2032 38.2976 38.2976 38.2976 21.2992 0 38.2976-17.2032 38.2976-38.2976V106.496C1024 50.176 977.92 4.096 921.6 4.096zM268.9024 943.104H102.4c-14.1312 0-25.6-11.4688-25.6-25.6v-126.3616c0-21.2992-17.2032-38.2976-38.2976-38.2976S0 770.048 0 791.1424v126.3616c0 56.32 46.08 102.4 102.4 102.4h166.2976c21.2992 0 38.2976-17.2032 38.2976-38.5024 0.2048-21.0944-16.9984-38.2976-38.0928-38.2976zM985.7024 752.8448c-21.2992 0-38.2976 17.2032-38.2976 38.2976v126.3616c0 14.1312-11.4688 25.6-25.6 25.6h-166.2976a38.42048 38.42048 0 1 0 0 76.8H921.6c56.32 0 102.4-46.08 102.4-102.4v-126.3616c0-21.0944-17.2032-38.2976-38.2976-38.2976zM115.3024 516.096c0 21.2992 17.2032 38.2976 38.2976 38.2976h716.8c21.2992 0 38.2976-17.2032 38.2976-38.2976 0-21.2992-17.2032-38.2976-38.2976-38.2976h-716.8c-21.2992-0.2048-38.2976 16.9984-38.2976 38.2976z" /></svg>