<?xml version="1.0" standalone="no"?><!DOCTYPE svg PUBLIC "-//W3C//DTD SVG 1.1//EN" "http://www.w3.org/Graphics/SVG/1.1/DTD/svg11.dtd"><svg class="icon" width="200px" height="200.00px" viewBox="0 0 1024 1024" version="1.1" xmlns="http://www.w3.org/2000/svg"><path fill="#333333" d="M957.6448 195.3792c24.9856-27.8528 31.5392-65.536 16.384-99.328A91.7504 91.7504 0 0 0 889.4464 40.96H133.3248C96.6656 40.96 64.1024 61.6448 49.5616 96.0512s-8.3968 73.1136 17.408 99.328l3.6864 3.6864L351.0272 423.936c4.7104 3.2768 7.5776 9.0112 7.5776 14.5408v385.2288c0 33.9968 18.432 64.9216 48.128 81.1008l121.0368 67.3792c13.7216 6.9632 28.672 10.8544 44.2368 10.8544 50.7904 0 92.3648-40.96 91.7504-92.3648V440.9344c0-5.7344 2.4576-10.8544 6.5536-14.5408L953.9584 199.2704l3.6864-3.8912z"  /><path fill="#333333" d="M945.5616 447.0784H737.6896c-20.2752 0-36.6592 16.384-36.6592 36.6592s16.384 36.6592 36.6592 36.6592h207.6672c20.2752 0 36.6592-16.5888 36.6592-36.6592 0.2048-20.2752-16.384-36.6592-36.4544-36.6592zM945.5616 722.1248H737.6896c-20.2752 0-36.6592 16.5888-36.6592 36.6592 0 20.2752 16.384 36.6592 36.6592 36.6592h207.6672c20.2752 0 36.6592-16.384 36.6592-36.6592 0.2048-20.2752-16.384-36.6592-36.4544-36.6592zM945.5616 584.9088H737.6896c-20.2752 0-36.6592 16.5888-36.6592 36.6592 0 20.2752 16.384 36.6592 36.6592 36.6592h207.6672c20.2752 0 36.6592-16.5888 36.6592-36.6592 0.2048-20.0704-16.384-36.6592-36.4544-36.6592z"  /></svg>