<?xml version="1.0" standalone="no"?><!DOCTYPE svg PUBLIC "-//W3C//DTD SVG 1.1//EN" "http://www.w3.org/Graphics/SVG/1.1/DTD/svg11.dtd"><svg class="icon" width="200px" height="200.00px" viewBox="0 0 1024 1024" version="1.1" xmlns="http://www.w3.org/2000/svg"><path fill="#333333" d="M995.38523 167.600798c26.570858-30.658683 34.746507-71.536926 18.395209-108.327345C995.38523 22.483034 960.638723 0 919.760479 0H100.151697C61.317365 0 24.526946 22.483034 10.219561 59.273453c-16.351297 36.790419-10.219561 79.712575 18.395209 108.327345l4.087825 4.087825 304.542914 243.225549c4.087824 4.087824 8.175649 10.219561 8.175649 16.351297v419.001996c0 36.790419 20.439122 69.493014 51.097804 87.888224l130.810379 73.580838c14.307385 8.175649 30.658683 12.263473 47.00998 12.263473 55.185629 0 100.151697-44.966068 100.151697-100.151697v-490.538922c0-6.131737 2.043912-12.263473 8.175649-16.351297l306.586826-245.269461 6.131737-4.087825z m-59.273454-55.185628L633.612774 355.640719c-24.526946 18.39521-36.790419 47.00998-36.790419 77.668662V919.760479c0 6.131737-4.087824 14.307385-10.219561 18.39521-6.131737 4.087824-14.307385 4.087824-20.439121 0l-130.81038-71.536927c-6.131737-4.087824-10.219561-10.219561-10.21956-18.395209V431.265469c0-30.658683-14.307385-59.273453-36.79042-77.668663L83.800399 112.41517c-4.087824-6.131737-4.087824-14.307385-2.043912-20.439122 4.087824-8.175649 10.219561-12.263473 18.39521-12.263473H919.760479c8.175649 0 14.307385 4.087824 18.39521 12.263473 4.087824 6.131737 4.087824 14.307385-2.043913 20.439122zM981.077844 439.441118H756.247505c-22.483034 0-38.834331 18.39521-38.834331 38.834331s18.39521 40.878244 38.834331 40.878244h224.830339c22.483034 0 40.878244-18.39521 40.878244-40.878244s-18.39521-38.834331-40.878244-38.834331zM981.077844 737.852295H756.247505c-22.483034 0-38.834331 18.39521-38.834331 40.878244S735.808383 817.56487 756.247505 817.56487h224.830339c22.483034 0 40.878244-18.39521 40.878244-38.834331 0-22.483034-18.39521-40.878244-40.878244-40.878244zM981.077844 590.690619H756.247505c-22.483034 0-38.834331 18.39521-38.834331 40.878243s18.39521 38.834331 38.834331 38.834332h224.830339c22.483034 0 40.878244-18.39521 40.878244-38.834332 0-24.526946-18.39521-40.878244-40.878244-40.878243z" /></svg>