<?xml version="1.0" standalone="no"?><!DOCTYPE svg PUBLIC "-//W3C//DTD SVG 1.1//EN" "http://www.w3.org/Graphics/SVG/1.1/DTD/svg11.dtd"><svg class="icon" width="200px" height="200.00px" viewBox="0 0 1024 1024" version="1.1" xmlns="http://www.w3.org/2000/svg"><path fill="#333333" d="M512 0C229.7856 0 0 229.7856 0 512c0 282.4192 229.7856 512 512 512 282.4192 0 512-229.5808 512-512C1024 229.7856 794.4192 0 512 0z m244.3264 394.24L466.7392 684.032c-7.168 7.168-16.9984 11.264-27.2384 11.264s-19.8656-4.096-27.2384-11.264l-144.7936-144.7936c-14.9504-14.9504-14.9504-39.3216 0-54.272s39.3216-14.9504 54.272 0l117.76 117.76L702.0544 339.968c14.9504-14.9504 39.3216-14.9504 54.272 0 14.9504 15.1552 14.9504 39.3216 0 54.272z" /></svg>