<?xml version="1.0" standalone="no"?><!DOCTYPE svg PUBLIC "-//W3C//DTD SVG 1.1//EN" "http://www.w3.org/Graphics/SVG/1.1/DTD/svg11.dtd"><svg class="icon" width="200px" height="200.00px" viewBox="0 0 1024 1024" version="1.1" xmlns="http://www.w3.org/2000/svg"><path fill="#333333" d="M1024 118.784c0-34.816-28.672-63.488-65.536-63.488-14.336 0-26.624 8.192-38.912 14.336C770.048 145.408 36.864 507.904 36.864 507.904c-20.48 8.192-36.864 26.624-36.864 49.152 0 24.576 16.384 43.008 38.912 51.2L307.2 696.32c4.096 2.048 8.192 2.048 12.288 2.048 24.576 0 43.008-18.432 43.008-40.96 0-16.384-10.24-30.72-22.528-36.864-49.152-20.48-204.8-67.584-204.8-67.584L835.584 202.752l-409.6 446.464c-12.288 10.24-22.528 26.624-22.528 45.056 0 4.096 2.048 45.056 2.048 45.056v190.464c0 22.528 18.432 40.96 43.008 40.96 24.576 0 43.008-18.432 43.008-40.96v-167.936l305.152 102.4c8.192 4.096 16.384 6.144 24.576 6.144 28.672 0 53.248-22.528 53.248-51.2L1024 129.024v-10.24z m-227.328 655.36l-282.624-96.256 397.312-434.176-114.688 530.432z m0 0" /></svg>