<?xml version="1.0" standalone="no"?><!DOCTYPE svg PUBLIC "-//W3C//DTD SVG 1.1//EN" "http://www.w3.org/Graphics/SVG/1.1/DTD/svg11.dtd"><svg class="icon" width="200px" height="200.00px" viewBox="0 0 1024 1024" version="1.1" xmlns="http://www.w3.org/2000/svg"><path fill="#333333" d="M1011.712 763.904l-120.832-120.832L1003.52 135.168v-10.24C1003.52 90.112 974.848 61.44 937.984 61.44c-14.336 0-26.624 8.192-38.912 14.336-59.392 32.768-217.088 112.64-380.928 194.56l-163.84-163.84c-16.384-16.384-40.96-16.384-57.344 0-16.384 16.384-16.384 40.96 0 57.344l145.408 145.408c-208.896 104.448-405.504 200.704-405.504 200.704-20.48 8.192-34.816 26.624-34.816 49.152 0 22.528 16.384 43.008 38.912 49.152l262.144 86.016c4.096 2.048 8.192 2.048 12.288 2.048 22.528 0 40.96-18.432 40.96-40.96 0-16.384-8.192-30.72-22.528-36.864-49.152-20.48-198.656-67.584-198.656-67.584l368.64-184.32 90.112 90.112-172.032 188.416c-12.288 10.24-20.48 26.624-20.48 43.008 0 4.096 2.048 45.056 2.048 45.056v186.368c0 22.528 18.432 40.96 40.96 40.96s40.96-18.432 40.96-40.96v-165.888l296.96 100.352c8.192 4.096 16.384 6.144 24.576 6.144 28.672 0 51.2-22.528 51.2-51.2l16.384-71.68 83.968 83.968c8.192 8.192 18.432 12.288 28.672 12.288s20.48-4.096 28.672-12.288c12.288-16.384 12.288-40.96-4.096-57.344zM821.248 573.44l-118.784-118.784 188.416-206.848L821.248 573.44zM577.536 329.728L819.2 208.896l-174.08 190.464-67.584-69.632z m202.752 438.272l-276.48-94.208 145.408-159.744 151.552 151.552-20.48 102.4z" /></svg>