<?xml version="1.0" standalone="no"?><!DOCTYPE svg PUBLIC "-//W3C//DTD SVG 1.1//EN" "http://www.w3.org/Graphics/SVG/1.1/DTD/svg11.dtd"><svg class="icon" width="200px" height="200.00px" viewBox="0 0 1024 1024" version="1.1" xmlns="http://www.w3.org/2000/svg"><path fill="#333333" d="M935.936 378.88h-22.528c-6.144-18.432-14.336-36.864-22.528-55.296l16.384-16.384c34.816-34.816 34.816-92.16 0-124.928l-63.488-63.488c-16.384-16.384-40.96-26.624-63.488-26.624s-45.056 8.192-63.488 26.624l-16.384 16.384c-18.432-8.192-36.864-16.384-55.296-22.528V88.064c0-49.152-40.96-88.064-88.064-88.064h-88.064c-49.152 0-88.064 40.96-88.064 88.064v22.528c-18.432 6.144-36.864 14.336-55.296 22.528l-18.432-14.336c-16.384-16.384-40.96-26.624-63.488-26.624s-45.056 8.192-61.44 26.624L118.784 182.272c-34.816 34.816-34.816 92.16 0 124.928l16.384 16.384c-8.192 18.432-16.384 36.864-22.528 55.296H88.064c-49.152 0-88.064 40.96-88.064 88.064v88.064c0 49.152 40.96 88.064 88.064 88.064h22.528c6.144 18.432 14.336 36.864 22.528 55.296l-14.336 18.432c-34.816 34.816-34.816 92.16 0 124.928l63.488 63.488c16.384 16.384 40.96 26.624 63.488 26.624s45.056-8.192 63.488-26.624l16.384-16.384c18.432 8.192 36.864 16.384 55.296 22.528v22.528c0 49.152 40.96 88.064 88.064 88.064h88.064c49.152 0 88.064-40.96 88.064-88.064v-22.528c18.432-6.144 36.864-14.336 55.296-22.528l16.384 16.384c16.384 16.384 40.96 26.624 63.488 26.624s45.056-8.192 63.488-26.624l63.488-63.488c34.816-34.816 34.816-92.16 0-124.928l-16.384-16.384c8.192-18.432 16.384-36.864 22.528-55.296h22.528c49.152 0 88.064-40.96 88.064-88.064v-88.064c0-51.2-40.96-90.112-88.064-90.112z m8.192 178.176c0 4.096-4.096 8.192-8.192 8.192h-22.528c-34.816 0-65.536 22.528-75.776 55.296-4.096 14.336-10.24 30.72-18.432 45.056-16.384 30.72-10.24 69.632 14.336 94.208l16.384 16.384c2.048 2.048 2.048 8.192 0 12.288l-63.488 63.488c-2.048 2.048-4.096 2.048-6.144 2.048s-4.096 0-6.144-2.048l-16.384-18.432c-16.384-16.384-36.864-24.576-57.344-24.576-12.288 0-24.576 2.048-36.864 8.192-14.336 8.192-30.72 14.336-45.056 18.432-32.768 10.24-55.296 40.96-55.296 75.776v22.528c0 4.096-4.096 8.192-8.192 8.192h-88.064c-4.096 0-8.192-4.096-8.192-8.192v-22.528c0-34.816-22.528-65.536-55.296-75.776-14.336-4.096-30.72-10.24-45.056-18.432-12.288-6.144-24.576-8.192-36.864-8.192-20.48 0-40.96 8.192-57.344 24.576l-16.384 16.384c-2.048 2.048-4.096 2.048-6.144 2.048-2.048 0-4.096 0-6.144-2.048l-63.488-63.488c-2.048-2.048-2.048-8.192 0-12.288l18.432-16.384c24.576-24.576 30.72-61.44 14.336-94.208-8.192-14.336-14.336-30.72-18.432-45.056-10.24-32.768-40.96-55.296-75.776-55.296H88.064c-4.096 0-8.192-4.096-8.192-8.192v-88.064c0-4.096 4.096-8.192 8.192-8.192h22.528c34.816 0 65.536-22.528 75.776-55.296 4.096-14.336 10.24-30.72 18.432-45.056 16.384-30.72 10.24-69.632-14.336-94.208l-16.384-16.384c-2.048-2.048-2.048-8.192 0-12.288l63.488-63.488c2.048-2.048 4.096-2.048 6.144-2.048 2.048 0 4.096 0 6.144 2.048l16.384 18.432c16.384 16.384 36.864 24.576 57.344 24.576 12.288 0 24.576-2.048 36.864-8.192 14.336-8.192 30.72-14.336 45.056-18.432 32.768-10.24 55.296-40.96 55.296-75.776V88.064c0-4.096 4.096-8.192 8.192-8.192h88.064c4.096 0 8.192 4.096 8.192 8.192v22.528c0 34.816 22.528 65.536 55.296 75.776 14.336 4.096 30.72 10.24 45.056 18.432 12.288 6.144 24.576 8.192 36.864 8.192 20.48 0 40.96-8.192 57.344-24.576l16.384-16.384c2.048-2.048 4.096-2.048 6.144-2.048s4.096 0 6.144 2.048l63.488 63.488c2.048 2.048 2.048 8.192 0 12.288l-18.432 18.432c-24.576 24.576-30.72 61.44-14.336 94.208 8.192 14.336 14.336 30.72 18.432 45.056 10.24 32.768 40.96 55.296 75.776 55.296h22.528c4.096 0 8.192 4.096 8.192 8.192v88.064zM512 333.824c-98.304 0-178.176 79.872-178.176 178.176 0 98.304 79.872 178.176 178.176 178.176s178.176-79.872 178.176-178.176c0-98.304-79.872-178.176-178.176-178.176z m0 274.432c-53.248 0-96.256-43.008-96.256-96.256s43.008-96.256 96.256-96.256 96.256 43.008 96.256 96.256-43.008 96.256-96.256 96.256z" /></svg>