<?xml version="1.0" standalone="no"?><!DOCTYPE svg PUBLIC "-//W3C//DTD SVG 1.1//EN" "http://www.w3.org/Graphics/SVG/1.1/DTD/svg11.dtd"><svg class="icon" width="200px" height="200.00px" viewBox="0 0 1024 1024" version="1.1" xmlns="http://www.w3.org/2000/svg"><path fill="#333333" d="M934.827045 378.394721h-21.909218c-6.34753-19.247351-14.128374-37.675665-23.137772-55.489702l15.561687-15.561688a89.356849 89.356849 0 0 0 0-125.926814l-62.861027-62.861028c-17.404519-17.404519-40.132773-26.004399-62.861028-26.004399s-45.661268 8.59988-62.861028 26.004399l-15.561688 15.561688c-17.814037-9.009398-36.242352-16.790242-55.489702-23.137773V89.070186c0-48.937413-40.132773-89.070186-89.070186-89.070186h-89.070186c-48.937413 0-89.070186 40.132773-89.070186 89.070186v21.909218c-19.247351 6.34753-37.675665 14.128374-55.489702 23.137773l-15.561687-15.561688c-17.404519-17.404519-40.132773-26.004399-62.861028-26.004399s-45.866027 8.59988-63.065787 26.004399L118.657479 181.416517a89.356849 89.356849 0 0 0 0 125.926814l15.561688 15.561688c-9.009398 17.814037-16.790242 36.242352-23.137772 55.489702H89.172176A89.274945 89.274945 0 0 0 0.10199 467.464907v89.070186c0 48.937413 40.132773 89.070186 89.070186 89.070186h21.909219c6.34753 19.247351 14.128374 37.675665 23.137772 55.489702l-15.561688 15.561688a89.356849 89.356849 0 0 0 0 125.926814l62.861028 62.861028c17.404519 17.404519 40.132773 26.004399 62.861028 26.004399s45.661268-8.59988 62.861028-26.004399l15.561687-15.561688c17.814037 9.009398 36.242352 16.790242 55.489702 23.137773v21.909218c0 48.937413 40.132773 89.070186 89.070186 89.070186h89.070186c48.937413 0 89.070186-40.132773 89.070186-89.070186v-21.909218c19.247351-6.34753 37.675665-14.128374 55.489702-23.137773l15.561688 15.561688c17.404519 17.404519 40.132773 26.004399 62.861028 26.004399s45.661268-8.59988 62.861028-26.004399l62.861027-62.861028a89.356849 89.356849 0 0 0 0-125.926814l-15.561687-15.561688c9.009398-17.814037 16.790242-36.242352 23.137772-55.489702h21.909218c48.937413 0 89.070186-40.132773 89.070186-89.070186v-89.070186c0.204759-49.142172-39.928014-89.070186-88.865427-89.070186zM511.999611 690.037992a178.140372 178.140372 0 0 1-178.140372-178.140372c0-98.284343 79.65127-178.140372 178.140372-178.140371s178.140372 79.65127 178.140372 178.140371c0 98.284343-79.856029 178.140372-178.140372 178.140372z" /></svg>