<?xml version="1.0" standalone="no"?><!DOCTYPE svg PUBLIC "-//W3C//DTD SVG 1.1//EN" "http://www.w3.org/Graphics/SVG/1.1/DTD/svg11.dtd"><svg class="icon" width="200px" height="199.61px" viewBox="0 0 1026 1024" version="1.1" xmlns="http://www.w3.org/2000/svg"><path fill="#333333" d="M860.16 653.312c-53.248 0-100.352 24.576-131.072 65.536l-403.456-176.128c4.096-14.336 6.144-28.672 6.144-43.008 0-12.288-2.048-26.624-4.096-38.912l397.312-159.744c30.72 40.96 79.872 69.632 135.168 69.632 92.16 0 165.888-73.728 165.888-165.888s-73.728-165.888-165.888-165.888-165.888 73.728-165.888 165.888c0 8.192 0 16.384 2.048 22.528L290.816 389.12c-30.72-34.816-75.776-57.344-124.928-57.344-92.16 0-165.888 73.728-165.888 165.888s73.728 165.888 165.888 165.888c47.104 0 92.16-20.48 120.832-53.248l409.6 180.224c-2.048 10.24-2.048 18.432-2.048 28.672 0 92.16 73.728 165.888 165.888 165.888S1026.048 911.36 1026.048 819.2s-73.728-165.888-165.888-165.888z m0-534.528c47.104 0 86.016 38.912 86.016 86.016s-38.912 86.016-86.016 86.016c-22.528 0-40.96-8.192-57.344-20.48-18.432-16.384-30.72-38.912-30.72-65.536v-8.192c6.144-43.008 43.008-77.824 88.064-77.824zM167.936 585.728c-47.104 0-86.016-38.912-86.016-86.016s38.912-86.016 86.016-86.016c14.336 0 28.672 4.096 43.008 10.24 24.576 14.336 40.96 38.912 45.056 67.584v18.432c-4.096 28.672-20.48 53.248-45.056 65.536-14.336 6.144-28.672 10.24-43.008 10.24z m692.224 319.488c-45.056 0-83.968-36.864-86.016-81.92V819.2c0-26.624 12.288-51.2 32.768-67.584 14.336-12.288 34.816-20.48 55.296-20.48 47.104 0 86.016 38.912 86.016 86.016 0 49.152-38.912 88.064-88.064 88.064z" /></svg>