<?xml version="1.0" standalone="no"?><!DOCTYPE svg PUBLIC "-//W3C//DTD SVG 1.1//EN" "http://www.w3.org/Graphics/SVG/1.1/DTD/svg11.dtd"><svg class="icon" width="200px" height="200.00px" viewBox="0 0 1024 1024" version="1.1" xmlns="http://www.w3.org/2000/svg"><path fill="#333333" d="M379.904 777.8304a113.8688 113.8688 0 0 0 0 227.7376 113.8688 113.8688 0 0 0 113.8688-113.8688c0-62.6688-50.9952-113.8688-113.8688-113.8688z m0 151.9616a38.0928 38.0928 0 0 1-38.0928-37.888c0-20.8896 16.9984-38.0928 38.0928-38.0928 20.8896 0 38.0928 16.9984 38.0928 38.0928a38.23616 38.23616 0 0 1-38.0928 37.888z m493.7728-151.9616a113.8688 113.8688 0 0 0 0 227.7376 113.8688 113.8688 0 0 0 113.8688-113.8688c0.2048-62.6688-50.7904-113.8688-113.8688-113.8688z m0 151.9616a38.0928 38.0928 0 0 1-38.0928-37.888c0-20.8896 16.9984-38.0928 38.0928-38.0928 20.8896 0 37.888 16.9984 37.888 38.0928a37.6832 37.6832 0 0 1-37.888 37.888z m128.2048-758.3744c-32.9728-40.7552-87.4496-39.936-99.9424-39.3216H225.0752l-7.168-44.032c-0.2048-1.024-0.4096-2.048-0.6144-3.2768C211.1488 60.0064 188.416 18.0224 142.5408 18.0224h-104.448A38.2976 38.2976 0 0 0 0 56.1152C0 77.2096 16.9984 94.208 38.0928 94.208H139.264c1.4336 1.8432 3.072 5.3248 4.096 8.3968l85.1968 529.408c0.2048 1.024 0.4096 2.048 0.6144 3.2768 2.048 7.9872 13.312 49.5616 38.5024 74.5472 29.2864 29.2864 69.8368 30.1056 74.3424 30.1056h607.8464c20.8896 0 38.0928-16.9984 38.0928-37.888s-16.9984-38.0928-38.0928-38.0928H342.2208c-3.6864-0.2048-14.9504-1.8432-21.0944-7.7824-7.3728-7.3728-14.9504-26.624-18.2272-37.888l-4.9152-30.1056H903.168c17.2032 0 32.3584-11.6736 36.6592-28.2624 0.4096-1.4336 37.888-143.1552 74.752-264.6016 15.9744-52.224 11.6736-93.7984-12.6976-123.904z m-60.0064 101.5808c-27.4432 89.9072-54.8864 190.8736-67.7888 239.0016H286.1056l-48.7424-303.9232H903.168c1.024 0 2.048 0 3.2768-0.2048 4.3008-0.4096 27.4432 0.2048 36.4544 11.264 7.168 8.8064 6.7584 28.4672-1.024 53.8624z m0 0" /></svg>