<?xml version="1.0" standalone="no"?><!DOCTYPE svg PUBLIC "-//W3C//DTD SVG 1.1//EN" "http://www.w3.org/Graphics/SVG/1.1/DTD/svg11.dtd"><svg class="icon" width="200px" height="200.00px" viewBox="0 0 1024 1024" version="1.1" xmlns="http://www.w3.org/2000/svg"><path fill="#333333" d="M700.416 94.208c-10.24-4.096-22.528-4.096-32.768 0s-18.432 12.288-22.528 22.528-4.096 22.528 0 32.768 12.288 18.432 22.528 22.528c147.456 63.488 243.712 206.848 243.712 366.592 0 219.136-178.176 399.36-399.36 399.36S112.64 759.808 112.64 540.672c0-159.744 96.256-305.152 243.712-366.592 10.24-4.096 18.432-12.288 22.528-22.528 4.096-10.24 4.096-22.528 0-32.768s-12.288-18.432-22.528-22.528c-10.24-4.096-22.528-4.096-32.768 0C143.36 169.984 28.672 344.064 28.672 540.672 28.672 806.912 245.76 1024 512 1024s483.328-217.088 483.328-483.328c0-196.608-114.688-370.688-294.912-446.464zM526.336 579.584c24.576 0 43.008-18.432 43.008-43.008V43.008c0-24.576-18.432-43.008-43.008-43.008-24.576 0-43.008 18.432-43.008 43.008v493.568c0 24.576 18.432 43.008 43.008 43.008z" /></svg>