<?xml version="1.0" standalone="no"?><!DOCTYPE svg PUBLIC "-//W3C//DTD SVG 1.1//EN" "http://www.w3.org/Graphics/SVG/1.1/DTD/svg11.dtd"><svg class="icon" width="200px" height="200.00px" viewBox="0 0 1024 1024" version="1.1" xmlns="http://www.w3.org/2000/svg"><path fill="#333333" d="M223.232 432.128h-143.36C34.816 432.128 0 468.992 0 512v397.312c0 45.056 36.864 79.872 79.872 79.872h143.36c45.056 0 79.872-36.864 79.872-79.872V514.048c0-45.056-36.864-81.92-79.872-81.92z m-6.144 473.088H86.016V518.144h133.12v387.072zM935.936 208.896h-126.976c-49.152 0-88.064 38.912-88.064 88.064v606.208c0 49.152 38.912 88.064 88.064 88.064h126.976c49.152 0 88.064-38.912 88.064-88.064V296.96c0-49.152-38.912-88.064-88.064-88.064z m2.048 694.272c0 2.048-2.048 4.096-4.096 4.096h-126.976c-2.048 0-4.096-2.048-4.096-4.096V296.96c0-2.048 2.048-4.096 4.096-4.096h126.976c2.048 0 4.096 2.048 4.096 4.096v606.208zM569.344 32.768h-116.736c-51.2 0-94.208 43.008-94.208 94.208v770.048c0 51.2 43.008 94.208 94.208 94.208h116.736c51.2 0 94.208-43.008 94.208-94.208V126.976c0-51.2-40.96-94.208-94.208-94.208z m8.192 864.256c0 4.096-4.096 8.192-8.192 8.192h-116.736c-4.096 0-8.192-4.096-8.192-8.192V126.976c0-4.096 4.096-8.192 8.192-8.192h116.736c4.096 0 8.192 4.096 8.192 8.192v770.048z" /></svg>