<?xml version="1.0" standalone="no"?><!DOCTYPE svg PUBLIC "-//W3C//DTD SVG 1.1//EN" "http://www.w3.org/Graphics/SVG/1.1/DTD/svg11.dtd"><svg class="icon" width="200px" height="200.00px" viewBox="0 0 1024 1024" version="1.1" xmlns="http://www.w3.org/2000/svg"><path fill="#333333" d="M983.452877 419.84c-27.0336-65.3312-63.488-121.6512-109.1584-168.96-45.6704-47.3088-100.1472-84.992-163.4304-112.8448A486.1952 486.1952 0 0 0 512.003277 96.0512c-68.4032-0.2048-136.192 14.1312-198.8608 41.984-63.2832 28.0576-117.76 65.536-163.4304 112.8448-45.6704 47.3088-82.1248 103.6288-109.1584 168.96A531.98848 531.98848 0 0 0 0.003277 625.4592c0 103.2192 26.8288 198.4512 80.4864 285.4912 7.168 11.4688 17.6128 17.2032 30.9248 17.2032h801.1776c13.312 0 23.552-5.7344 30.9248-17.2032C997.174477 823.5008 1024.003277 728.2688 1024.003277 625.4592c0-71.68-13.5168-140.288-40.5504-205.6192zM460.393677 193.7408c14.336-14.7456 31.5392-22.1184 51.8144-22.1184 20.2752 0 37.4784 7.3728 51.8144 22.1184 14.336 14.7456 21.504 32.5632 21.504 53.4528 0 20.8896-7.168 38.7072-21.504 53.4528-14.336 14.7456-31.5392 22.1184-51.8144 22.1184-20.2752 0-37.4784-7.3728-51.8144-22.1184-14.336-14.7456-21.504-32.5632-21.504-53.4528 0-20.6848 7.168-38.7072 21.504-53.4528zM198.044877 678.912c-14.336 14.7456-31.5392 22.1184-51.8144 22.1184-20.2752 0-37.4784-7.3728-51.8144-22.1184-14.336-14.7456-21.504-32.5632-21.504-53.4528 0-20.8896 7.168-38.7072 21.504-53.4528 14.336-14.7456 31.5392-22.1184 51.8144-22.1184 20.2752 0 37.4784 7.3728 51.8144 22.1184 14.336 14.7456 21.504 32.5632 21.504 53.4528 0 20.8896-7.168 38.7072-21.504 53.4528z m109.7728-264.8064c-14.336 14.7456-31.5392 22.1184-51.8144 22.1184-20.2752 0-37.4784-7.3728-51.8144-22.1184-14.336-14.7456-21.504-32.5632-21.504-53.4528 0-20.8896 7.168-38.7072 21.504-53.4528 14.336-14.7456 31.5392-22.1184 51.8144-22.1184 20.2752 0 37.4784 7.3728 51.8144 22.1184 14.336 14.7456 21.504 32.5632 21.504 53.4528-0.2048 20.8896-7.3728 38.7072-21.504 53.4528z m323.584 5.12l-57.7536 225.6896c19.0464 13.312 32.768 31.3344 41.1648 53.8624 8.3968 22.528 9.6256 45.4656 3.4816 69.2224-7.5776 30.3104-24.576 53.4528-50.7904 69.2224s-54.0672 19.6608-83.3536 11.8784c-29.2864-7.7824-51.6096-25.3952-66.7648-52.6336-15.1552-27.2384-19.0464-55.9104-11.4688-86.2208 6.144-23.552 18.0224-43.008 36.0448-58.1632 17.8176-15.1552 38.2976-23.7568 61.2352-25.8048l57.7536-225.6896c2.6624-10.24 8.3968-18.0224 17.2032-23.3472 8.8064-5.3248 17.8176-6.5536 27.4432-3.8912 9.6256 2.8672 16.7936 8.6016 21.9136 17.408 4.7104 8.6016 6.144 18.2272 3.8912 28.4672z m84.992-5.12c-14.336-14.7456-21.504-32.5632-21.504-53.4528 0-20.8896 7.168-38.7072 21.504-53.4528 14.336-14.7456 31.5392-22.1184 51.8144-22.1184 20.2752 0 37.4784 7.3728 51.8144 22.1184 14.336 14.7456 21.504 32.5632 21.504 53.4528 0 20.8896-7.168 38.7072-21.504 53.4528-14.336 14.7456-31.5392 22.1184-51.8144 22.1184-20.48 0.2048-37.6832-7.168-51.8144-22.1184z m212.992 264.8064c-14.336 14.7456-31.5392 22.1184-51.8144 22.1184-20.2752 0-37.4784-7.3728-51.6096-22.1184-14.336-14.7456-21.504-32.5632-21.504-53.4528 0-20.8896 7.168-38.7072 21.504-53.4528 14.336-14.7456 31.5392-22.1184 51.6096-22.1184 20.2752 0 37.4784 7.3728 51.8144 22.1184 14.336 14.7456 21.504 32.5632 21.504 53.4528 0 20.8896-7.168 38.7072-21.504 53.4528z m0 0" /></svg>