<?xml version="1.0" standalone="no"?><!DOCTYPE svg PUBLIC "-//W3C//DTD SVG 1.1//EN" "http://www.w3.org/Graphics/SVG/1.1/DTD/svg11.dtd"><svg class="icon" width="200px" height="200.00px" viewBox="0 0 1024 1024" version="1.1" xmlns="http://www.w3.org/2000/svg"><path fill="#333333" d="M512 0C229.376 0 0 229.376 0 512s229.376 512 512 512 512-229.376 512-512S794.624 0 512 0z m0 944.128C274.432 944.128 79.872 749.568 79.872 512 79.872 274.432 274.432 79.872 512 79.872S944.128 274.432 944.128 512c0 237.568-194.56 432.128-432.128 432.128zM714.752 512H512v-202.752c0-22.528-18.432-40.96-40.96-40.96s-40.96 18.432-40.96 40.96V552.96c0 22.528 18.432 40.96 40.96 40.96h241.664c22.528 0 40.96-18.432 40.96-40.96s-16.384-40.96-38.912-40.96z" /></svg>