<?xml version="1.0" standalone="no"?><!DOCTYPE svg PUBLIC "-//W3C//DTD SVG 1.1//EN" "http://www.w3.org/Graphics/SVG/1.1/DTD/svg11.dtd"><svg class="icon" width="200px" height="200.00px" viewBox="0 0 1024 1024" version="1.1" xmlns="http://www.w3.org/2000/svg"><path fill="#333333" d="M507.353702 81.5104C249.100902 81.5104 39.795302 290.816 39.795302 548.864s209.3056 467.5584 467.5584 467.5584S974.912102 807.1168 974.912102 548.864 765.606502 81.5104 507.353702 81.5104z m184.5248 541.2864H470.489702c-20.48 0-36.864-16.5888-36.864-36.864V364.3392a36.84352 36.84352 0 1 1 73.728 0v184.5248h184.5248a36.9664 36.9664 0 0 1 0 73.9328z"  /><path fill="#333333" d="M84.032102 248.2176l156.672-156.672c19.2512-19.2512 19.2512-50.3808 0-69.632s-50.3808-19.2512-69.632 0L14.400102 178.5856a49.19296 49.19296 0 0 0 34.816 83.968c12.6976 0 25.1904-4.7104 34.816-14.336zM1009.728102 178.5856l-156.672-156.672c-19.2512-19.2512-50.3808-19.2512-69.632 0s-19.2512 50.3808 0 69.632l156.672 156.672c9.6256 9.6256 22.1184 14.336 34.816 14.336a49.152 49.152 0 0 0 34.816-14.336c19.0464-19.2512 19.0464-50.3808 0-69.632z"  /></svg>