<?xml version="1.0" standalone="no"?><!DOCTYPE svg PUBLIC "-//W3C//DTD SVG 1.1//EN" "http://www.w3.org/Graphics/SVG/1.1/DTD/svg11.dtd"><svg class="icon" width="200px" height="200.00px" viewBox="0 0 1024 1024" version="1.1" xmlns="http://www.w3.org/2000/svg"><path fill="#333333" d="M512 0C229.376 0 0 229.376 0 512s229.376 512 512 512 512-229.376 512-512S794.624 0 512 0z m0 944.128C272.384 944.128 79.872 751.616 79.872 512 79.872 272.384 272.384 79.872 512 79.872c239.616 0 432.128 194.56 432.128 432.128 0 239.616-192.512 432.128-432.128 432.128zM512 380.928c-22.528 0-40.96 18.432-40.96 40.96v382.976c0 22.528 18.432 40.96 40.96 40.96s40.96-18.432 40.96-40.96V421.888c0-22.528-18.432-40.96-40.96-40.96zM503.808 239.616c-2.048 0-6.144 2.048-8.192 2.048-2.048 2.048-6.144 2.048-8.192 4.096l-6.144 6.144c-8.192 8.192-14.336 20.48-14.336 32.768 0 12.288 4.096 24.576 14.336 32.768l6.144 6.144c2.048 2.048 6.144 2.048 8.192 4.096s6.144 2.048 8.192 2.048h8.192c12.288 0 24.576-4.096 32.768-14.336 8.192-8.192 14.336-20.48 14.336-32.768 0-12.288-4.096-24.576-14.336-32.768-10.24-8.192-26.624-12.288-40.96-10.24z" /></svg>