<?xml version="1.0" standalone="no"?><!DOCTYPE svg PUBLIC "-//W3C//DTD SVG 1.1//EN" "http://www.w3.org/Graphics/SVG/1.1/DTD/svg11.dtd"><svg class="icon" width="200px" height="196.17px" viewBox="0 0 1044 1024" version="1.1" xmlns="http://www.w3.org/2000/svg"><path fill="#333333" d="M1037.1072 474.7264l-183.9104-141.9264c-10.24-8.192-29.696-3.6864-29.696 20.8896v271.7696c0 29.696 19.456 29.696 29.696 20.8896l183.9104-141.9264c10.24-7.7824 9.4208-21.504 0-29.696zM45.8752 142.336h925.0816c25.3952 0 45.8752-20.48 45.8752-45.8752s-20.48-45.8752-45.8752-45.8752H45.8752C20.48 50.5856 0 71.0656 0 96.4608s20.48 45.8752 45.8752 45.8752zM45.8752 536.1664h660.8896c25.3952 0 45.8752-20.48 45.8752-45.8752s-20.48-45.8752-45.8752-45.8752H45.8752c-25.3952 0-45.8752 20.48-45.8752 45.8752s20.48 45.8752 45.8752 45.8752zM971.1616 881.664H45.8752c-25.3952 0-45.8752 20.48-45.8752 45.8752s20.48 45.8752 45.8752 45.8752h925.0816c25.3952 0 45.8752-20.48 45.8752-45.8752s-20.48-45.8752-45.6704-45.8752z" /></svg>