<?xml version="1.0" standalone="no"?><!DOCTYPE svg PUBLIC "-//W3C//DTD SVG 1.1//EN" "http://www.w3.org/Graphics/SVG/1.1/DTD/svg11.dtd"><svg class="icon" width="200px" height="200.00px" viewBox="0 0 1024 1024" version="1.1" xmlns="http://www.w3.org/2000/svg"><path fill="#333333" d="M512 575.488c-22.528 0-43.008 18.432-43.008 43.008v178.176c0 22.528 18.432 43.008 43.008 43.008s43.008-18.432 43.008-43.008v-178.176c0-24.576-20.48-43.008-43.008-43.008zM878.592 372.736h-552.96v-112.64c0-98.304 79.872-180.224 180.224-180.224 98.304 0 180.224 79.872 180.224 180.224 0 22.528 18.432 40.96 40.96 40.96s40.96-18.432 40.96-40.96c0-143.36-116.736-260.096-260.096-260.096C362.496 0 245.76 116.736 245.76 260.096v112.64H145.408c-61.44 0-112.64 51.2-112.64 112.64v425.984c0 61.44 51.2 112.64 112.64 112.64h731.136c61.44 0 112.64-51.2 112.64-112.64V485.376c2.048-61.44-49.152-112.64-110.592-112.64z m26.624 538.624c0 14.336-12.288 28.672-28.672 28.672H145.408c-14.336 0-28.672-12.288-28.672-28.672V485.376c0-14.336 12.288-28.672 28.672-28.672h731.136c14.336 0 28.672 12.288 28.672 28.672v425.984z" /></svg>