<?xml version="1.0" standalone="no"?><!DOCTYPE svg PUBLIC "-//W3C//DTD SVG 1.1//EN" "http://www.w3.org/Graphics/SVG/1.1/DTD/svg11.dtd"><svg class="icon" width="200px" height="200.00px" viewBox="0 0 1024 1024" version="1.1" xmlns="http://www.w3.org/2000/svg"><path fill="#333333" d="M512 839.68c24.576 0 43.008-18.432 43.008-43.008V307.2l139.264 139.264c16.384 16.384 43.008 16.384 59.392 0 16.384-16.384 16.384-43.008 0-59.392l-169.984-169.984C563.2 194.56 536.576 184.32 512 184.32c-24.576 0-51.2 10.24-69.632 28.672l-169.984 169.984c-16.384 16.384-16.384 43.008 0 59.392 16.384 16.384 43.008 16.384 59.392 0l139.264-139.264v491.52c-2.048 26.624 16.384 45.056 40.96 45.056zM512 0C229.376 0 0 229.376 0 512c0 196.608 110.592 372.736 286.72 460.8 6.144 2.048 12.288 4.096 18.432 4.096 14.336 0 30.72-8.192 36.864-22.528 10.24-20.48 2.048-45.056-18.432-55.296C174.08 825.344 81.92 677.888 81.92 512 81.92 274.432 274.432 81.92 512 81.92s430.08 192.512 430.08 430.08c0 165.888-92.16 313.344-241.664 387.072-20.48 10.24-28.672 34.816-18.432 55.296 10.24 20.48 34.816 28.672 55.296 18.432 176.128-86.016 286.72-262.144 286.72-460.8C1024 229.376 794.624 0 512 0zM516.096 942.08h-6.144c-22.528-2.048-40.96 16.384-43.008 38.912 0 22.528 16.384 40.96 38.912 43.008h10.24c22.528 0 40.96-18.432 40.96-38.912 0-22.528-18.432-43.008-40.96-43.008z" /></svg>