<?xml version="1.0" standalone="no"?><!DOCTYPE svg PUBLIC "-//W3C//DTD SVG 1.1//EN" "http://www.w3.org/Graphics/SVG/1.1/DTD/svg11.dtd"><svg class="icon" width="200px" height="200.00px" viewBox="0 0 1024 1024" version="1.1" xmlns="http://www.w3.org/2000/svg"><path fill="#333333" d="M815.7184 588.5952a190.73024 190.73024 0 0 0 52.8384-132.096c0-105.472-85.8112-191.2832-191.2832-191.2832-8.3968 0-16.7936 0.6144-25.6 1.8432-30.5152-96.256-120.4224-162.816-221.5936-162.816-128.4096 0-232.8576 104.448-232.8576 232.8576 0 65.536 26.8288 126.7712 74.1376 170.5984C120.0128 567.0912 14.336 708.4032 0.4096 871.8336c-0.8192 10.4448 2.2528 20.6848 9.216 28.672 6.7584 7.9872 16.1792 12.9024 26.624 13.9264 10.4448 1.024 20.6848-2.2528 28.672-9.0112 7.9872-6.7584 13.1072-16.384 13.9264-26.8288 13.9264-162.816 136.6016-293.6832 298.1888-318.2592 18.2272-2.6624 31.744-17.408 33.3824-35.84 1.4336-18.2272-9.6256-35.0208-27.2384-40.5504-64.1024-20.48-107.1104-79.4624-107.1104-146.8416 0-84.992 69.2224-154.2144 154.2144-154.2144 68.608 0 128.4096 45.056 147.6608 110.3872-56.7296 34.816-91.7504 96.6656-91.7504 163.0208 0 9.0112 0.8192 18.432 2.6624 29.696a192.38912 192.38912 0 0 0 50.176 102.1952c-116.3264 50.176-197.4272 162.2016-208.2816 289.5872a38.25664 38.25664 0 0 0 34.816 41.5744c10.0352 1.024 20.2752-2.2528 28.0576-8.8064 7.9872-6.5536 12.6976-15.9744 13.5168-26.2144a269.7216 269.7216 0 0 1 229.1712-244.3264c8.192-1.2288 15.7696-5.12 21.7088-11.264 6.144-6.3488 10.0352-14.7456 10.6496-23.552 1.4336-17.8176-9.4208-34.2016-26.624-39.7312a113.95072 113.95072 0 0 1-79.4624-108.9536l0.2048-4.3008c1.2288-31.5392 15.5648-61.44 39.5264-82.1248 15.1552-13.1072 33.3824-22.1184 52.8384-25.8048 72.2944-14.1312 136.3968 41.984 136.3968 112.2304 0 49.9712-31.9488 93.5936-79.4624 108.9536-8.192 2.6624-15.36 7.9872-20.2752 15.1552-4.7104 7.168-7.168 15.9744-6.3488 24.3712 1.4336 17.8176 14.7456 32.1536 32.5632 34.816 7.7824 1.2288 15.9744 2.8672 24.3712 4.9152 112.64 27.648 194.9696 123.904 204.8 239.616 1.6384 19.6608 18.432 35.2256 38.2976 35.2256 1.2288 0 2.2528 0 3.2768-0.2048 10.24-0.8192 19.456-5.7344 26.2144-13.5168 6.5536-7.7824 9.8304-17.8176 8.8064-28.0576-10.8544-126.976-91.9552-239.0016-208.0768-289.1776z" /></svg>