<?xml version="1.0" standalone="no"?><!DOCTYPE svg PUBLIC "-//W3C//DTD SVG 1.1//EN" "http://www.w3.org/Graphics/SVG/1.1/DTD/svg11.dtd"><svg class="icon" width="200px" height="199.61px" viewBox="0 0 1026 1024" version="1.1" xmlns="http://www.w3.org/2000/svg"><path fill="#333333" d="M980.992 294.912c-26.624-16.384-59.392-16.384-86.016 0l-88.064 51.2v-71.68C806.912 202.752 747.52 143.36 675.84 143.36H131.072C59.392 143.36 0 202.752 0 274.432v475.136C0 821.248 59.392 880.64 131.072 880.64h546.816c71.68 0 131.072-59.392 131.072-131.072V675.84l88.064 51.2c26.624 16.384 59.392 16.384 86.016 0 26.624-16.384 43.008-43.008 43.008-73.728V368.64c-2.048-30.72-18.432-57.344-45.056-73.728zM737.28 749.568c0 32.768-26.624 59.392-59.392 59.392H131.072c-32.768 0-59.392-26.624-59.392-59.392V274.432c0-32.768 26.624-59.392 59.392-59.392h546.816c32.768 0 59.392 26.624 59.392 59.392V749.568z m215.04-98.304c0 6.144-4.096 10.24-6.144 12.288-2.048 2.048-8.192 4.096-14.336 0l-126.976-73.728V430.08l126.976-73.728c6.144-4.096 12.288-2.048 14.336 0 2.048 2.048 6.144 4.096 6.144 12.288v282.624z" /></svg>