<?xml version="1.0" standalone="no"?><!DOCTYPE svg PUBLIC "-//W3C//DTD SVG 1.1//EN" "http://www.w3.org/Graphics/SVG/1.1/DTD/svg11.dtd"><svg class="icon" width="200px" height="200.00px" viewBox="0 0 1024 1024" version="1.1" xmlns="http://www.w3.org/2000/svg"><path fill="#333333" d="M512 114.688C264.192 114.688 57.344 284.672 0 512c57.344 227.328 264.192 397.312 512 397.312S966.656 739.328 1024 512C966.656 284.672 759.808 114.688 512 114.688z m0 716.8c-200.704 0-376.832-131.072-432.128-319.488C135.168 323.584 311.296 192.512 512 192.512S888.832 323.584 944.128 512C888.832 700.416 712.704 831.488 512 831.488zM512 319.488c-98.304 0-180.224 79.872-180.224 180.224 0 98.304 79.872 180.224 180.224 180.224s180.224-79.872 180.224-180.224-81.92-180.224-180.224-180.224z m0 282.624c-57.344 0-102.4-45.056-102.4-102.4s45.056-102.4 102.4-102.4 102.4 45.056 102.4 102.4c0 55.296-45.056 102.4-102.4 102.4z" /></svg>