<?xml version="1.0" standalone="no"?><!DOCTYPE svg PUBLIC "-//W3C//DTD SVG 1.1//EN" "http://www.w3.org/Graphics/SVG/1.1/DTD/svg11.dtd"><svg class="icon" width="200px" height="200.00px" viewBox="0 0 1024 1024" version="1.1" xmlns="http://www.w3.org/2000/svg"><path fill="#333333" d="M512 741.94012c126.722555 0 230.962076-104.239521 230.962076-230.962076V230.962076C742.962076 104.239521 638.722555 0 512 0S281.037924 104.239521 281.037924 230.962076V510.978044c0 126.722555 104.239521 230.962076 230.962076 230.962076z m-153.293413-510.978044c0-85.844311 69.493014-153.293413 153.293413-153.293413s153.293413 69.493014 153.293413 153.293413V510.978044c0 85.844311-69.493014 153.293413-153.293413 153.293413s-153.293413-69.493014-153.293413-153.293413V230.962076zM869.684631 447.616766c-20.439122 0-38.834331 16.351297-38.834332 38.834332 0 175.776447-143.073852 318.850299-318.850299 318.850299s-318.850299-143.073852-318.850299-318.850299c0-20.439122-16.351297-38.834331-38.834332-38.834332s-38.834331 16.351297-38.834331 38.834332c0 206.43513 157.381238 374.035928 357.684631 394.47505v104.239521c0 20.439122 16.351297 38.834331 38.834331 38.834331s38.834331-16.351297 38.834331-38.834331V878.882236c200.303393-18.39521 357.684631-188.03992 357.684631-394.47505 0-20.439122-18.39521-36.790419-38.834331-36.79042z" /></svg>