<?xml version="1.0" standalone="no"?><!DOCTYPE svg PUBLIC "-//W3C//DTD SVG 1.1//EN" "http://www.w3.org/Graphics/SVG/1.1/DTD/svg11.dtd"><svg class="icon" width="200px" height="200.00px" viewBox="0 0 1024 1024" version="1.1" xmlns="http://www.w3.org/2000/svg"><path fill="#333333" d="M999.424 759.808L626.688 141.312C598.016 90.112 557.056 61.44 512 61.44c-45.056 0-86.016 28.672-114.688 79.872L24.576 759.808c-28.672 51.2-32.768 102.4-8.192 141.312 22.528 38.912 67.584 61.44 124.928 61.44h745.472c55.296 0 100.352-22.528 122.88-61.44 22.528-38.912 18.432-90.112-10.24-141.312z m-55.296 104.448c-8.192 14.336-28.672 24.576-57.344 24.576H141.312c-28.672 0-51.2-8.192-59.392-22.528-8.192-14.336-6.144-38.912 8.192-65.536L462.848 178.176c14.336-26.624 32.768-40.96 49.152-40.96 16.384 0 34.816 14.336 49.152 43.008L933.888 798.72c14.336 24.576 18.432 49.152 10.24 65.536zM489.472 649.216c6.144 4.096 14.336 6.144 22.528 6.144s16.384-2.048 22.528-6.144c14.336-8.192 22.528-22.528 22.528-38.912V360.448c0-16.384-8.192-32.768-22.528-40.96-14.336-8.192-32.768-8.192-45.056 0-14.336 8.192-22.528 24.576-22.528 40.96v251.904c0 14.336 8.192 28.672 22.528 36.864zM536.576 704.512c-16.384-10.24-34.816-10.24-51.2 0s-24.576 26.624-24.576 45.056c0 26.624 22.528 49.152 49.152 49.152 26.624 0 49.152-22.528 49.152-49.152 4.096-18.432-6.144-36.864-22.528-45.056z" /></svg>