<?xml version="1.0" standalone="no"?><!DOCTYPE svg PUBLIC "-//W3C//DTD SVG 1.1//EN" "http://www.w3.org/Graphics/SVG/1.1/DTD/svg11.dtd"><svg class="icon" width="200px" height="200.00px" viewBox="0 0 1024 1024" version="1.1" xmlns="http://www.w3.org/2000/svg"><path fill="#333333" d="M462.906573 28.672c256 0 460.8 176.128 460.8 397.312v34.816c0 10.24 0 14.336-4.096 24.576 65.536 51.2 104.448 120.832 104.448 200.704v14.336c-4.096 59.392-30.72 114.688-69.632 159.744l-10.24 10.24v10.24l4.096 24.576c0 10.24 4.096 14.336 4.096 24.576 0 24.576-4.096 40.96-24.576 55.296-14.336 10.24-34.816 10.24-55.296 0l-8.192-2.048c-4.096 0-4.096-4.096-10.24-4.096L819.258573 962.56c-4.096 0-4.096-4.096-10.24-4.096h-4.096 4.096c-34.816 10.24-75.776 14.336-114.688 14.336-124.928 0-235.52-55.296-296.96-141.312h4.096c-14.336 0-30.72-4.096-45.056-4.096l-20.48-4.096c-4.096 0-10.24-4.096-30.72-10.24l-30.72 14.336-49.152 24.576c-51.2 24.576-65.536 24.576-90.112 10.24-20.48-14.336-30.72-34.816-24.576-59.392v-10.24c0-10.24 0-20.48 4.096-34.816l4.096-30.72v-24.576l-4.096-6.144C45.114573 626.688 4.154573 540.672 0.058573 450.56v-14.336C-4.037427 208.896 206.906573 28.672 462.906573 28.672z m225.28 452.608c-145.408 0-260.096 90.112-260.096 200.704s114.688 200.704 260.096 200.704c24.576 0 55.296-4.096 79.872-10.24l14.336-4.096c20.48-4.096 30.72-4.096 65.536 10.24l24.576 10.24v-24.576c0-20.48 0-34.816 14.336-51.2 45.056-34.816 65.536-86.016 65.536-135.168-4.096-102.4-118.784-196.608-264.192-196.608z m-225.28-372.736C245.818573 108.544 69.690573 253.952 69.690573 430.08c0 79.872 34.816 155.648 100.352 215.04 14.336 14.336 20.48 34.816 20.48 59.392 0 10.24 0 14.336-4.096 24.576l-10.24 51.2 14.336-10.24c4.096 0 10.24-4.096 20.48-10.24l24.576-10.24c45.056-24.576 65.536-30.72 90.112-20.48l30.72 10.24c-4.096-14.336-4.096-34.816-4.096-55.296 0-155.648 155.648-276.48 342.016-276.48 59.392 0 114.688 10.24 159.744 34.816v-10.24c-6.144-178.176-176.128-323.584-391.168-323.584z m325.632 487.424c30.72 0 51.2 20.48 51.2 51.2s-20.48 51.2-51.2 51.2C757.818573 696.32 737.338573 675.84 737.338573 647.168c0-30.72 20.48-51.2 51.2-51.2z m-200.704 0c30.72 0 51.2 20.48 51.2 51.2s-20.48 51.2-51.2 51.2-51.2-20.48-51.2-51.2 20.48-51.2 51.2-51.2zM325.690573 243.712c34.816 0 59.392 30.72 59.392 59.392 0 30.72-30.72 65.536-59.392 65.536-30.72 0-65.536-30.72-65.536-59.392s30.72-65.536 65.536-65.536z m272.384 0c34.816 0 59.392 30.72 59.392 59.392 0 30.72-24.576 65.536-59.392 65.536s-59.392-30.72-59.392-59.392c-2.048-28.672 28.672-65.536 59.392-65.536z m0 0" /></svg>