<?xml version="1.0" standalone="no"?><!DOCTYPE svg PUBLIC "-//W3C//DTD SVG 1.1//EN" "http://www.w3.org/Graphics/SVG/1.1/DTD/svg11.dtd"><svg class="icon" width="200px" height="200.00px" viewBox="0 0 1024 1024" version="1.1" xmlns="http://www.w3.org/2000/svg"><path fill="#333333" d="M512 0C229.376 0 0 229.376 0 512s229.376 512 512 512 512-229.376 512-512S794.624 0 512 0z m0 952.32C268.288 952.32 71.68 755.712 71.68 512S268.288 71.68 512 71.68 952.32 268.288 952.32 512 755.712 952.32 512 952.32zM706.56 317.44c-14.336-14.336-34.816-14.336-49.152 0L512 462.848l-145.408-145.408c-14.336-14.336-34.816-14.336-49.152 0s-14.336 34.816 0 49.152l145.408 145.408-145.408 145.408c-14.336 14.336-14.336 34.816 0 49.152s34.816 14.336 49.152 0l145.408-145.408 145.408 145.408c14.336 14.336 34.816 14.336 49.152 0s14.336-34.816 0-49.152L561.152 512l145.408-145.408c14.336-14.336 14.336-36.864 0-49.152z" /></svg>