<?xml version="1.0" standalone="no"?><!DOCTYPE svg PUBLIC "-//W3C//DTD SVG 1.1//EN" "http://www.w3.org/Graphics/SVG/1.1/DTD/svg11.dtd"><svg class="icon" width="200px" height="200.00px" viewBox="0 0 1024 1024" version="1.1" xmlns="http://www.w3.org/2000/svg"><path fill="#333333" d="M0 512c0 282.624 229.376 512 512 512s512-229.376 512-512S794.624 0 512 0 0 229.376 0 512z m944.128 0c0 237.568-192.512 432.128-432.128 432.128-237.568 0-432.128-194.56-432.128-432.128C79.872 274.432 274.432 79.872 512 79.872c237.568 0 432.128 194.56 432.128 432.128zM628.736 561.152c20.48 0 36.864 16.384 36.864 38.912 0 20.48-16.384 38.912-36.864 38.912h-71.68v49.152c0 26.624-20.48 49.152-45.056 49.152-24.576 0-45.056-22.528-45.056-49.152v-49.152h-71.68c-20.48 0-36.864-16.384-36.864-38.912 0-20.48 16.384-38.912 36.864-38.912h71.68v-38.912h-71.68c-20.48 0-36.864-16.384-36.864-38.912 0-20.48 16.384-38.912 36.864-38.912h71.68v-2.048l-79.872-86.016c-14.336-16.384-14.336-38.912 0-55.296 6.144-8.192 16.384-12.288 26.624-12.288s18.432 4.096 26.624 12.288l73.728 77.824 73.728-79.872c6.144-8.192 16.384-12.288 26.624-12.288s18.432 4.096 26.624 12.288c14.336 16.384 14.336 38.912 0 55.296l-79.872 83.968v4.096h71.68c20.48 0 36.864 16.384 36.864 38.912 0 20.48-16.384 38.912-36.864 38.912h-71.68v38.912h67.584z" /></svg>